%TF.GenerationSoftware,KiCad,Pcbnew,(7.0.0)*%
%TF.CreationDate,2023-02-16T22:34:50-06:00*%
%TF.ProjectId,cart,63617274-2e6b-4696-9361-645f70636258,rev?*%
%TF.SameCoordinates,Original*%
%TF.FileFunction,Drillmap*%
%TF.FilePolarity,Positive*%
%FSLAX45Y45*%
G04 Gerber Fmt 4.5, Leading zero omitted, Abs format (unit mm)*
G04 Created by KiCad (PCBNEW (7.0.0)) date 2023-02-16 22:34:50*
%MOMM*%
%LPD*%
G01*
G04 APERTURE LIST*
%ADD10C,0.100000*%
%ADD11C,0.150000*%
%ADD12C,0.200000*%
%ADD13C,0.040000*%
%ADD14C,0.075000*%
%ADD15C,0.080000*%
%ADD16C,0.095000*%
G04 APERTURE END LIST*
D10*
X13163000Y-15601000D02*
X14534000Y-15601000D01*
X14534000Y-15601000D02*
X14534000Y-16163000D01*
X14534000Y-16163000D02*
X13163000Y-16163000D01*
X13163000Y-16163000D02*
X13163000Y-15601000D01*
X15421000Y-9813000D02*
X15422000Y-10725000D01*
X12130800Y-9822400D02*
X11597400Y-9822400D01*
X15867000Y-9809000D02*
X15421000Y-9813000D01*
X11597400Y-9822400D02*
X11597400Y-9339800D01*
X15706000Y-14034000D02*
X15706000Y-13506000D01*
X17183000Y-17897000D02*
X17182000Y-16198000D01*
X15432000Y-13506000D02*
X15706000Y-13506000D01*
X11597400Y-8946100D02*
X8358900Y-8946100D01*
X15867000Y-9809000D02*
X15867000Y-8946000D01*
X11597400Y-9339800D02*
X11597400Y-8946100D01*
X18182000Y-13423000D02*
X16334000Y-13423000D01*
X8184000Y-12560000D02*
X8359000Y-12560000D01*
X8184000Y-14543000D02*
X8184000Y-12560000D01*
X11888000Y-14767000D02*
X12189000Y-14767000D01*
X12189000Y-14767000D02*
X12189000Y-15266000D01*
X12189000Y-15266000D02*
X11888000Y-15266000D01*
X11888000Y-15266000D02*
X11888000Y-14767000D01*
X15432000Y-13420000D02*
X15432000Y-13506000D01*
X17182000Y-16198000D02*
X18182000Y-16198000D01*
X18182000Y-16198000D02*
X18182000Y-16097000D01*
X17012000Y-15571000D02*
X17012000Y-16062000D01*
X12130800Y-8946100D02*
X12130800Y-9822400D01*
X18182000Y-13423000D02*
X18182000Y-16097000D01*
X10035000Y-16102000D02*
X9444000Y-16102000D01*
X10134250Y-14213000D02*
X10461750Y-14213000D01*
X10461750Y-14213000D02*
X10461750Y-14545500D01*
X10461750Y-14545500D02*
X10134250Y-14545500D01*
X10134250Y-14545500D02*
X10134250Y-14213000D01*
X16334000Y-13423000D02*
X16333000Y-14034000D01*
X17012000Y-16153000D02*
X16751000Y-16152000D01*
X16333000Y-14034000D02*
X15706000Y-14034000D01*
D11*
X12664000Y-12951500D02*
X12964000Y-12951500D01*
X12964000Y-12951500D02*
X12964000Y-13426500D01*
X12964000Y-13426500D02*
X12664000Y-13426500D01*
X12664000Y-13426500D02*
X12664000Y-12951500D01*
D10*
X14563000Y-12485000D02*
X15431000Y-12486000D01*
X15422000Y-10725000D02*
X14562000Y-10725000D01*
X10032000Y-17902000D02*
X17183000Y-17897000D01*
X8358900Y-8946100D02*
X8359000Y-12560000D01*
X16751000Y-16063000D02*
X16751000Y-15571000D01*
X16751000Y-15571000D02*
X17012000Y-15571000D01*
D11*
X8723000Y-12182000D02*
X9185500Y-12182000D01*
X9185500Y-12182000D02*
X9185500Y-12524500D01*
X9185500Y-12524500D02*
X8723000Y-12524500D01*
X8723000Y-12524500D02*
X8723000Y-12182000D01*
D10*
X9445000Y-14542000D02*
X8184000Y-14543000D01*
X12130800Y-8946100D02*
X15867000Y-8946000D01*
X9444000Y-16102000D02*
X9445000Y-14542000D01*
X16751000Y-16152000D02*
X16751000Y-16063000D01*
X17012000Y-16062000D02*
X17012000Y-16153000D01*
X14562000Y-10725000D02*
X14563000Y-12485000D01*
X15432000Y-13420000D02*
X15431000Y-12486000D01*
X10035000Y-16102000D02*
X10032000Y-17902000D01*
D12*
D13*
X8678160Y-11748060D02*
X8718160Y-11788060D01*
X8718160Y-11748060D02*
X8678160Y-11788060D01*
X9443590Y-13139810D02*
X9483590Y-13179810D01*
X9483590Y-13139810D02*
X9443590Y-13179810D01*
X9490930Y-10072820D02*
X9530930Y-10112820D01*
X9530930Y-10072820D02*
X9490930Y-10112820D01*
X9633620Y-10206850D02*
X9673620Y-10246850D01*
X9673620Y-10206850D02*
X9633620Y-10246850D01*
X9639310Y-10029600D02*
X9679310Y-10069600D01*
X9679310Y-10029600D02*
X9639310Y-10069600D01*
X9670530Y-10844020D02*
X9710530Y-10884020D01*
X9710530Y-10844020D02*
X9670530Y-10884020D01*
X9674010Y-10742480D02*
X9714010Y-10782480D01*
X9714010Y-10742480D02*
X9674010Y-10782480D01*
X9697480Y-14155270D02*
X9737480Y-14195270D01*
X9737480Y-14155270D02*
X9697480Y-14195270D01*
X9756240Y-11411110D02*
X9796240Y-11451110D01*
X9796240Y-11411110D02*
X9756240Y-11451110D01*
X9799880Y-13256930D02*
X9839880Y-13296930D01*
X9839880Y-13256930D02*
X9799880Y-13296930D01*
X9822390Y-14653420D02*
X9862390Y-14693420D01*
X9862390Y-14653420D02*
X9822390Y-14693420D01*
X9869750Y-13342260D02*
X9909750Y-13382260D01*
X9909750Y-13342260D02*
X9869750Y-13382260D01*
X9876740Y-13448100D02*
X9916740Y-13488100D01*
X9916740Y-13448100D02*
X9876740Y-13488100D01*
X9895170Y-9776970D02*
X9935170Y-9816970D01*
X9935170Y-9776970D02*
X9895170Y-9816970D01*
X9963640Y-14628240D02*
X10003640Y-14668240D01*
X10003640Y-14628240D02*
X9963640Y-14668240D01*
X10017300Y-15997160D02*
X10057300Y-16037160D01*
X10057300Y-15997160D02*
X10017300Y-16037160D01*
X10032690Y-14040030D02*
X10072690Y-14080030D01*
X10072690Y-14040030D02*
X10032690Y-14080030D01*
X10087170Y-12584820D02*
X10127170Y-12624820D01*
X10127170Y-12584820D02*
X10087170Y-12624820D01*
X10135050Y-14035280D02*
X10175050Y-14075280D01*
X10175050Y-14035280D02*
X10135050Y-14075280D01*
X10137260Y-11483510D02*
X10177260Y-11523510D01*
X10177260Y-11483510D02*
X10137260Y-11523510D01*
X10137760Y-12750440D02*
X10177760Y-12790440D01*
X10177760Y-12750440D02*
X10137760Y-12790440D01*
X10142060Y-13522300D02*
X10182060Y-13562300D01*
X10182060Y-13522300D02*
X10142060Y-13562300D01*
X10146060Y-9775560D02*
X10186060Y-9815560D01*
X10186060Y-9775560D02*
X10146060Y-9815560D01*
X10306450Y-16175950D02*
X10346450Y-16215950D01*
X10346450Y-16175950D02*
X10306450Y-16215950D01*
X10387780Y-15741870D02*
X10427780Y-15781870D01*
X10427780Y-15741870D02*
X10387780Y-15781870D01*
X10426460Y-13479660D02*
X10466460Y-13519660D01*
X10466460Y-13479660D02*
X10426460Y-13519660D01*
X10436540Y-14728210D02*
X10476540Y-14768210D01*
X10476540Y-14728210D02*
X10436540Y-14768210D01*
X10459490Y-15567420D02*
X10499490Y-15607420D01*
X10499490Y-15567420D02*
X10459490Y-15607420D01*
X10488800Y-15736220D02*
X10528800Y-15776220D01*
X10528800Y-15736220D02*
X10488800Y-15776220D01*
X10516660Y-12078990D02*
X10556660Y-12118990D01*
X10556660Y-12078990D02*
X10516660Y-12118990D01*
X10589170Y-12190570D02*
X10629170Y-12230570D01*
X10629170Y-12190570D02*
X10589170Y-12230570D01*
X10618350Y-13552310D02*
X10658350Y-13592310D01*
X10658350Y-13552310D02*
X10618350Y-13592310D01*
X10691140Y-9890170D02*
X10731140Y-9930170D01*
X10731140Y-9890170D02*
X10691140Y-9930170D01*
X10714290Y-10275970D02*
X10754290Y-10315970D01*
X10754290Y-10275970D02*
X10714290Y-10315970D01*
X10733830Y-10997270D02*
X10773830Y-11037270D01*
X10773830Y-10997270D02*
X10733830Y-11037270D01*
X10733850Y-13542110D02*
X10773850Y-13582110D01*
X10773850Y-13542110D02*
X10733850Y-13582110D01*
X10757280Y-10080210D02*
X10797280Y-10120210D01*
X10797280Y-10080210D02*
X10757280Y-10120210D01*
X10760000Y-10180230D02*
X10800000Y-10220230D01*
X10800000Y-10180230D02*
X10760000Y-10220230D01*
X10805020Y-12699270D02*
X10845020Y-12739270D01*
X10845020Y-12699270D02*
X10805020Y-12739270D01*
X10812260Y-10556030D02*
X10852260Y-10596030D01*
X10852260Y-10556030D02*
X10812260Y-10596030D01*
X10904680Y-16442260D02*
X10944680Y-16482260D01*
X10944680Y-16442260D02*
X10904680Y-16482260D01*
X10909900Y-14235550D02*
X10949900Y-14275550D01*
X10949900Y-14235550D02*
X10909900Y-14275550D01*
X10915100Y-15620800D02*
X10955100Y-15660800D01*
X10955100Y-15620800D02*
X10915100Y-15660800D01*
X10929940Y-11689970D02*
X10969940Y-11729970D01*
X10969940Y-11689970D02*
X10929940Y-11729970D01*
X10941500Y-13540740D02*
X10981500Y-13580740D01*
X10981500Y-13540740D02*
X10941500Y-13580740D01*
X10966600Y-10606160D02*
X11006600Y-10646160D01*
X11006600Y-10606160D02*
X10966600Y-10646160D01*
X11070860Y-10565570D02*
X11110860Y-10605570D01*
X11110860Y-10565570D02*
X11070860Y-10605570D01*
X11071790Y-12339330D02*
X11111790Y-12379330D01*
X11111790Y-12339330D02*
X11071790Y-12379330D01*
X11086960Y-13398560D02*
X11126960Y-13438560D01*
X11126960Y-13398560D02*
X11086960Y-13438560D01*
X11132320Y-10901900D02*
X11172320Y-10941900D01*
X11172320Y-10901900D02*
X11132320Y-10941900D01*
X11175600Y-12701440D02*
X11215600Y-12741440D01*
X11215600Y-12701440D02*
X11175600Y-12741440D01*
X11199790Y-14916310D02*
X11239790Y-14956310D01*
X11239790Y-14916310D02*
X11199790Y-14956310D01*
X11215500Y-13538790D02*
X11255500Y-13578790D01*
X11255500Y-13538790D02*
X11215500Y-13578790D01*
X11260080Y-14998180D02*
X11300080Y-15038180D01*
X11300080Y-14998180D02*
X11260080Y-15038180D01*
X11264330Y-11974190D02*
X11304330Y-12014190D01*
X11304330Y-11974190D02*
X11264330Y-12014190D01*
X11298720Y-13684830D02*
X11338720Y-13724830D01*
X11338720Y-13684830D02*
X11298720Y-13724830D01*
X11384120Y-15324790D02*
X11424120Y-15364790D01*
X11424120Y-15324790D02*
X11384120Y-15364790D01*
X11449810Y-10351860D02*
X11489810Y-10391860D01*
X11489810Y-10351860D02*
X11449810Y-10391860D01*
X11478130Y-11759740D02*
X11518130Y-11799740D01*
X11518130Y-11759740D02*
X11478130Y-11799740D01*
X11516960Y-15001230D02*
X11556960Y-15041230D01*
X11556960Y-15001230D02*
X11516960Y-15041230D01*
X11517140Y-14627850D02*
X11557140Y-14667850D01*
X11557140Y-14627850D02*
X11517140Y-14667850D01*
X11536060Y-13838230D02*
X11576060Y-13878230D01*
X11576060Y-13838230D02*
X11536060Y-13878230D01*
X11546430Y-13725870D02*
X11586430Y-13765870D01*
X11586430Y-13725870D02*
X11546430Y-13765870D01*
X11555760Y-13580840D02*
X11595760Y-13620840D01*
X11595760Y-13580840D02*
X11555760Y-13620840D01*
X11564430Y-16057410D02*
X11604430Y-16097410D01*
X11604430Y-16057410D02*
X11564430Y-16097410D01*
X11571400Y-13334580D02*
X11611400Y-13374580D01*
X11611400Y-13334580D02*
X11571400Y-13374580D01*
X11593560Y-12446980D02*
X11633560Y-12486980D01*
X11633560Y-12446980D02*
X11593560Y-12486980D01*
X11605140Y-14744960D02*
X11645140Y-14784960D01*
X11645140Y-14744960D02*
X11605140Y-14784960D01*
X11653790Y-13955750D02*
X11693790Y-13995750D01*
X11693790Y-13955750D02*
X11653790Y-13995750D01*
X11699180Y-10392730D02*
X11739180Y-10432730D01*
X11739180Y-10392730D02*
X11699180Y-10432730D01*
X11722710Y-11030290D02*
X11762710Y-11070290D01*
X11762710Y-11030290D02*
X11722710Y-11070290D01*
X11728560Y-14607560D02*
X11768560Y-14647560D01*
X11768560Y-14607560D02*
X11728560Y-14647560D01*
X11764930Y-11951840D02*
X11804930Y-11991840D01*
X11804930Y-11951840D02*
X11764930Y-11991840D01*
X11777490Y-13869320D02*
X11817490Y-13909320D01*
X11817490Y-13869320D02*
X11777490Y-13909320D01*
X11807590Y-10792310D02*
X11847590Y-10832310D01*
X11847590Y-10792310D02*
X11807590Y-10832310D01*
X11876600Y-11315020D02*
X11916600Y-11355020D01*
X11916600Y-11315020D02*
X11876600Y-11355020D01*
X11887550Y-10528410D02*
X11927550Y-10568410D01*
X11927550Y-10528410D02*
X11887550Y-10568410D01*
X11897880Y-13465500D02*
X11937880Y-13505500D01*
X11937880Y-13465500D02*
X11897880Y-13505500D01*
X11970460Y-13251930D02*
X12010460Y-13291930D01*
X12010460Y-13251930D02*
X11970460Y-13291930D01*
X11987770Y-12070680D02*
X12027770Y-12110680D01*
X12027770Y-12070680D02*
X11987770Y-12110680D01*
X12038400Y-11912750D02*
X12078400Y-11952750D01*
X12078400Y-11912750D02*
X12038400Y-11952750D01*
X12064160Y-11201890D02*
X12104160Y-11241890D01*
X12104160Y-11201890D02*
X12064160Y-11241890D01*
X12068780Y-11634630D02*
X12108780Y-11674630D01*
X12108780Y-11634630D02*
X12068780Y-11674630D01*
X12114280Y-11493400D02*
X12154280Y-11533400D01*
X12154280Y-11493400D02*
X12114280Y-11533400D01*
X12182440Y-15665280D02*
X12222440Y-15705280D01*
X12222440Y-15665280D02*
X12182440Y-15705280D01*
X12213240Y-10124110D02*
X12253240Y-10164110D01*
X12253240Y-10124110D02*
X12213240Y-10164110D01*
X12223970Y-9776030D02*
X12263970Y-9816030D01*
X12263970Y-9776030D02*
X12223970Y-9816030D01*
X12330870Y-10656000D02*
X12370870Y-10696000D01*
X12370870Y-10656000D02*
X12330870Y-10696000D01*
X12366590Y-14258300D02*
X12406590Y-14298300D01*
X12406590Y-14258300D02*
X12366590Y-14298300D01*
X12369020Y-15093440D02*
X12409020Y-15133440D01*
X12409020Y-15093440D02*
X12369020Y-15133440D01*
X12374050Y-9959180D02*
X12414050Y-9999180D01*
X12414050Y-9959180D02*
X12374050Y-9999180D01*
X12566520Y-14241990D02*
X12606520Y-14281990D01*
X12606520Y-14241990D02*
X12566520Y-14281990D01*
X12624400Y-12241940D02*
X12664400Y-12281940D01*
X12664400Y-12241940D02*
X12624400Y-12281940D01*
X12699610Y-10652580D02*
X12739610Y-10692580D01*
X12739610Y-10652580D02*
X12699610Y-10692580D01*
X12758470Y-14577460D02*
X12798470Y-14617460D01*
X12798470Y-14577460D02*
X12758470Y-14617460D01*
X12803560Y-12265510D02*
X12843560Y-12305510D01*
X12843560Y-12265510D02*
X12803560Y-12305510D01*
X12818710Y-14262300D02*
X12858710Y-14302300D01*
X12858710Y-14262300D02*
X12818710Y-14302300D01*
X12860940Y-14570390D02*
X12900940Y-14610390D01*
X12900940Y-14570390D02*
X12860940Y-14610390D01*
X12925260Y-16827980D02*
X12965260Y-16867980D01*
X12965260Y-16827980D02*
X12925260Y-16867980D01*
X12926140Y-11823920D02*
X12966140Y-11863920D01*
X12966140Y-11823920D02*
X12926140Y-11863920D01*
X12927300Y-10381910D02*
X12967300Y-10421910D01*
X12967300Y-10381910D02*
X12927300Y-10421910D01*
X12940940Y-14187170D02*
X12980940Y-14227170D01*
X12980940Y-14187170D02*
X12940940Y-14227170D01*
X12950370Y-14514150D02*
X12990370Y-14554150D01*
X12990370Y-14514150D02*
X12950370Y-14554150D01*
X13027140Y-10705570D02*
X13067140Y-10745570D01*
X13067140Y-10705570D02*
X13027140Y-10745570D01*
X13061150Y-10555500D02*
X13101150Y-10595500D01*
X13101150Y-10555500D02*
X13061150Y-10595500D01*
X13067140Y-14460570D02*
X13107140Y-14500570D01*
X13107140Y-14460570D02*
X13067140Y-14500570D01*
X13283670Y-12528060D02*
X13323670Y-12568060D01*
X13323670Y-12528060D02*
X13283670Y-12568060D01*
X13430920Y-10704900D02*
X13470920Y-10744900D01*
X13470920Y-10704900D02*
X13430920Y-10744900D01*
X13433130Y-12380920D02*
X13473130Y-12420920D01*
X13473130Y-12380920D02*
X13433130Y-12420920D01*
X13434000Y-14584600D02*
X13474000Y-14624600D01*
X13474000Y-14584600D02*
X13434000Y-14624600D01*
X13449140Y-12525950D02*
X13489140Y-12565950D01*
X13489140Y-12525950D02*
X13449140Y-12565950D01*
X13527080Y-12268250D02*
X13567080Y-12308250D01*
X13567080Y-12268250D02*
X13527080Y-12308250D01*
X13546280Y-10704920D02*
X13586280Y-10744920D01*
X13586280Y-10704920D02*
X13546280Y-10744920D01*
X13552330Y-12422770D02*
X13592330Y-12462770D01*
X13592330Y-12422770D02*
X13552330Y-12462770D01*
X13613670Y-11821680D02*
X13653670Y-11861680D01*
X13653670Y-11821680D02*
X13613670Y-11861680D01*
X13644560Y-12350260D02*
X13684560Y-12390260D01*
X13684560Y-12350260D02*
X13644560Y-12390260D01*
X13802500Y-14186340D02*
X13842500Y-14226340D01*
X13842500Y-14186340D02*
X13802500Y-14226340D01*
X13821900Y-12814020D02*
X13861900Y-12854020D01*
X13861900Y-12814020D02*
X13821900Y-12854020D01*
X13833790Y-12619060D02*
X13873790Y-12659060D01*
X13873790Y-12619060D02*
X13833790Y-12659060D01*
X13836390Y-12967020D02*
X13876390Y-13007020D01*
X13876390Y-12967020D02*
X13836390Y-13007020D01*
X13886560Y-14601510D02*
X13926560Y-14641510D01*
X13926560Y-14601510D02*
X13886560Y-14641510D01*
X13954010Y-12601890D02*
X13994010Y-12641890D01*
X13994010Y-12601890D02*
X13954010Y-12641890D01*
X14021420Y-12867130D02*
X14061420Y-12907130D01*
X14061420Y-12867130D02*
X14021420Y-12907130D01*
X14049390Y-12650620D02*
X14089390Y-12690620D01*
X14089390Y-12650620D02*
X14049390Y-12690620D01*
X14055450Y-14586150D02*
X14095450Y-14626150D01*
X14095450Y-14586150D02*
X14055450Y-14626150D01*
X14058470Y-12269220D02*
X14098470Y-12309220D01*
X14098470Y-12269220D02*
X14058470Y-12309220D01*
X14105550Y-12379650D02*
X14145550Y-12419650D01*
X14145550Y-12379650D02*
X14105550Y-12419650D01*
X14121960Y-13053180D02*
X14161960Y-13093180D01*
X14161960Y-13053180D02*
X14121960Y-13093180D01*
X14130590Y-14676490D02*
X14170590Y-14716490D01*
X14170590Y-14676490D02*
X14130590Y-14716490D01*
X14193710Y-16512860D02*
X14233710Y-16552860D01*
X14233710Y-16512860D02*
X14193710Y-16552860D01*
X14280880Y-13054800D02*
X14320880Y-13094800D01*
X14320880Y-13054800D02*
X14280880Y-13094800D01*
X14316740Y-12630900D02*
X14356740Y-12670900D01*
X14356740Y-12630900D02*
X14316740Y-12670900D01*
X14378630Y-13512060D02*
X14418630Y-13552060D01*
X14418630Y-13512060D02*
X14378630Y-13552060D01*
X14422320Y-16546860D02*
X14462320Y-16586860D01*
X14462320Y-16546860D02*
X14422320Y-16586860D01*
X14438560Y-14585280D02*
X14478560Y-14625280D01*
X14478560Y-14585280D02*
X14438560Y-14625280D01*
X14651540Y-12774740D02*
X14691540Y-12814740D01*
X14691540Y-12774740D02*
X14651540Y-12814740D01*
X14690860Y-13004020D02*
X14730860Y-13044020D01*
X14730860Y-13004020D02*
X14690860Y-13044020D01*
X15044870Y-14012710D02*
X15084870Y-14052710D01*
X15084870Y-14012710D02*
X15044870Y-14052710D01*
X15066930Y-13642630D02*
X15106930Y-13682630D01*
X15106930Y-13642630D02*
X15066930Y-13682630D01*
X15210710Y-13718800D02*
X15250710Y-13758800D01*
X15250710Y-13718800D02*
X15210710Y-13758800D01*
X15350860Y-14818590D02*
X15390860Y-14858590D01*
X15390860Y-14818590D02*
X15350860Y-14858590D01*
X15407020Y-14673560D02*
X15447020Y-14713560D01*
X15447020Y-14673560D02*
X15407020Y-14713560D01*
X16049000Y-15350750D02*
X16089000Y-15390750D01*
X16089000Y-15350750D02*
X16049000Y-15390750D01*
D14*
X8527500Y-9275000D02*
G75*
G03*
X8527500Y-9275000I-37500J0D01*
G01*
X8527500Y-9675000D02*
G75*
G03*
X8527500Y-9675000I-37500J0D01*
G01*
X8627500Y-9075000D02*
G75*
G03*
X8627500Y-9075000I-37500J0D01*
G01*
X8627500Y-9475000D02*
G75*
G03*
X8627500Y-9475000I-37500J0D01*
G01*
X8727500Y-9275000D02*
G75*
G03*
X8727500Y-9275000I-37500J0D01*
G01*
X8727500Y-9675000D02*
G75*
G03*
X8727500Y-9675000I-37500J0D01*
G01*
X8827500Y-9075000D02*
G75*
G03*
X8827500Y-9075000I-37500J0D01*
G01*
X8827500Y-9475000D02*
G75*
G03*
X8827500Y-9475000I-37500J0D01*
G01*
X8927500Y-9275000D02*
G75*
G03*
X8927500Y-9275000I-37500J0D01*
G01*
X8927500Y-9675000D02*
G75*
G03*
X8927500Y-9675000I-37500J0D01*
G01*
X9027500Y-9075000D02*
G75*
G03*
X9027500Y-9075000I-37500J0D01*
G01*
X9027500Y-9475000D02*
G75*
G03*
X9027500Y-9475000I-37500J0D01*
G01*
X9127500Y-9275000D02*
G75*
G03*
X9127500Y-9275000I-37500J0D01*
G01*
X9127500Y-9675000D02*
G75*
G03*
X9127500Y-9675000I-37500J0D01*
G01*
X9227500Y-9075000D02*
G75*
G03*
X9227500Y-9075000I-37500J0D01*
G01*
X9227500Y-9475000D02*
G75*
G03*
X9227500Y-9475000I-37500J0D01*
G01*
X9327500Y-9275000D02*
G75*
G03*
X9327500Y-9275000I-37500J0D01*
G01*
X9327500Y-9675000D02*
G75*
G03*
X9327500Y-9675000I-37500J0D01*
G01*
X9427500Y-9075000D02*
G75*
G03*
X9427500Y-9075000I-37500J0D01*
G01*
X9427500Y-9475000D02*
G75*
G03*
X9427500Y-9475000I-37500J0D01*
G01*
X9527500Y-9275000D02*
G75*
G03*
X9527500Y-9275000I-37500J0D01*
G01*
X9527500Y-9675000D02*
G75*
G03*
X9527500Y-9675000I-37500J0D01*
G01*
X9627500Y-9075000D02*
G75*
G03*
X9627500Y-9075000I-37500J0D01*
G01*
X9627500Y-9475000D02*
G75*
G03*
X9627500Y-9475000I-37500J0D01*
G01*
X9727500Y-9275000D02*
G75*
G03*
X9727500Y-9275000I-37500J0D01*
G01*
X9727500Y-9675000D02*
G75*
G03*
X9727500Y-9675000I-37500J0D01*
G01*
X9827500Y-9075000D02*
G75*
G03*
X9827500Y-9075000I-37500J0D01*
G01*
X9827500Y-9475000D02*
G75*
G03*
X9827500Y-9475000I-37500J0D01*
G01*
X9927500Y-9275000D02*
G75*
G03*
X9927500Y-9275000I-37500J0D01*
G01*
X9927500Y-9675000D02*
G75*
G03*
X9927500Y-9675000I-37500J0D01*
G01*
X10027500Y-9075000D02*
G75*
G03*
X10027500Y-9075000I-37500J0D01*
G01*
X10027500Y-9475000D02*
G75*
G03*
X10027500Y-9475000I-37500J0D01*
G01*
X10127500Y-9275000D02*
G75*
G03*
X10127500Y-9275000I-37500J0D01*
G01*
X10127500Y-9675000D02*
G75*
G03*
X10127500Y-9675000I-37500J0D01*
G01*
X10227500Y-9075000D02*
G75*
G03*
X10227500Y-9075000I-37500J0D01*
G01*
X10227500Y-9475000D02*
G75*
G03*
X10227500Y-9475000I-37500J0D01*
G01*
X10327500Y-9275000D02*
G75*
G03*
X10327500Y-9275000I-37500J0D01*
G01*
X10327500Y-9675000D02*
G75*
G03*
X10327500Y-9675000I-37500J0D01*
G01*
X10427500Y-9075000D02*
G75*
G03*
X10427500Y-9075000I-37500J0D01*
G01*
X10427500Y-9475000D02*
G75*
G03*
X10427500Y-9475000I-37500J0D01*
G01*
X10527500Y-9275000D02*
G75*
G03*
X10527500Y-9275000I-37500J0D01*
G01*
X10527500Y-9675000D02*
G75*
G03*
X10527500Y-9675000I-37500J0D01*
G01*
X10627500Y-9075000D02*
G75*
G03*
X10627500Y-9075000I-37500J0D01*
G01*
X10627500Y-9475000D02*
G75*
G03*
X10627500Y-9475000I-37500J0D01*
G01*
X10727500Y-9275000D02*
G75*
G03*
X10727500Y-9275000I-37500J0D01*
G01*
X10727500Y-9675000D02*
G75*
G03*
X10727500Y-9675000I-37500J0D01*
G01*
X10827500Y-9075000D02*
G75*
G03*
X10827500Y-9075000I-37500J0D01*
G01*
X10827500Y-9475000D02*
G75*
G03*
X10827500Y-9475000I-37500J0D01*
G01*
X10927500Y-9275000D02*
G75*
G03*
X10927500Y-9275000I-37500J0D01*
G01*
X10927500Y-9675000D02*
G75*
G03*
X10927500Y-9675000I-37500J0D01*
G01*
X11027500Y-9075000D02*
G75*
G03*
X11027500Y-9075000I-37500J0D01*
G01*
X11027500Y-9475000D02*
G75*
G03*
X11027500Y-9475000I-37500J0D01*
G01*
X11127500Y-9275000D02*
G75*
G03*
X11127500Y-9275000I-37500J0D01*
G01*
X11127500Y-9675000D02*
G75*
G03*
X11127500Y-9675000I-37500J0D01*
G01*
X11227500Y-9075000D02*
G75*
G03*
X11227500Y-9075000I-37500J0D01*
G01*
X11227500Y-9475000D02*
G75*
G03*
X11227500Y-9475000I-37500J0D01*
G01*
X11327500Y-9275000D02*
G75*
G03*
X11327500Y-9275000I-37500J0D01*
G01*
X11327500Y-9675000D02*
G75*
G03*
X11327500Y-9675000I-37500J0D01*
G01*
X11427500Y-9075000D02*
G75*
G03*
X11427500Y-9075000I-37500J0D01*
G01*
X11427500Y-9475000D02*
G75*
G03*
X11427500Y-9475000I-37500J0D01*
G01*
X11527500Y-9275000D02*
G75*
G03*
X11527500Y-9275000I-37500J0D01*
G01*
X11527500Y-9675000D02*
G75*
G03*
X11527500Y-9675000I-37500J0D01*
G01*
X12302500Y-9075000D02*
G75*
G03*
X12302500Y-9075000I-37500J0D01*
G01*
X12302500Y-9475000D02*
G75*
G03*
X12302500Y-9475000I-37500J0D01*
G01*
X12402500Y-9275000D02*
G75*
G03*
X12402500Y-9275000I-37500J0D01*
G01*
X12402500Y-9675000D02*
G75*
G03*
X12402500Y-9675000I-37500J0D01*
G01*
X12502500Y-9075000D02*
G75*
G03*
X12502500Y-9075000I-37500J0D01*
G01*
X12502500Y-9475000D02*
G75*
G03*
X12502500Y-9475000I-37500J0D01*
G01*
X12602500Y-9275000D02*
G75*
G03*
X12602500Y-9275000I-37500J0D01*
G01*
X12602500Y-9675000D02*
G75*
G03*
X12602500Y-9675000I-37500J0D01*
G01*
X12702500Y-9075000D02*
G75*
G03*
X12702500Y-9075000I-37500J0D01*
G01*
X12702500Y-9475000D02*
G75*
G03*
X12702500Y-9475000I-37500J0D01*
G01*
X12802500Y-9275000D02*
G75*
G03*
X12802500Y-9275000I-37500J0D01*
G01*
X12802500Y-9675000D02*
G75*
G03*
X12802500Y-9675000I-37500J0D01*
G01*
X12904500Y-9075000D02*
G75*
G03*
X12904500Y-9075000I-37500J0D01*
G01*
X12904500Y-9475000D02*
G75*
G03*
X12904500Y-9475000I-37500J0D01*
G01*
X13004500Y-9275000D02*
G75*
G03*
X13004500Y-9275000I-37500J0D01*
G01*
X13004500Y-9675000D02*
G75*
G03*
X13004500Y-9675000I-37500J0D01*
G01*
X13104500Y-9075000D02*
G75*
G03*
X13104500Y-9075000I-37500J0D01*
G01*
X13104500Y-9475000D02*
G75*
G03*
X13104500Y-9475000I-37500J0D01*
G01*
X13204500Y-9275000D02*
G75*
G03*
X13204500Y-9275000I-37500J0D01*
G01*
X13204500Y-9675000D02*
G75*
G03*
X13204500Y-9675000I-37500J0D01*
G01*
X13304500Y-9075000D02*
G75*
G03*
X13304500Y-9075000I-37500J0D01*
G01*
X13304500Y-9475000D02*
G75*
G03*
X13304500Y-9475000I-37500J0D01*
G01*
X13404500Y-9275000D02*
G75*
G03*
X13404500Y-9275000I-37500J0D01*
G01*
X13404500Y-9675000D02*
G75*
G03*
X13404500Y-9675000I-37500J0D01*
G01*
X13504500Y-9075000D02*
G75*
G03*
X13504500Y-9075000I-37500J0D01*
G01*
X13504500Y-9475000D02*
G75*
G03*
X13504500Y-9475000I-37500J0D01*
G01*
X13604500Y-9275000D02*
G75*
G03*
X13604500Y-9275000I-37500J0D01*
G01*
X13604500Y-9675000D02*
G75*
G03*
X13604500Y-9675000I-37500J0D01*
G01*
X13704500Y-9075000D02*
G75*
G03*
X13704500Y-9075000I-37500J0D01*
G01*
X13704500Y-9475000D02*
G75*
G03*
X13704500Y-9475000I-37500J0D01*
G01*
X13804500Y-9275000D02*
G75*
G03*
X13804500Y-9275000I-37500J0D01*
G01*
X13804500Y-9675000D02*
G75*
G03*
X13804500Y-9675000I-37500J0D01*
G01*
X13904500Y-9075000D02*
G75*
G03*
X13904500Y-9075000I-37500J0D01*
G01*
X13904500Y-9475000D02*
G75*
G03*
X13904500Y-9475000I-37500J0D01*
G01*
X14004500Y-9275000D02*
G75*
G03*
X14004500Y-9275000I-37500J0D01*
G01*
X14004500Y-9675000D02*
G75*
G03*
X14004500Y-9675000I-37500J0D01*
G01*
X14106500Y-9075000D02*
G75*
G03*
X14106500Y-9075000I-37500J0D01*
G01*
X14106500Y-9475000D02*
G75*
G03*
X14106500Y-9475000I-37500J0D01*
G01*
X14206500Y-9275000D02*
G75*
G03*
X14206500Y-9275000I-37500J0D01*
G01*
X14206500Y-9675000D02*
G75*
G03*
X14206500Y-9675000I-37500J0D01*
G01*
X14306500Y-9075000D02*
G75*
G03*
X14306500Y-9075000I-37500J0D01*
G01*
X14306500Y-9475000D02*
G75*
G03*
X14306500Y-9475000I-37500J0D01*
G01*
X14406500Y-9275000D02*
G75*
G03*
X14406500Y-9275000I-37500J0D01*
G01*
X14406500Y-9675000D02*
G75*
G03*
X14406500Y-9675000I-37500J0D01*
G01*
X14506500Y-9075000D02*
G75*
G03*
X14506500Y-9075000I-37500J0D01*
G01*
X14506500Y-9475000D02*
G75*
G03*
X14506500Y-9475000I-37500J0D01*
G01*
X14606500Y-9275000D02*
G75*
G03*
X14606500Y-9275000I-37500J0D01*
G01*
X14606500Y-9675000D02*
G75*
G03*
X14606500Y-9675000I-37500J0D01*
G01*
X14706500Y-9075000D02*
G75*
G03*
X14706500Y-9075000I-37500J0D01*
G01*
X14706500Y-9475000D02*
G75*
G03*
X14706500Y-9475000I-37500J0D01*
G01*
X14806500Y-9275000D02*
G75*
G03*
X14806500Y-9275000I-37500J0D01*
G01*
X14806500Y-9675000D02*
G75*
G03*
X14806500Y-9675000I-37500J0D01*
G01*
X14906500Y-9075000D02*
G75*
G03*
X14906500Y-9075000I-37500J0D01*
G01*
X14906500Y-9475000D02*
G75*
G03*
X14906500Y-9475000I-37500J0D01*
G01*
X15006500Y-9275000D02*
G75*
G03*
X15006500Y-9275000I-37500J0D01*
G01*
X15006500Y-9675000D02*
G75*
G03*
X15006500Y-9675000I-37500J0D01*
G01*
X15106500Y-9075000D02*
G75*
G03*
X15106500Y-9075000I-37500J0D01*
G01*
X15106500Y-9475000D02*
G75*
G03*
X15106500Y-9475000I-37500J0D01*
G01*
X15206500Y-9275000D02*
G75*
G03*
X15206500Y-9275000I-37500J0D01*
G01*
X15206500Y-9675000D02*
G75*
G03*
X15206500Y-9675000I-37500J0D01*
G01*
X15308500Y-9075000D02*
G75*
G03*
X15308500Y-9075000I-37500J0D01*
G01*
X15308500Y-9475000D02*
G75*
G03*
X15308500Y-9475000I-37500J0D01*
G01*
X15408500Y-9275000D02*
G75*
G03*
X15408500Y-9275000I-37500J0D01*
G01*
X15408500Y-9675000D02*
G75*
G03*
X15408500Y-9675000I-37500J0D01*
G01*
X15508500Y-9075000D02*
G75*
G03*
X15508500Y-9075000I-37500J0D01*
G01*
X15508500Y-9475000D02*
G75*
G03*
X15508500Y-9475000I-37500J0D01*
G01*
X15608500Y-9275000D02*
G75*
G03*
X15608500Y-9275000I-37500J0D01*
G01*
X15608500Y-9675000D02*
G75*
G03*
X15608500Y-9675000I-37500J0D01*
G01*
X15708500Y-9075000D02*
G75*
G03*
X15708500Y-9075000I-37500J0D01*
G01*
X15708500Y-9475000D02*
G75*
G03*
X15708500Y-9475000I-37500J0D01*
G01*
X15808500Y-9275000D02*
G75*
G03*
X15808500Y-9275000I-37500J0D01*
G01*
X15808500Y-9675000D02*
G75*
G03*
X15808500Y-9675000I-37500J0D01*
G01*
D15*
X10546000Y-16565000D02*
X10546000Y-16645000D01*
X10506000Y-16605000D02*
X10586000Y-16605000D01*
X10546000Y-17327000D02*
X10546000Y-17407000D01*
X10506000Y-17367000D02*
X10586000Y-17367000D01*
X10556500Y-15417500D02*
X10556500Y-15497500D01*
X10516500Y-15457500D02*
X10596500Y-15457500D01*
X10556500Y-16179500D02*
X10556500Y-16259500D01*
X10516500Y-16219500D02*
X10596500Y-16219500D01*
X10800000Y-16565000D02*
X10800000Y-16645000D01*
X10760000Y-16605000D02*
X10840000Y-16605000D01*
X10800000Y-17327000D02*
X10800000Y-17407000D01*
X10760000Y-17367000D02*
X10840000Y-17367000D01*
X10810500Y-15417500D02*
X10810500Y-15497500D01*
X10770500Y-15457500D02*
X10850500Y-15457500D01*
X10810500Y-16179500D02*
X10810500Y-16259500D01*
X10770500Y-16219500D02*
X10850500Y-16219500D01*
X11054000Y-16565000D02*
X11054000Y-16645000D01*
X11014000Y-16605000D02*
X11094000Y-16605000D01*
X11054000Y-17327000D02*
X11054000Y-17407000D01*
X11014000Y-17367000D02*
X11094000Y-17367000D01*
X11064500Y-15417500D02*
X11064500Y-15497500D01*
X11024500Y-15457500D02*
X11104500Y-15457500D01*
X11064500Y-16179500D02*
X11064500Y-16259500D01*
X11024500Y-16219500D02*
X11104500Y-16219500D01*
X11308000Y-16565000D02*
X11308000Y-16645000D01*
X11268000Y-16605000D02*
X11348000Y-16605000D01*
X11308000Y-17327000D02*
X11308000Y-17407000D01*
X11268000Y-17367000D02*
X11348000Y-17367000D01*
X11318500Y-15417500D02*
X11318500Y-15497500D01*
X11278500Y-15457500D02*
X11358500Y-15457500D01*
X11318500Y-16179500D02*
X11318500Y-16259500D01*
X11278500Y-16219500D02*
X11358500Y-16219500D01*
X11562000Y-16565000D02*
X11562000Y-16645000D01*
X11522000Y-16605000D02*
X11602000Y-16605000D01*
X11562000Y-17327000D02*
X11562000Y-17407000D01*
X11522000Y-17367000D02*
X11602000Y-17367000D01*
X11572500Y-15417500D02*
X11572500Y-15497500D01*
X11532500Y-15457500D02*
X11612500Y-15457500D01*
X11572500Y-16179500D02*
X11572500Y-16259500D01*
X11532500Y-16219500D02*
X11612500Y-16219500D01*
X11816000Y-16565000D02*
X11816000Y-16645000D01*
X11776000Y-16605000D02*
X11856000Y-16605000D01*
X11816000Y-17327000D02*
X11816000Y-17407000D01*
X11776000Y-17367000D02*
X11856000Y-17367000D01*
X11826500Y-15417500D02*
X11826500Y-15497500D01*
X11786500Y-15457500D02*
X11866500Y-15457500D01*
X11826500Y-16179500D02*
X11826500Y-16259500D01*
X11786500Y-16219500D02*
X11866500Y-16219500D01*
X12070000Y-16565000D02*
X12070000Y-16645000D01*
X12030000Y-16605000D02*
X12110000Y-16605000D01*
X12070000Y-17327000D02*
X12070000Y-17407000D01*
X12030000Y-17367000D02*
X12110000Y-17367000D01*
X12080500Y-15417500D02*
X12080500Y-15497500D01*
X12040500Y-15457500D02*
X12120500Y-15457500D01*
X12080500Y-16179500D02*
X12080500Y-16259500D01*
X12040500Y-16219500D02*
X12120500Y-16219500D01*
X12324000Y-16565000D02*
X12324000Y-16645000D01*
X12284000Y-16605000D02*
X12364000Y-16605000D01*
X12324000Y-17327000D02*
X12324000Y-17407000D01*
X12284000Y-17367000D02*
X12364000Y-17367000D01*
X12334500Y-15417500D02*
X12334500Y-15497500D01*
X12294500Y-15457500D02*
X12374500Y-15457500D01*
X12334500Y-16179500D02*
X12334500Y-16259500D01*
X12294500Y-16219500D02*
X12374500Y-16219500D01*
X12578000Y-16565000D02*
X12578000Y-16645000D01*
X12538000Y-16605000D02*
X12618000Y-16605000D01*
X12578000Y-17327000D02*
X12578000Y-17407000D01*
X12538000Y-17367000D02*
X12618000Y-17367000D01*
X12588500Y-15417500D02*
X12588500Y-15497500D01*
X12548500Y-15457500D02*
X12628500Y-15457500D01*
X12588500Y-16179500D02*
X12588500Y-16259500D01*
X12548500Y-16219500D02*
X12628500Y-16219500D01*
X12832000Y-16565000D02*
X12832000Y-16645000D01*
X12792000Y-16605000D02*
X12872000Y-16605000D01*
X12832000Y-17327000D02*
X12832000Y-17407000D01*
X12792000Y-17367000D02*
X12872000Y-17367000D01*
X12842500Y-15417500D02*
X12842500Y-15497500D01*
X12802500Y-15457500D02*
X12882500Y-15457500D01*
X12842500Y-16179500D02*
X12842500Y-16259500D01*
X12802500Y-16219500D02*
X12882500Y-16219500D01*
X13086000Y-16565000D02*
X13086000Y-16645000D01*
X13046000Y-16605000D02*
X13126000Y-16605000D01*
X13086000Y-17327000D02*
X13086000Y-17407000D01*
X13046000Y-17367000D02*
X13126000Y-17367000D01*
X13340000Y-16565000D02*
X13340000Y-16645000D01*
X13300000Y-16605000D02*
X13380000Y-16605000D01*
X13340000Y-17327000D02*
X13340000Y-17407000D01*
X13300000Y-17367000D02*
X13380000Y-17367000D01*
X14783000Y-16507000D02*
X14783000Y-16587000D01*
X14743000Y-16547000D02*
X14823000Y-16547000D01*
X14783000Y-17269000D02*
X14783000Y-17349000D01*
X14743000Y-17309000D02*
X14823000Y-17309000D01*
X15037000Y-16507000D02*
X15037000Y-16587000D01*
X14997000Y-16547000D02*
X15077000Y-16547000D01*
X15037000Y-17269000D02*
X15037000Y-17349000D01*
X14997000Y-17309000D02*
X15077000Y-17309000D01*
X15291000Y-16507000D02*
X15291000Y-16587000D01*
X15251000Y-16547000D02*
X15331000Y-16547000D01*
X15291000Y-17269000D02*
X15291000Y-17349000D01*
X15251000Y-17309000D02*
X15331000Y-17309000D01*
X15545000Y-16507000D02*
X15545000Y-16587000D01*
X15505000Y-16547000D02*
X15585000Y-16547000D01*
X15545000Y-17269000D02*
X15545000Y-17349000D01*
X15505000Y-17309000D02*
X15585000Y-17309000D01*
X15799000Y-16507000D02*
X15799000Y-16587000D01*
X15759000Y-16547000D02*
X15839000Y-16547000D01*
X15799000Y-17269000D02*
X15799000Y-17349000D01*
X15759000Y-17309000D02*
X15839000Y-17309000D01*
X15815000Y-14379000D02*
X15815000Y-14459000D01*
X15775000Y-14419000D02*
X15855000Y-14419000D01*
X15815000Y-15141000D02*
X15815000Y-15221000D01*
X15775000Y-15181000D02*
X15855000Y-15181000D01*
X16053000Y-16507000D02*
X16053000Y-16587000D01*
X16013000Y-16547000D02*
X16093000Y-16547000D01*
X16053000Y-17269000D02*
X16053000Y-17349000D01*
X16013000Y-17309000D02*
X16093000Y-17309000D01*
X16069000Y-14379000D02*
X16069000Y-14459000D01*
X16029000Y-14419000D02*
X16109000Y-14419000D01*
X16069000Y-15141000D02*
X16069000Y-15221000D01*
X16029000Y-15181000D02*
X16109000Y-15181000D01*
X16307000Y-16507000D02*
X16307000Y-16587000D01*
X16267000Y-16547000D02*
X16347000Y-16547000D01*
X16307000Y-17269000D02*
X16307000Y-17349000D01*
X16267000Y-17309000D02*
X16347000Y-17309000D01*
X16323000Y-14379000D02*
X16323000Y-14459000D01*
X16283000Y-14419000D02*
X16363000Y-14419000D01*
X16323000Y-15141000D02*
X16323000Y-15221000D01*
X16283000Y-15181000D02*
X16363000Y-15181000D01*
X16561000Y-16507000D02*
X16561000Y-16587000D01*
X16521000Y-16547000D02*
X16601000Y-16547000D01*
X16561000Y-17269000D02*
X16561000Y-17349000D01*
X16521000Y-17309000D02*
X16601000Y-17309000D01*
X16577000Y-14379000D02*
X16577000Y-14459000D01*
X16537000Y-14419000D02*
X16617000Y-14419000D01*
X16577000Y-15141000D02*
X16577000Y-15221000D01*
X16537000Y-15181000D02*
X16617000Y-15181000D01*
X16831000Y-14379000D02*
X16831000Y-14459000D01*
X16791000Y-14419000D02*
X16871000Y-14419000D01*
X16831000Y-15141000D02*
X16831000Y-15221000D01*
X16791000Y-15181000D02*
X16871000Y-15181000D01*
X17085000Y-14379000D02*
X17085000Y-14459000D01*
X17045000Y-14419000D02*
X17125000Y-14419000D01*
X17085000Y-15141000D02*
X17085000Y-15221000D01*
X17045000Y-15181000D02*
X17125000Y-15181000D01*
X17339000Y-14379000D02*
X17339000Y-14459000D01*
X17299000Y-14419000D02*
X17379000Y-14419000D01*
X17339000Y-15141000D02*
X17339000Y-15221000D01*
X17299000Y-15181000D02*
X17379000Y-15181000D01*
X17593000Y-14379000D02*
X17593000Y-14459000D01*
X17553000Y-14419000D02*
X17633000Y-14419000D01*
X17593000Y-15141000D02*
X17593000Y-15221000D01*
X17553000Y-15181000D02*
X17633000Y-15181000D01*
D16*
X9813588Y-15091088D02*
X9813588Y-15023912D01*
X9746412Y-15023912D01*
X9746412Y-15091088D01*
X9813588Y-15091088D01*
X9813588Y-15341088D02*
X9813588Y-15273912D01*
X9746412Y-15273912D01*
X9746412Y-15341088D01*
X9813588Y-15341088D01*
X9813588Y-15591088D02*
X9813588Y-15523912D01*
X9746412Y-15523912D01*
X9746412Y-15591088D01*
X9813588Y-15591088D01*
D10*
X8942500Y-10252500D02*
X8992500Y-10202500D01*
X8942500Y-10152500D01*
X8892500Y-10202500D01*
X8942500Y-10252500D01*
X8942500Y-10502500D02*
X8992500Y-10452500D01*
X8942500Y-10402500D01*
X8892500Y-10452500D01*
X8942500Y-10502500D01*
D12*
X8426619Y-18200476D02*
X8426619Y-18000476D01*
X8426619Y-18000476D02*
X8474238Y-18000476D01*
X8474238Y-18000476D02*
X8502810Y-18010000D01*
X8502810Y-18010000D02*
X8521857Y-18029048D01*
X8521857Y-18029048D02*
X8531381Y-18048095D01*
X8531381Y-18048095D02*
X8540905Y-18086190D01*
X8540905Y-18086190D02*
X8540905Y-18114762D01*
X8540905Y-18114762D02*
X8531381Y-18152857D01*
X8531381Y-18152857D02*
X8521857Y-18171905D01*
X8521857Y-18171905D02*
X8502810Y-18190952D01*
X8502810Y-18190952D02*
X8474238Y-18200476D01*
X8474238Y-18200476D02*
X8426619Y-18200476D01*
X8626619Y-18200476D02*
X8626619Y-18067143D01*
X8626619Y-18105238D02*
X8636143Y-18086190D01*
X8636143Y-18086190D02*
X8645667Y-18076667D01*
X8645667Y-18076667D02*
X8664714Y-18067143D01*
X8664714Y-18067143D02*
X8683762Y-18067143D01*
X8750429Y-18200476D02*
X8750429Y-18067143D01*
X8750429Y-18000476D02*
X8740905Y-18010000D01*
X8740905Y-18010000D02*
X8750429Y-18019524D01*
X8750429Y-18019524D02*
X8759952Y-18010000D01*
X8759952Y-18010000D02*
X8750429Y-18000476D01*
X8750429Y-18000476D02*
X8750429Y-18019524D01*
X8874238Y-18200476D02*
X8855190Y-18190952D01*
X8855190Y-18190952D02*
X8845667Y-18171905D01*
X8845667Y-18171905D02*
X8845667Y-18000476D01*
X8979000Y-18200476D02*
X8959952Y-18190952D01*
X8959952Y-18190952D02*
X8950429Y-18171905D01*
X8950429Y-18171905D02*
X8950429Y-18000476D01*
X9175190Y-18200476D02*
X9175190Y-18000476D01*
X9175190Y-18000476D02*
X9241857Y-18143333D01*
X9241857Y-18143333D02*
X9308524Y-18000476D01*
X9308524Y-18000476D02*
X9308524Y-18200476D01*
X9489476Y-18200476D02*
X9489476Y-18095714D01*
X9489476Y-18095714D02*
X9479952Y-18076667D01*
X9479952Y-18076667D02*
X9460905Y-18067143D01*
X9460905Y-18067143D02*
X9422809Y-18067143D01*
X9422809Y-18067143D02*
X9403762Y-18076667D01*
X9489476Y-18190952D02*
X9470429Y-18200476D01*
X9470429Y-18200476D02*
X9422809Y-18200476D01*
X9422809Y-18200476D02*
X9403762Y-18190952D01*
X9403762Y-18190952D02*
X9394238Y-18171905D01*
X9394238Y-18171905D02*
X9394238Y-18152857D01*
X9394238Y-18152857D02*
X9403762Y-18133810D01*
X9403762Y-18133810D02*
X9422809Y-18124286D01*
X9422809Y-18124286D02*
X9470429Y-18124286D01*
X9470429Y-18124286D02*
X9489476Y-18114762D01*
X9584714Y-18067143D02*
X9584714Y-18267143D01*
X9584714Y-18076667D02*
X9603762Y-18067143D01*
X9603762Y-18067143D02*
X9641857Y-18067143D01*
X9641857Y-18067143D02*
X9660905Y-18076667D01*
X9660905Y-18076667D02*
X9670429Y-18086190D01*
X9670429Y-18086190D02*
X9679952Y-18105238D01*
X9679952Y-18105238D02*
X9679952Y-18162381D01*
X9679952Y-18162381D02*
X9670429Y-18181429D01*
X9670429Y-18181429D02*
X9660905Y-18190952D01*
X9660905Y-18190952D02*
X9641857Y-18200476D01*
X9641857Y-18200476D02*
X9603762Y-18200476D01*
X9603762Y-18200476D02*
X9584714Y-18190952D01*
X9765667Y-18181429D02*
X9775190Y-18190952D01*
X9775190Y-18190952D02*
X9765667Y-18200476D01*
X9765667Y-18200476D02*
X9756143Y-18190952D01*
X9756143Y-18190952D02*
X9765667Y-18181429D01*
X9765667Y-18181429D02*
X9765667Y-18200476D01*
X9765667Y-18076667D02*
X9775190Y-18086190D01*
X9775190Y-18086190D02*
X9765667Y-18095714D01*
X9765667Y-18095714D02*
X9756143Y-18086190D01*
X9756143Y-18086190D02*
X9765667Y-18076667D01*
X9765667Y-18076667D02*
X9765667Y-18095714D01*
D13*
X8139000Y-18527000D02*
X8179000Y-18567000D01*
X8179000Y-18527000D02*
X8139000Y-18567000D01*
D12*
X8464714Y-18420476D02*
X8483762Y-18420476D01*
X8483762Y-18420476D02*
X8502810Y-18430000D01*
X8502810Y-18430000D02*
X8512333Y-18439524D01*
X8512333Y-18439524D02*
X8521857Y-18458571D01*
X8521857Y-18458571D02*
X8531381Y-18496667D01*
X8531381Y-18496667D02*
X8531381Y-18544286D01*
X8531381Y-18544286D02*
X8521857Y-18582381D01*
X8521857Y-18582381D02*
X8512333Y-18601429D01*
X8512333Y-18601429D02*
X8502810Y-18610952D01*
X8502810Y-18610952D02*
X8483762Y-18620476D01*
X8483762Y-18620476D02*
X8464714Y-18620476D01*
X8464714Y-18620476D02*
X8445667Y-18610952D01*
X8445667Y-18610952D02*
X8436143Y-18601429D01*
X8436143Y-18601429D02*
X8426619Y-18582381D01*
X8426619Y-18582381D02*
X8417095Y-18544286D01*
X8417095Y-18544286D02*
X8417095Y-18496667D01*
X8417095Y-18496667D02*
X8426619Y-18458571D01*
X8426619Y-18458571D02*
X8436143Y-18439524D01*
X8436143Y-18439524D02*
X8445667Y-18430000D01*
X8445667Y-18430000D02*
X8464714Y-18420476D01*
X8617095Y-18601429D02*
X8626619Y-18610952D01*
X8626619Y-18610952D02*
X8617095Y-18620476D01*
X8617095Y-18620476D02*
X8607571Y-18610952D01*
X8607571Y-18610952D02*
X8617095Y-18601429D01*
X8617095Y-18601429D02*
X8617095Y-18620476D01*
X8798048Y-18487143D02*
X8798048Y-18620476D01*
X8750429Y-18410952D02*
X8702810Y-18553810D01*
X8702810Y-18553810D02*
X8826619Y-18553810D01*
X8940905Y-18420476D02*
X8959952Y-18420476D01*
X8959952Y-18420476D02*
X8979000Y-18430000D01*
X8979000Y-18430000D02*
X8988524Y-18439524D01*
X8988524Y-18439524D02*
X8998048Y-18458571D01*
X8998048Y-18458571D02*
X9007571Y-18496667D01*
X9007571Y-18496667D02*
X9007571Y-18544286D01*
X9007571Y-18544286D02*
X8998048Y-18582381D01*
X8998048Y-18582381D02*
X8988524Y-18601429D01*
X8988524Y-18601429D02*
X8979000Y-18610952D01*
X8979000Y-18610952D02*
X8959952Y-18620476D01*
X8959952Y-18620476D02*
X8940905Y-18620476D01*
X8940905Y-18620476D02*
X8921857Y-18610952D01*
X8921857Y-18610952D02*
X8912333Y-18601429D01*
X8912333Y-18601429D02*
X8902810Y-18582381D01*
X8902810Y-18582381D02*
X8893286Y-18544286D01*
X8893286Y-18544286D02*
X8893286Y-18496667D01*
X8893286Y-18496667D02*
X8902810Y-18458571D01*
X8902810Y-18458571D02*
X8912333Y-18439524D01*
X8912333Y-18439524D02*
X8921857Y-18430000D01*
X8921857Y-18430000D02*
X8940905Y-18420476D01*
X9131381Y-18420476D02*
X9150429Y-18420476D01*
X9150429Y-18420476D02*
X9169476Y-18430000D01*
X9169476Y-18430000D02*
X9179000Y-18439524D01*
X9179000Y-18439524D02*
X9188524Y-18458571D01*
X9188524Y-18458571D02*
X9198048Y-18496667D01*
X9198048Y-18496667D02*
X9198048Y-18544286D01*
X9198048Y-18544286D02*
X9188524Y-18582381D01*
X9188524Y-18582381D02*
X9179000Y-18601429D01*
X9179000Y-18601429D02*
X9169476Y-18610952D01*
X9169476Y-18610952D02*
X9150429Y-18620476D01*
X9150429Y-18620476D02*
X9131381Y-18620476D01*
X9131381Y-18620476D02*
X9112333Y-18610952D01*
X9112333Y-18610952D02*
X9102810Y-18601429D01*
X9102810Y-18601429D02*
X9093286Y-18582381D01*
X9093286Y-18582381D02*
X9083762Y-18544286D01*
X9083762Y-18544286D02*
X9083762Y-18496667D01*
X9083762Y-18496667D02*
X9093286Y-18458571D01*
X9093286Y-18458571D02*
X9102810Y-18439524D01*
X9102810Y-18439524D02*
X9112333Y-18430000D01*
X9112333Y-18430000D02*
X9131381Y-18420476D01*
X9283762Y-18620476D02*
X9283762Y-18487143D01*
X9283762Y-18506190D02*
X9293286Y-18496667D01*
X9293286Y-18496667D02*
X9312333Y-18487143D01*
X9312333Y-18487143D02*
X9340905Y-18487143D01*
X9340905Y-18487143D02*
X9359952Y-18496667D01*
X9359952Y-18496667D02*
X9369476Y-18515714D01*
X9369476Y-18515714D02*
X9369476Y-18620476D01*
X9369476Y-18515714D02*
X9379000Y-18496667D01*
X9379000Y-18496667D02*
X9398048Y-18487143D01*
X9398048Y-18487143D02*
X9426619Y-18487143D01*
X9426619Y-18487143D02*
X9445667Y-18496667D01*
X9445667Y-18496667D02*
X9455191Y-18515714D01*
X9455191Y-18515714D02*
X9455191Y-18620476D01*
X9550429Y-18620476D02*
X9550429Y-18487143D01*
X9550429Y-18506190D02*
X9559952Y-18496667D01*
X9559952Y-18496667D02*
X9579000Y-18487143D01*
X9579000Y-18487143D02*
X9607572Y-18487143D01*
X9607572Y-18487143D02*
X9626619Y-18496667D01*
X9626619Y-18496667D02*
X9636143Y-18515714D01*
X9636143Y-18515714D02*
X9636143Y-18620476D01*
X9636143Y-18515714D02*
X9645667Y-18496667D01*
X9645667Y-18496667D02*
X9664714Y-18487143D01*
X9664714Y-18487143D02*
X9693286Y-18487143D01*
X9693286Y-18487143D02*
X9712333Y-18496667D01*
X9712333Y-18496667D02*
X9721857Y-18515714D01*
X9721857Y-18515714D02*
X9721857Y-18620476D01*
X10079952Y-18410952D02*
X9908524Y-18668095D01*
X10304714Y-18420476D02*
X10323762Y-18420476D01*
X10323762Y-18420476D02*
X10342810Y-18430000D01*
X10342810Y-18430000D02*
X10352333Y-18439524D01*
X10352333Y-18439524D02*
X10361857Y-18458571D01*
X10361857Y-18458571D02*
X10371381Y-18496667D01*
X10371381Y-18496667D02*
X10371381Y-18544286D01*
X10371381Y-18544286D02*
X10361857Y-18582381D01*
X10361857Y-18582381D02*
X10352333Y-18601429D01*
X10352333Y-18601429D02*
X10342810Y-18610952D01*
X10342810Y-18610952D02*
X10323762Y-18620476D01*
X10323762Y-18620476D02*
X10304714Y-18620476D01*
X10304714Y-18620476D02*
X10285667Y-18610952D01*
X10285667Y-18610952D02*
X10276143Y-18601429D01*
X10276143Y-18601429D02*
X10266619Y-18582381D01*
X10266619Y-18582381D02*
X10257095Y-18544286D01*
X10257095Y-18544286D02*
X10257095Y-18496667D01*
X10257095Y-18496667D02*
X10266619Y-18458571D01*
X10266619Y-18458571D02*
X10276143Y-18439524D01*
X10276143Y-18439524D02*
X10285667Y-18430000D01*
X10285667Y-18430000D02*
X10304714Y-18420476D01*
X10457095Y-18601429D02*
X10466619Y-18610952D01*
X10466619Y-18610952D02*
X10457095Y-18620476D01*
X10457095Y-18620476D02*
X10447572Y-18610952D01*
X10447572Y-18610952D02*
X10457095Y-18601429D01*
X10457095Y-18601429D02*
X10457095Y-18620476D01*
X10590429Y-18420476D02*
X10609476Y-18420476D01*
X10609476Y-18420476D02*
X10628524Y-18430000D01*
X10628524Y-18430000D02*
X10638048Y-18439524D01*
X10638048Y-18439524D02*
X10647572Y-18458571D01*
X10647572Y-18458571D02*
X10657095Y-18496667D01*
X10657095Y-18496667D02*
X10657095Y-18544286D01*
X10657095Y-18544286D02*
X10647572Y-18582381D01*
X10647572Y-18582381D02*
X10638048Y-18601429D01*
X10638048Y-18601429D02*
X10628524Y-18610952D01*
X10628524Y-18610952D02*
X10609476Y-18620476D01*
X10609476Y-18620476D02*
X10590429Y-18620476D01*
X10590429Y-18620476D02*
X10571381Y-18610952D01*
X10571381Y-18610952D02*
X10561857Y-18601429D01*
X10561857Y-18601429D02*
X10552333Y-18582381D01*
X10552333Y-18582381D02*
X10542810Y-18544286D01*
X10542810Y-18544286D02*
X10542810Y-18496667D01*
X10542810Y-18496667D02*
X10552333Y-18458571D01*
X10552333Y-18458571D02*
X10561857Y-18439524D01*
X10561857Y-18439524D02*
X10571381Y-18430000D01*
X10571381Y-18430000D02*
X10590429Y-18420476D01*
X10847572Y-18620476D02*
X10733286Y-18620476D01*
X10790429Y-18620476D02*
X10790429Y-18420476D01*
X10790429Y-18420476D02*
X10771381Y-18449048D01*
X10771381Y-18449048D02*
X10752333Y-18468095D01*
X10752333Y-18468095D02*
X10733286Y-18477619D01*
X11028524Y-18420476D02*
X10933286Y-18420476D01*
X10933286Y-18420476D02*
X10923762Y-18515714D01*
X10923762Y-18515714D02*
X10933286Y-18506190D01*
X10933286Y-18506190D02*
X10952333Y-18496667D01*
X10952333Y-18496667D02*
X10999953Y-18496667D01*
X10999953Y-18496667D02*
X11019000Y-18506190D01*
X11019000Y-18506190D02*
X11028524Y-18515714D01*
X11028524Y-18515714D02*
X11038048Y-18534762D01*
X11038048Y-18534762D02*
X11038048Y-18582381D01*
X11038048Y-18582381D02*
X11028524Y-18601429D01*
X11028524Y-18601429D02*
X11019000Y-18610952D01*
X11019000Y-18610952D02*
X10999953Y-18620476D01*
X10999953Y-18620476D02*
X10952333Y-18620476D01*
X10952333Y-18620476D02*
X10933286Y-18610952D01*
X10933286Y-18610952D02*
X10923762Y-18601429D01*
X11104714Y-18420476D02*
X11238048Y-18420476D01*
X11238048Y-18420476D02*
X11152333Y-18620476D01*
X11304714Y-18420476D02*
X11304714Y-18458571D01*
X11380905Y-18420476D02*
X11380905Y-18458571D01*
X11643762Y-18696667D02*
X11634238Y-18687143D01*
X11634238Y-18687143D02*
X11615191Y-18658571D01*
X11615191Y-18658571D02*
X11605667Y-18639524D01*
X11605667Y-18639524D02*
X11596143Y-18610952D01*
X11596143Y-18610952D02*
X11586619Y-18563333D01*
X11586619Y-18563333D02*
X11586619Y-18525238D01*
X11586619Y-18525238D02*
X11596143Y-18477619D01*
X11596143Y-18477619D02*
X11605667Y-18449048D01*
X11605667Y-18449048D02*
X11615191Y-18430000D01*
X11615191Y-18430000D02*
X11634238Y-18401429D01*
X11634238Y-18401429D02*
X11643762Y-18391905D01*
X11824714Y-18620476D02*
X11710429Y-18620476D01*
X11767571Y-18620476D02*
X11767571Y-18420476D01*
X11767571Y-18420476D02*
X11748524Y-18449048D01*
X11748524Y-18449048D02*
X11729476Y-18468095D01*
X11729476Y-18468095D02*
X11710429Y-18477619D01*
X11996143Y-18487143D02*
X11996143Y-18620476D01*
X11948524Y-18410952D02*
X11900905Y-18553810D01*
X11900905Y-18553810D02*
X12024714Y-18553810D01*
X12081857Y-18420476D02*
X12205667Y-18420476D01*
X12205667Y-18420476D02*
X12139000Y-18496667D01*
X12139000Y-18496667D02*
X12167572Y-18496667D01*
X12167572Y-18496667D02*
X12186619Y-18506190D01*
X12186619Y-18506190D02*
X12196143Y-18515714D01*
X12196143Y-18515714D02*
X12205667Y-18534762D01*
X12205667Y-18534762D02*
X12205667Y-18582381D01*
X12205667Y-18582381D02*
X12196143Y-18601429D01*
X12196143Y-18601429D02*
X12186619Y-18610952D01*
X12186619Y-18610952D02*
X12167572Y-18620476D01*
X12167572Y-18620476D02*
X12110429Y-18620476D01*
X12110429Y-18620476D02*
X12091381Y-18610952D01*
X12091381Y-18610952D02*
X12081857Y-18601429D01*
X12411381Y-18620476D02*
X12411381Y-18420476D01*
X12497095Y-18620476D02*
X12497095Y-18515714D01*
X12497095Y-18515714D02*
X12487572Y-18496667D01*
X12487572Y-18496667D02*
X12468524Y-18487143D01*
X12468524Y-18487143D02*
X12439952Y-18487143D01*
X12439952Y-18487143D02*
X12420905Y-18496667D01*
X12420905Y-18496667D02*
X12411381Y-18506190D01*
X12620905Y-18620476D02*
X12601857Y-18610952D01*
X12601857Y-18610952D02*
X12592333Y-18601429D01*
X12592333Y-18601429D02*
X12582810Y-18582381D01*
X12582810Y-18582381D02*
X12582810Y-18525238D01*
X12582810Y-18525238D02*
X12592333Y-18506190D01*
X12592333Y-18506190D02*
X12601857Y-18496667D01*
X12601857Y-18496667D02*
X12620905Y-18487143D01*
X12620905Y-18487143D02*
X12649476Y-18487143D01*
X12649476Y-18487143D02*
X12668524Y-18496667D01*
X12668524Y-18496667D02*
X12678048Y-18506190D01*
X12678048Y-18506190D02*
X12687572Y-18525238D01*
X12687572Y-18525238D02*
X12687572Y-18582381D01*
X12687572Y-18582381D02*
X12678048Y-18601429D01*
X12678048Y-18601429D02*
X12668524Y-18610952D01*
X12668524Y-18610952D02*
X12649476Y-18620476D01*
X12649476Y-18620476D02*
X12620905Y-18620476D01*
X12801857Y-18620476D02*
X12782810Y-18610952D01*
X12782810Y-18610952D02*
X12773286Y-18591905D01*
X12773286Y-18591905D02*
X12773286Y-18420476D01*
X12954238Y-18610952D02*
X12935191Y-18620476D01*
X12935191Y-18620476D02*
X12897095Y-18620476D01*
X12897095Y-18620476D02*
X12878048Y-18610952D01*
X12878048Y-18610952D02*
X12868524Y-18591905D01*
X12868524Y-18591905D02*
X12868524Y-18515714D01*
X12868524Y-18515714D02*
X12878048Y-18496667D01*
X12878048Y-18496667D02*
X12897095Y-18487143D01*
X12897095Y-18487143D02*
X12935191Y-18487143D01*
X12935191Y-18487143D02*
X12954238Y-18496667D01*
X12954238Y-18496667D02*
X12963762Y-18515714D01*
X12963762Y-18515714D02*
X12963762Y-18534762D01*
X12963762Y-18534762D02*
X12868524Y-18553810D01*
X13039953Y-18610952D02*
X13059000Y-18620476D01*
X13059000Y-18620476D02*
X13097095Y-18620476D01*
X13097095Y-18620476D02*
X13116143Y-18610952D01*
X13116143Y-18610952D02*
X13125667Y-18591905D01*
X13125667Y-18591905D02*
X13125667Y-18582381D01*
X13125667Y-18582381D02*
X13116143Y-18563333D01*
X13116143Y-18563333D02*
X13097095Y-18553810D01*
X13097095Y-18553810D02*
X13068524Y-18553810D01*
X13068524Y-18553810D02*
X13049476Y-18544286D01*
X13049476Y-18544286D02*
X13039953Y-18525238D01*
X13039953Y-18525238D02*
X13039953Y-18515714D01*
X13039953Y-18515714D02*
X13049476Y-18496667D01*
X13049476Y-18496667D02*
X13068524Y-18487143D01*
X13068524Y-18487143D02*
X13097095Y-18487143D01*
X13097095Y-18487143D02*
X13116143Y-18496667D01*
X13192334Y-18696667D02*
X13201857Y-18687143D01*
X13201857Y-18687143D02*
X13220905Y-18658571D01*
X13220905Y-18658571D02*
X13230429Y-18639524D01*
X13230429Y-18639524D02*
X13239953Y-18610952D01*
X13239953Y-18610952D02*
X13249476Y-18563333D01*
X13249476Y-18563333D02*
X13249476Y-18525238D01*
X13249476Y-18525238D02*
X13239953Y-18477619D01*
X13239953Y-18477619D02*
X13230429Y-18449048D01*
X13230429Y-18449048D02*
X13220905Y-18430000D01*
X13220905Y-18430000D02*
X13201857Y-18401429D01*
X13201857Y-18401429D02*
X13192334Y-18391905D01*
D14*
X8179000Y-18811000D02*
G75*
G03*
X8179000Y-18811000I-37500J0D01*
G01*
D12*
X8464714Y-18684476D02*
X8483762Y-18684476D01*
X8483762Y-18684476D02*
X8502810Y-18694000D01*
X8502810Y-18694000D02*
X8512333Y-18703524D01*
X8512333Y-18703524D02*
X8521857Y-18722571D01*
X8521857Y-18722571D02*
X8531381Y-18760667D01*
X8531381Y-18760667D02*
X8531381Y-18808286D01*
X8531381Y-18808286D02*
X8521857Y-18846381D01*
X8521857Y-18846381D02*
X8512333Y-18865429D01*
X8512333Y-18865429D02*
X8502810Y-18874952D01*
X8502810Y-18874952D02*
X8483762Y-18884476D01*
X8483762Y-18884476D02*
X8464714Y-18884476D01*
X8464714Y-18884476D02*
X8445667Y-18874952D01*
X8445667Y-18874952D02*
X8436143Y-18865429D01*
X8436143Y-18865429D02*
X8426619Y-18846381D01*
X8426619Y-18846381D02*
X8417095Y-18808286D01*
X8417095Y-18808286D02*
X8417095Y-18760667D01*
X8417095Y-18760667D02*
X8426619Y-18722571D01*
X8426619Y-18722571D02*
X8436143Y-18703524D01*
X8436143Y-18703524D02*
X8445667Y-18694000D01*
X8445667Y-18694000D02*
X8464714Y-18684476D01*
X8617095Y-18865429D02*
X8626619Y-18874952D01*
X8626619Y-18874952D02*
X8617095Y-18884476D01*
X8617095Y-18884476D02*
X8607571Y-18874952D01*
X8607571Y-18874952D02*
X8617095Y-18865429D01*
X8617095Y-18865429D02*
X8617095Y-18884476D01*
X8693286Y-18684476D02*
X8826619Y-18684476D01*
X8826619Y-18684476D02*
X8740905Y-18884476D01*
X8998048Y-18684476D02*
X8902810Y-18684476D01*
X8902810Y-18684476D02*
X8893286Y-18779714D01*
X8893286Y-18779714D02*
X8902810Y-18770190D01*
X8902810Y-18770190D02*
X8921857Y-18760667D01*
X8921857Y-18760667D02*
X8969476Y-18760667D01*
X8969476Y-18760667D02*
X8988524Y-18770190D01*
X8988524Y-18770190D02*
X8998048Y-18779714D01*
X8998048Y-18779714D02*
X9007571Y-18798762D01*
X9007571Y-18798762D02*
X9007571Y-18846381D01*
X9007571Y-18846381D02*
X8998048Y-18865429D01*
X8998048Y-18865429D02*
X8988524Y-18874952D01*
X8988524Y-18874952D02*
X8969476Y-18884476D01*
X8969476Y-18884476D02*
X8921857Y-18884476D01*
X8921857Y-18884476D02*
X8902810Y-18874952D01*
X8902810Y-18874952D02*
X8893286Y-18865429D01*
X9131381Y-18684476D02*
X9150429Y-18684476D01*
X9150429Y-18684476D02*
X9169476Y-18694000D01*
X9169476Y-18694000D02*
X9179000Y-18703524D01*
X9179000Y-18703524D02*
X9188524Y-18722571D01*
X9188524Y-18722571D02*
X9198048Y-18760667D01*
X9198048Y-18760667D02*
X9198048Y-18808286D01*
X9198048Y-18808286D02*
X9188524Y-18846381D01*
X9188524Y-18846381D02*
X9179000Y-18865429D01*
X9179000Y-18865429D02*
X9169476Y-18874952D01*
X9169476Y-18874952D02*
X9150429Y-18884476D01*
X9150429Y-18884476D02*
X9131381Y-18884476D01*
X9131381Y-18884476D02*
X9112333Y-18874952D01*
X9112333Y-18874952D02*
X9102810Y-18865429D01*
X9102810Y-18865429D02*
X9093286Y-18846381D01*
X9093286Y-18846381D02*
X9083762Y-18808286D01*
X9083762Y-18808286D02*
X9083762Y-18760667D01*
X9083762Y-18760667D02*
X9093286Y-18722571D01*
X9093286Y-18722571D02*
X9102810Y-18703524D01*
X9102810Y-18703524D02*
X9112333Y-18694000D01*
X9112333Y-18694000D02*
X9131381Y-18684476D01*
X9283762Y-18884476D02*
X9283762Y-18751143D01*
X9283762Y-18770190D02*
X9293286Y-18760667D01*
X9293286Y-18760667D02*
X9312333Y-18751143D01*
X9312333Y-18751143D02*
X9340905Y-18751143D01*
X9340905Y-18751143D02*
X9359952Y-18760667D01*
X9359952Y-18760667D02*
X9369476Y-18779714D01*
X9369476Y-18779714D02*
X9369476Y-18884476D01*
X9369476Y-18779714D02*
X9379000Y-18760667D01*
X9379000Y-18760667D02*
X9398048Y-18751143D01*
X9398048Y-18751143D02*
X9426619Y-18751143D01*
X9426619Y-18751143D02*
X9445667Y-18760667D01*
X9445667Y-18760667D02*
X9455191Y-18779714D01*
X9455191Y-18779714D02*
X9455191Y-18884476D01*
X9550429Y-18884476D02*
X9550429Y-18751143D01*
X9550429Y-18770190D02*
X9559952Y-18760667D01*
X9559952Y-18760667D02*
X9579000Y-18751143D01*
X9579000Y-18751143D02*
X9607572Y-18751143D01*
X9607572Y-18751143D02*
X9626619Y-18760667D01*
X9626619Y-18760667D02*
X9636143Y-18779714D01*
X9636143Y-18779714D02*
X9636143Y-18884476D01*
X9636143Y-18779714D02*
X9645667Y-18760667D01*
X9645667Y-18760667D02*
X9664714Y-18751143D01*
X9664714Y-18751143D02*
X9693286Y-18751143D01*
X9693286Y-18751143D02*
X9712333Y-18760667D01*
X9712333Y-18760667D02*
X9721857Y-18779714D01*
X9721857Y-18779714D02*
X9721857Y-18884476D01*
X10079952Y-18674952D02*
X9908524Y-18932095D01*
X10304714Y-18684476D02*
X10323762Y-18684476D01*
X10323762Y-18684476D02*
X10342810Y-18694000D01*
X10342810Y-18694000D02*
X10352333Y-18703524D01*
X10352333Y-18703524D02*
X10361857Y-18722571D01*
X10361857Y-18722571D02*
X10371381Y-18760667D01*
X10371381Y-18760667D02*
X10371381Y-18808286D01*
X10371381Y-18808286D02*
X10361857Y-18846381D01*
X10361857Y-18846381D02*
X10352333Y-18865429D01*
X10352333Y-18865429D02*
X10342810Y-18874952D01*
X10342810Y-18874952D02*
X10323762Y-18884476D01*
X10323762Y-18884476D02*
X10304714Y-18884476D01*
X10304714Y-18884476D02*
X10285667Y-18874952D01*
X10285667Y-18874952D02*
X10276143Y-18865429D01*
X10276143Y-18865429D02*
X10266619Y-18846381D01*
X10266619Y-18846381D02*
X10257095Y-18808286D01*
X10257095Y-18808286D02*
X10257095Y-18760667D01*
X10257095Y-18760667D02*
X10266619Y-18722571D01*
X10266619Y-18722571D02*
X10276143Y-18703524D01*
X10276143Y-18703524D02*
X10285667Y-18694000D01*
X10285667Y-18694000D02*
X10304714Y-18684476D01*
X10457095Y-18865429D02*
X10466619Y-18874952D01*
X10466619Y-18874952D02*
X10457095Y-18884476D01*
X10457095Y-18884476D02*
X10447572Y-18874952D01*
X10447572Y-18874952D02*
X10457095Y-18865429D01*
X10457095Y-18865429D02*
X10457095Y-18884476D01*
X10590429Y-18684476D02*
X10609476Y-18684476D01*
X10609476Y-18684476D02*
X10628524Y-18694000D01*
X10628524Y-18694000D02*
X10638048Y-18703524D01*
X10638048Y-18703524D02*
X10647572Y-18722571D01*
X10647572Y-18722571D02*
X10657095Y-18760667D01*
X10657095Y-18760667D02*
X10657095Y-18808286D01*
X10657095Y-18808286D02*
X10647572Y-18846381D01*
X10647572Y-18846381D02*
X10638048Y-18865429D01*
X10638048Y-18865429D02*
X10628524Y-18874952D01*
X10628524Y-18874952D02*
X10609476Y-18884476D01*
X10609476Y-18884476D02*
X10590429Y-18884476D01*
X10590429Y-18884476D02*
X10571381Y-18874952D01*
X10571381Y-18874952D02*
X10561857Y-18865429D01*
X10561857Y-18865429D02*
X10552333Y-18846381D01*
X10552333Y-18846381D02*
X10542810Y-18808286D01*
X10542810Y-18808286D02*
X10542810Y-18760667D01*
X10542810Y-18760667D02*
X10552333Y-18722571D01*
X10552333Y-18722571D02*
X10561857Y-18703524D01*
X10561857Y-18703524D02*
X10571381Y-18694000D01*
X10571381Y-18694000D02*
X10590429Y-18684476D01*
X10733286Y-18703524D02*
X10742810Y-18694000D01*
X10742810Y-18694000D02*
X10761857Y-18684476D01*
X10761857Y-18684476D02*
X10809476Y-18684476D01*
X10809476Y-18684476D02*
X10828524Y-18694000D01*
X10828524Y-18694000D02*
X10838048Y-18703524D01*
X10838048Y-18703524D02*
X10847572Y-18722571D01*
X10847572Y-18722571D02*
X10847572Y-18741619D01*
X10847572Y-18741619D02*
X10838048Y-18770190D01*
X10838048Y-18770190D02*
X10723762Y-18884476D01*
X10723762Y-18884476D02*
X10847572Y-18884476D01*
X10942810Y-18884476D02*
X10980905Y-18884476D01*
X10980905Y-18884476D02*
X10999953Y-18874952D01*
X10999953Y-18874952D02*
X11009476Y-18865429D01*
X11009476Y-18865429D02*
X11028524Y-18836857D01*
X11028524Y-18836857D02*
X11038048Y-18798762D01*
X11038048Y-18798762D02*
X11038048Y-18722571D01*
X11038048Y-18722571D02*
X11028524Y-18703524D01*
X11028524Y-18703524D02*
X11019000Y-18694000D01*
X11019000Y-18694000D02*
X10999953Y-18684476D01*
X10999953Y-18684476D02*
X10961857Y-18684476D01*
X10961857Y-18684476D02*
X10942810Y-18694000D01*
X10942810Y-18694000D02*
X10933286Y-18703524D01*
X10933286Y-18703524D02*
X10923762Y-18722571D01*
X10923762Y-18722571D02*
X10923762Y-18770190D01*
X10923762Y-18770190D02*
X10933286Y-18789238D01*
X10933286Y-18789238D02*
X10942810Y-18798762D01*
X10942810Y-18798762D02*
X10961857Y-18808286D01*
X10961857Y-18808286D02*
X10999953Y-18808286D01*
X10999953Y-18808286D02*
X11019000Y-18798762D01*
X11019000Y-18798762D02*
X11028524Y-18789238D01*
X11028524Y-18789238D02*
X11038048Y-18770190D01*
X11219000Y-18684476D02*
X11123762Y-18684476D01*
X11123762Y-18684476D02*
X11114238Y-18779714D01*
X11114238Y-18779714D02*
X11123762Y-18770190D01*
X11123762Y-18770190D02*
X11142810Y-18760667D01*
X11142810Y-18760667D02*
X11190429Y-18760667D01*
X11190429Y-18760667D02*
X11209476Y-18770190D01*
X11209476Y-18770190D02*
X11219000Y-18779714D01*
X11219000Y-18779714D02*
X11228524Y-18798762D01*
X11228524Y-18798762D02*
X11228524Y-18846381D01*
X11228524Y-18846381D02*
X11219000Y-18865429D01*
X11219000Y-18865429D02*
X11209476Y-18874952D01*
X11209476Y-18874952D02*
X11190429Y-18884476D01*
X11190429Y-18884476D02*
X11142810Y-18884476D01*
X11142810Y-18884476D02*
X11123762Y-18874952D01*
X11123762Y-18874952D02*
X11114238Y-18865429D01*
X11304714Y-18684476D02*
X11304714Y-18722571D01*
X11380905Y-18684476D02*
X11380905Y-18722571D01*
X11643762Y-18960667D02*
X11634238Y-18951143D01*
X11634238Y-18951143D02*
X11615191Y-18922571D01*
X11615191Y-18922571D02*
X11605667Y-18903524D01*
X11605667Y-18903524D02*
X11596143Y-18874952D01*
X11596143Y-18874952D02*
X11586619Y-18827333D01*
X11586619Y-18827333D02*
X11586619Y-18789238D01*
X11586619Y-18789238D02*
X11596143Y-18741619D01*
X11596143Y-18741619D02*
X11605667Y-18713048D01*
X11605667Y-18713048D02*
X11615191Y-18694000D01*
X11615191Y-18694000D02*
X11634238Y-18665429D01*
X11634238Y-18665429D02*
X11643762Y-18655905D01*
X11824714Y-18884476D02*
X11710429Y-18884476D01*
X11767571Y-18884476D02*
X11767571Y-18684476D01*
X11767571Y-18684476D02*
X11748524Y-18713048D01*
X11748524Y-18713048D02*
X11729476Y-18732095D01*
X11729476Y-18732095D02*
X11710429Y-18741619D01*
X11891381Y-18684476D02*
X12015191Y-18684476D01*
X12015191Y-18684476D02*
X11948524Y-18760667D01*
X11948524Y-18760667D02*
X11977095Y-18760667D01*
X11977095Y-18760667D02*
X11996143Y-18770190D01*
X11996143Y-18770190D02*
X12005667Y-18779714D01*
X12005667Y-18779714D02*
X12015191Y-18798762D01*
X12015191Y-18798762D02*
X12015191Y-18846381D01*
X12015191Y-18846381D02*
X12005667Y-18865429D01*
X12005667Y-18865429D02*
X11996143Y-18874952D01*
X11996143Y-18874952D02*
X11977095Y-18884476D01*
X11977095Y-18884476D02*
X11919952Y-18884476D01*
X11919952Y-18884476D02*
X11900905Y-18874952D01*
X11900905Y-18874952D02*
X11891381Y-18865429D01*
X12186619Y-18751143D02*
X12186619Y-18884476D01*
X12139000Y-18674952D02*
X12091381Y-18817810D01*
X12091381Y-18817810D02*
X12215191Y-18817810D01*
X12411381Y-18884476D02*
X12411381Y-18684476D01*
X12497095Y-18884476D02*
X12497095Y-18779714D01*
X12497095Y-18779714D02*
X12487572Y-18760667D01*
X12487572Y-18760667D02*
X12468524Y-18751143D01*
X12468524Y-18751143D02*
X12439952Y-18751143D01*
X12439952Y-18751143D02*
X12420905Y-18760667D01*
X12420905Y-18760667D02*
X12411381Y-18770190D01*
X12620905Y-18884476D02*
X12601857Y-18874952D01*
X12601857Y-18874952D02*
X12592333Y-18865429D01*
X12592333Y-18865429D02*
X12582810Y-18846381D01*
X12582810Y-18846381D02*
X12582810Y-18789238D01*
X12582810Y-18789238D02*
X12592333Y-18770190D01*
X12592333Y-18770190D02*
X12601857Y-18760667D01*
X12601857Y-18760667D02*
X12620905Y-18751143D01*
X12620905Y-18751143D02*
X12649476Y-18751143D01*
X12649476Y-18751143D02*
X12668524Y-18760667D01*
X12668524Y-18760667D02*
X12678048Y-18770190D01*
X12678048Y-18770190D02*
X12687572Y-18789238D01*
X12687572Y-18789238D02*
X12687572Y-18846381D01*
X12687572Y-18846381D02*
X12678048Y-18865429D01*
X12678048Y-18865429D02*
X12668524Y-18874952D01*
X12668524Y-18874952D02*
X12649476Y-18884476D01*
X12649476Y-18884476D02*
X12620905Y-18884476D01*
X12801857Y-18884476D02*
X12782810Y-18874952D01*
X12782810Y-18874952D02*
X12773286Y-18855905D01*
X12773286Y-18855905D02*
X12773286Y-18684476D01*
X12954238Y-18874952D02*
X12935191Y-18884476D01*
X12935191Y-18884476D02*
X12897095Y-18884476D01*
X12897095Y-18884476D02*
X12878048Y-18874952D01*
X12878048Y-18874952D02*
X12868524Y-18855905D01*
X12868524Y-18855905D02*
X12868524Y-18779714D01*
X12868524Y-18779714D02*
X12878048Y-18760667D01*
X12878048Y-18760667D02*
X12897095Y-18751143D01*
X12897095Y-18751143D02*
X12935191Y-18751143D01*
X12935191Y-18751143D02*
X12954238Y-18760667D01*
X12954238Y-18760667D02*
X12963762Y-18779714D01*
X12963762Y-18779714D02*
X12963762Y-18798762D01*
X12963762Y-18798762D02*
X12868524Y-18817810D01*
X13039953Y-18874952D02*
X13059000Y-18884476D01*
X13059000Y-18884476D02*
X13097095Y-18884476D01*
X13097095Y-18884476D02*
X13116143Y-18874952D01*
X13116143Y-18874952D02*
X13125667Y-18855905D01*
X13125667Y-18855905D02*
X13125667Y-18846381D01*
X13125667Y-18846381D02*
X13116143Y-18827333D01*
X13116143Y-18827333D02*
X13097095Y-18817810D01*
X13097095Y-18817810D02*
X13068524Y-18817810D01*
X13068524Y-18817810D02*
X13049476Y-18808286D01*
X13049476Y-18808286D02*
X13039953Y-18789238D01*
X13039953Y-18789238D02*
X13039953Y-18779714D01*
X13039953Y-18779714D02*
X13049476Y-18760667D01*
X13049476Y-18760667D02*
X13068524Y-18751143D01*
X13068524Y-18751143D02*
X13097095Y-18751143D01*
X13097095Y-18751143D02*
X13116143Y-18760667D01*
X13192334Y-18960667D02*
X13201857Y-18951143D01*
X13201857Y-18951143D02*
X13220905Y-18922571D01*
X13220905Y-18922571D02*
X13230429Y-18903524D01*
X13230429Y-18903524D02*
X13239953Y-18874952D01*
X13239953Y-18874952D02*
X13249476Y-18827333D01*
X13249476Y-18827333D02*
X13249476Y-18789238D01*
X13249476Y-18789238D02*
X13239953Y-18741619D01*
X13239953Y-18741619D02*
X13230429Y-18713048D01*
X13230429Y-18713048D02*
X13220905Y-18694000D01*
X13220905Y-18694000D02*
X13201857Y-18665429D01*
X13201857Y-18665429D02*
X13192334Y-18655905D01*
D15*
X8139000Y-19035000D02*
X8139000Y-19115000D01*
X8099000Y-19075000D02*
X8179000Y-19075000D01*
D12*
X8464714Y-18948476D02*
X8483762Y-18948476D01*
X8483762Y-18948476D02*
X8502810Y-18958000D01*
X8502810Y-18958000D02*
X8512333Y-18967524D01*
X8512333Y-18967524D02*
X8521857Y-18986571D01*
X8521857Y-18986571D02*
X8531381Y-19024667D01*
X8531381Y-19024667D02*
X8531381Y-19072286D01*
X8531381Y-19072286D02*
X8521857Y-19110381D01*
X8521857Y-19110381D02*
X8512333Y-19129429D01*
X8512333Y-19129429D02*
X8502810Y-19138952D01*
X8502810Y-19138952D02*
X8483762Y-19148476D01*
X8483762Y-19148476D02*
X8464714Y-19148476D01*
X8464714Y-19148476D02*
X8445667Y-19138952D01*
X8445667Y-19138952D02*
X8436143Y-19129429D01*
X8436143Y-19129429D02*
X8426619Y-19110381D01*
X8426619Y-19110381D02*
X8417095Y-19072286D01*
X8417095Y-19072286D02*
X8417095Y-19024667D01*
X8417095Y-19024667D02*
X8426619Y-18986571D01*
X8426619Y-18986571D02*
X8436143Y-18967524D01*
X8436143Y-18967524D02*
X8445667Y-18958000D01*
X8445667Y-18958000D02*
X8464714Y-18948476D01*
X8617095Y-19129429D02*
X8626619Y-19138952D01*
X8626619Y-19138952D02*
X8617095Y-19148476D01*
X8617095Y-19148476D02*
X8607571Y-19138952D01*
X8607571Y-19138952D02*
X8617095Y-19129429D01*
X8617095Y-19129429D02*
X8617095Y-19148476D01*
X8740905Y-19034190D02*
X8721857Y-19024667D01*
X8721857Y-19024667D02*
X8712333Y-19015143D01*
X8712333Y-19015143D02*
X8702810Y-18996095D01*
X8702810Y-18996095D02*
X8702810Y-18986571D01*
X8702810Y-18986571D02*
X8712333Y-18967524D01*
X8712333Y-18967524D02*
X8721857Y-18958000D01*
X8721857Y-18958000D02*
X8740905Y-18948476D01*
X8740905Y-18948476D02*
X8779000Y-18948476D01*
X8779000Y-18948476D02*
X8798048Y-18958000D01*
X8798048Y-18958000D02*
X8807571Y-18967524D01*
X8807571Y-18967524D02*
X8817095Y-18986571D01*
X8817095Y-18986571D02*
X8817095Y-18996095D01*
X8817095Y-18996095D02*
X8807571Y-19015143D01*
X8807571Y-19015143D02*
X8798048Y-19024667D01*
X8798048Y-19024667D02*
X8779000Y-19034190D01*
X8779000Y-19034190D02*
X8740905Y-19034190D01*
X8740905Y-19034190D02*
X8721857Y-19043714D01*
X8721857Y-19043714D02*
X8712333Y-19053238D01*
X8712333Y-19053238D02*
X8702810Y-19072286D01*
X8702810Y-19072286D02*
X8702810Y-19110381D01*
X8702810Y-19110381D02*
X8712333Y-19129429D01*
X8712333Y-19129429D02*
X8721857Y-19138952D01*
X8721857Y-19138952D02*
X8740905Y-19148476D01*
X8740905Y-19148476D02*
X8779000Y-19148476D01*
X8779000Y-19148476D02*
X8798048Y-19138952D01*
X8798048Y-19138952D02*
X8807571Y-19129429D01*
X8807571Y-19129429D02*
X8817095Y-19110381D01*
X8817095Y-19110381D02*
X8817095Y-19072286D01*
X8817095Y-19072286D02*
X8807571Y-19053238D01*
X8807571Y-19053238D02*
X8798048Y-19043714D01*
X8798048Y-19043714D02*
X8779000Y-19034190D01*
X8940905Y-18948476D02*
X8959952Y-18948476D01*
X8959952Y-18948476D02*
X8979000Y-18958000D01*
X8979000Y-18958000D02*
X8988524Y-18967524D01*
X8988524Y-18967524D02*
X8998048Y-18986571D01*
X8998048Y-18986571D02*
X9007571Y-19024667D01*
X9007571Y-19024667D02*
X9007571Y-19072286D01*
X9007571Y-19072286D02*
X8998048Y-19110381D01*
X8998048Y-19110381D02*
X8988524Y-19129429D01*
X8988524Y-19129429D02*
X8979000Y-19138952D01*
X8979000Y-19138952D02*
X8959952Y-19148476D01*
X8959952Y-19148476D02*
X8940905Y-19148476D01*
X8940905Y-19148476D02*
X8921857Y-19138952D01*
X8921857Y-19138952D02*
X8912333Y-19129429D01*
X8912333Y-19129429D02*
X8902810Y-19110381D01*
X8902810Y-19110381D02*
X8893286Y-19072286D01*
X8893286Y-19072286D02*
X8893286Y-19024667D01*
X8893286Y-19024667D02*
X8902810Y-18986571D01*
X8902810Y-18986571D02*
X8912333Y-18967524D01*
X8912333Y-18967524D02*
X8921857Y-18958000D01*
X8921857Y-18958000D02*
X8940905Y-18948476D01*
X9131381Y-18948476D02*
X9150429Y-18948476D01*
X9150429Y-18948476D02*
X9169476Y-18958000D01*
X9169476Y-18958000D02*
X9179000Y-18967524D01*
X9179000Y-18967524D02*
X9188524Y-18986571D01*
X9188524Y-18986571D02*
X9198048Y-19024667D01*
X9198048Y-19024667D02*
X9198048Y-19072286D01*
X9198048Y-19072286D02*
X9188524Y-19110381D01*
X9188524Y-19110381D02*
X9179000Y-19129429D01*
X9179000Y-19129429D02*
X9169476Y-19138952D01*
X9169476Y-19138952D02*
X9150429Y-19148476D01*
X9150429Y-19148476D02*
X9131381Y-19148476D01*
X9131381Y-19148476D02*
X9112333Y-19138952D01*
X9112333Y-19138952D02*
X9102810Y-19129429D01*
X9102810Y-19129429D02*
X9093286Y-19110381D01*
X9093286Y-19110381D02*
X9083762Y-19072286D01*
X9083762Y-19072286D02*
X9083762Y-19024667D01*
X9083762Y-19024667D02*
X9093286Y-18986571D01*
X9093286Y-18986571D02*
X9102810Y-18967524D01*
X9102810Y-18967524D02*
X9112333Y-18958000D01*
X9112333Y-18958000D02*
X9131381Y-18948476D01*
X9283762Y-19148476D02*
X9283762Y-19015143D01*
X9283762Y-19034190D02*
X9293286Y-19024667D01*
X9293286Y-19024667D02*
X9312333Y-19015143D01*
X9312333Y-19015143D02*
X9340905Y-19015143D01*
X9340905Y-19015143D02*
X9359952Y-19024667D01*
X9359952Y-19024667D02*
X9369476Y-19043714D01*
X9369476Y-19043714D02*
X9369476Y-19148476D01*
X9369476Y-19043714D02*
X9379000Y-19024667D01*
X9379000Y-19024667D02*
X9398048Y-19015143D01*
X9398048Y-19015143D02*
X9426619Y-19015143D01*
X9426619Y-19015143D02*
X9445667Y-19024667D01*
X9445667Y-19024667D02*
X9455191Y-19043714D01*
X9455191Y-19043714D02*
X9455191Y-19148476D01*
X9550429Y-19148476D02*
X9550429Y-19015143D01*
X9550429Y-19034190D02*
X9559952Y-19024667D01*
X9559952Y-19024667D02*
X9579000Y-19015143D01*
X9579000Y-19015143D02*
X9607572Y-19015143D01*
X9607572Y-19015143D02*
X9626619Y-19024667D01*
X9626619Y-19024667D02*
X9636143Y-19043714D01*
X9636143Y-19043714D02*
X9636143Y-19148476D01*
X9636143Y-19043714D02*
X9645667Y-19024667D01*
X9645667Y-19024667D02*
X9664714Y-19015143D01*
X9664714Y-19015143D02*
X9693286Y-19015143D01*
X9693286Y-19015143D02*
X9712333Y-19024667D01*
X9712333Y-19024667D02*
X9721857Y-19043714D01*
X9721857Y-19043714D02*
X9721857Y-19148476D01*
X10079952Y-18938952D02*
X9908524Y-19196095D01*
X10304714Y-18948476D02*
X10323762Y-18948476D01*
X10323762Y-18948476D02*
X10342810Y-18958000D01*
X10342810Y-18958000D02*
X10352333Y-18967524D01*
X10352333Y-18967524D02*
X10361857Y-18986571D01*
X10361857Y-18986571D02*
X10371381Y-19024667D01*
X10371381Y-19024667D02*
X10371381Y-19072286D01*
X10371381Y-19072286D02*
X10361857Y-19110381D01*
X10361857Y-19110381D02*
X10352333Y-19129429D01*
X10352333Y-19129429D02*
X10342810Y-19138952D01*
X10342810Y-19138952D02*
X10323762Y-19148476D01*
X10323762Y-19148476D02*
X10304714Y-19148476D01*
X10304714Y-19148476D02*
X10285667Y-19138952D01*
X10285667Y-19138952D02*
X10276143Y-19129429D01*
X10276143Y-19129429D02*
X10266619Y-19110381D01*
X10266619Y-19110381D02*
X10257095Y-19072286D01*
X10257095Y-19072286D02*
X10257095Y-19024667D01*
X10257095Y-19024667D02*
X10266619Y-18986571D01*
X10266619Y-18986571D02*
X10276143Y-18967524D01*
X10276143Y-18967524D02*
X10285667Y-18958000D01*
X10285667Y-18958000D02*
X10304714Y-18948476D01*
X10457095Y-19129429D02*
X10466619Y-19138952D01*
X10466619Y-19138952D02*
X10457095Y-19148476D01*
X10457095Y-19148476D02*
X10447572Y-19138952D01*
X10447572Y-19138952D02*
X10457095Y-19129429D01*
X10457095Y-19129429D02*
X10457095Y-19148476D01*
X10590429Y-18948476D02*
X10609476Y-18948476D01*
X10609476Y-18948476D02*
X10628524Y-18958000D01*
X10628524Y-18958000D02*
X10638048Y-18967524D01*
X10638048Y-18967524D02*
X10647572Y-18986571D01*
X10647572Y-18986571D02*
X10657095Y-19024667D01*
X10657095Y-19024667D02*
X10657095Y-19072286D01*
X10657095Y-19072286D02*
X10647572Y-19110381D01*
X10647572Y-19110381D02*
X10638048Y-19129429D01*
X10638048Y-19129429D02*
X10628524Y-19138952D01*
X10628524Y-19138952D02*
X10609476Y-19148476D01*
X10609476Y-19148476D02*
X10590429Y-19148476D01*
X10590429Y-19148476D02*
X10571381Y-19138952D01*
X10571381Y-19138952D02*
X10561857Y-19129429D01*
X10561857Y-19129429D02*
X10552333Y-19110381D01*
X10552333Y-19110381D02*
X10542810Y-19072286D01*
X10542810Y-19072286D02*
X10542810Y-19024667D01*
X10542810Y-19024667D02*
X10552333Y-18986571D01*
X10552333Y-18986571D02*
X10561857Y-18967524D01*
X10561857Y-18967524D02*
X10571381Y-18958000D01*
X10571381Y-18958000D02*
X10590429Y-18948476D01*
X10723762Y-18948476D02*
X10847572Y-18948476D01*
X10847572Y-18948476D02*
X10780905Y-19024667D01*
X10780905Y-19024667D02*
X10809476Y-19024667D01*
X10809476Y-19024667D02*
X10828524Y-19034190D01*
X10828524Y-19034190D02*
X10838048Y-19043714D01*
X10838048Y-19043714D02*
X10847572Y-19062762D01*
X10847572Y-19062762D02*
X10847572Y-19110381D01*
X10847572Y-19110381D02*
X10838048Y-19129429D01*
X10838048Y-19129429D02*
X10828524Y-19138952D01*
X10828524Y-19138952D02*
X10809476Y-19148476D01*
X10809476Y-19148476D02*
X10752333Y-19148476D01*
X10752333Y-19148476D02*
X10733286Y-19138952D01*
X10733286Y-19138952D02*
X10723762Y-19129429D01*
X11038048Y-19148476D02*
X10923762Y-19148476D01*
X10980905Y-19148476D02*
X10980905Y-18948476D01*
X10980905Y-18948476D02*
X10961857Y-18977048D01*
X10961857Y-18977048D02*
X10942810Y-18996095D01*
X10942810Y-18996095D02*
X10923762Y-19005619D01*
X11219000Y-18948476D02*
X11123762Y-18948476D01*
X11123762Y-18948476D02*
X11114238Y-19043714D01*
X11114238Y-19043714D02*
X11123762Y-19034190D01*
X11123762Y-19034190D02*
X11142810Y-19024667D01*
X11142810Y-19024667D02*
X11190429Y-19024667D01*
X11190429Y-19024667D02*
X11209476Y-19034190D01*
X11209476Y-19034190D02*
X11219000Y-19043714D01*
X11219000Y-19043714D02*
X11228524Y-19062762D01*
X11228524Y-19062762D02*
X11228524Y-19110381D01*
X11228524Y-19110381D02*
X11219000Y-19129429D01*
X11219000Y-19129429D02*
X11209476Y-19138952D01*
X11209476Y-19138952D02*
X11190429Y-19148476D01*
X11190429Y-19148476D02*
X11142810Y-19148476D01*
X11142810Y-19148476D02*
X11123762Y-19138952D01*
X11123762Y-19138952D02*
X11114238Y-19129429D01*
X11304714Y-18948476D02*
X11304714Y-18986571D01*
X11380905Y-18948476D02*
X11380905Y-18986571D01*
X11643762Y-19224667D02*
X11634238Y-19215143D01*
X11634238Y-19215143D02*
X11615191Y-19186571D01*
X11615191Y-19186571D02*
X11605667Y-19167524D01*
X11605667Y-19167524D02*
X11596143Y-19138952D01*
X11596143Y-19138952D02*
X11586619Y-19091333D01*
X11586619Y-19091333D02*
X11586619Y-19053238D01*
X11586619Y-19053238D02*
X11596143Y-19005619D01*
X11596143Y-19005619D02*
X11605667Y-18977048D01*
X11605667Y-18977048D02*
X11615191Y-18958000D01*
X11615191Y-18958000D02*
X11634238Y-18929429D01*
X11634238Y-18929429D02*
X11643762Y-18919905D01*
X11700905Y-18948476D02*
X11834238Y-18948476D01*
X11834238Y-18948476D02*
X11748524Y-19148476D01*
X11996143Y-18948476D02*
X11958048Y-18948476D01*
X11958048Y-18948476D02*
X11939000Y-18958000D01*
X11939000Y-18958000D02*
X11929476Y-18967524D01*
X11929476Y-18967524D02*
X11910429Y-18996095D01*
X11910429Y-18996095D02*
X11900905Y-19034190D01*
X11900905Y-19034190D02*
X11900905Y-19110381D01*
X11900905Y-19110381D02*
X11910429Y-19129429D01*
X11910429Y-19129429D02*
X11919952Y-19138952D01*
X11919952Y-19138952D02*
X11939000Y-19148476D01*
X11939000Y-19148476D02*
X11977095Y-19148476D01*
X11977095Y-19148476D02*
X11996143Y-19138952D01*
X11996143Y-19138952D02*
X12005667Y-19129429D01*
X12005667Y-19129429D02*
X12015191Y-19110381D01*
X12015191Y-19110381D02*
X12015191Y-19062762D01*
X12015191Y-19062762D02*
X12005667Y-19043714D01*
X12005667Y-19043714D02*
X11996143Y-19034190D01*
X11996143Y-19034190D02*
X11977095Y-19024667D01*
X11977095Y-19024667D02*
X11939000Y-19024667D01*
X11939000Y-19024667D02*
X11919952Y-19034190D01*
X11919952Y-19034190D02*
X11910429Y-19043714D01*
X11910429Y-19043714D02*
X11900905Y-19062762D01*
X12220905Y-19148476D02*
X12220905Y-18948476D01*
X12306619Y-19148476D02*
X12306619Y-19043714D01*
X12306619Y-19043714D02*
X12297095Y-19024667D01*
X12297095Y-19024667D02*
X12278048Y-19015143D01*
X12278048Y-19015143D02*
X12249476Y-19015143D01*
X12249476Y-19015143D02*
X12230429Y-19024667D01*
X12230429Y-19024667D02*
X12220905Y-19034190D01*
X12430429Y-19148476D02*
X12411381Y-19138952D01*
X12411381Y-19138952D02*
X12401857Y-19129429D01*
X12401857Y-19129429D02*
X12392333Y-19110381D01*
X12392333Y-19110381D02*
X12392333Y-19053238D01*
X12392333Y-19053238D02*
X12401857Y-19034190D01*
X12401857Y-19034190D02*
X12411381Y-19024667D01*
X12411381Y-19024667D02*
X12430429Y-19015143D01*
X12430429Y-19015143D02*
X12459000Y-19015143D01*
X12459000Y-19015143D02*
X12478048Y-19024667D01*
X12478048Y-19024667D02*
X12487572Y-19034190D01*
X12487572Y-19034190D02*
X12497095Y-19053238D01*
X12497095Y-19053238D02*
X12497095Y-19110381D01*
X12497095Y-19110381D02*
X12487572Y-19129429D01*
X12487572Y-19129429D02*
X12478048Y-19138952D01*
X12478048Y-19138952D02*
X12459000Y-19148476D01*
X12459000Y-19148476D02*
X12430429Y-19148476D01*
X12611381Y-19148476D02*
X12592333Y-19138952D01*
X12592333Y-19138952D02*
X12582810Y-19119905D01*
X12582810Y-19119905D02*
X12582810Y-18948476D01*
X12763762Y-19138952D02*
X12744714Y-19148476D01*
X12744714Y-19148476D02*
X12706619Y-19148476D01*
X12706619Y-19148476D02*
X12687572Y-19138952D01*
X12687572Y-19138952D02*
X12678048Y-19119905D01*
X12678048Y-19119905D02*
X12678048Y-19043714D01*
X12678048Y-19043714D02*
X12687572Y-19024667D01*
X12687572Y-19024667D02*
X12706619Y-19015143D01*
X12706619Y-19015143D02*
X12744714Y-19015143D01*
X12744714Y-19015143D02*
X12763762Y-19024667D01*
X12763762Y-19024667D02*
X12773286Y-19043714D01*
X12773286Y-19043714D02*
X12773286Y-19062762D01*
X12773286Y-19062762D02*
X12678048Y-19081810D01*
X12849476Y-19138952D02*
X12868524Y-19148476D01*
X12868524Y-19148476D02*
X12906619Y-19148476D01*
X12906619Y-19148476D02*
X12925667Y-19138952D01*
X12925667Y-19138952D02*
X12935191Y-19119905D01*
X12935191Y-19119905D02*
X12935191Y-19110381D01*
X12935191Y-19110381D02*
X12925667Y-19091333D01*
X12925667Y-19091333D02*
X12906619Y-19081810D01*
X12906619Y-19081810D02*
X12878048Y-19081810D01*
X12878048Y-19081810D02*
X12859000Y-19072286D01*
X12859000Y-19072286D02*
X12849476Y-19053238D01*
X12849476Y-19053238D02*
X12849476Y-19043714D01*
X12849476Y-19043714D02*
X12859000Y-19024667D01*
X12859000Y-19024667D02*
X12878048Y-19015143D01*
X12878048Y-19015143D02*
X12906619Y-19015143D01*
X12906619Y-19015143D02*
X12925667Y-19024667D01*
X13001857Y-19224667D02*
X13011381Y-19215143D01*
X13011381Y-19215143D02*
X13030429Y-19186571D01*
X13030429Y-19186571D02*
X13039953Y-19167524D01*
X13039953Y-19167524D02*
X13049476Y-19138952D01*
X13049476Y-19138952D02*
X13059000Y-19091333D01*
X13059000Y-19091333D02*
X13059000Y-19053238D01*
X13059000Y-19053238D02*
X13049476Y-19005619D01*
X13049476Y-19005619D02*
X13039953Y-18977048D01*
X13039953Y-18977048D02*
X13030429Y-18958000D01*
X13030429Y-18958000D02*
X13011381Y-18929429D01*
X13011381Y-18929429D02*
X13001857Y-18919905D01*
D16*
X8165088Y-19372588D02*
X8165088Y-19305412D01*
X8097912Y-19305412D01*
X8097912Y-19372588D01*
X8165088Y-19372588D01*
D12*
X8464714Y-19212476D02*
X8483762Y-19212476D01*
X8483762Y-19212476D02*
X8502810Y-19222000D01*
X8502810Y-19222000D02*
X8512333Y-19231524D01*
X8512333Y-19231524D02*
X8521857Y-19250571D01*
X8521857Y-19250571D02*
X8531381Y-19288667D01*
X8531381Y-19288667D02*
X8531381Y-19336286D01*
X8531381Y-19336286D02*
X8521857Y-19374381D01*
X8521857Y-19374381D02*
X8512333Y-19393429D01*
X8512333Y-19393429D02*
X8502810Y-19402952D01*
X8502810Y-19402952D02*
X8483762Y-19412476D01*
X8483762Y-19412476D02*
X8464714Y-19412476D01*
X8464714Y-19412476D02*
X8445667Y-19402952D01*
X8445667Y-19402952D02*
X8436143Y-19393429D01*
X8436143Y-19393429D02*
X8426619Y-19374381D01*
X8426619Y-19374381D02*
X8417095Y-19336286D01*
X8417095Y-19336286D02*
X8417095Y-19288667D01*
X8417095Y-19288667D02*
X8426619Y-19250571D01*
X8426619Y-19250571D02*
X8436143Y-19231524D01*
X8436143Y-19231524D02*
X8445667Y-19222000D01*
X8445667Y-19222000D02*
X8464714Y-19212476D01*
X8617095Y-19393429D02*
X8626619Y-19402952D01*
X8626619Y-19402952D02*
X8617095Y-19412476D01*
X8617095Y-19412476D02*
X8607571Y-19402952D01*
X8607571Y-19402952D02*
X8617095Y-19393429D01*
X8617095Y-19393429D02*
X8617095Y-19412476D01*
X8721857Y-19412476D02*
X8759952Y-19412476D01*
X8759952Y-19412476D02*
X8779000Y-19402952D01*
X8779000Y-19402952D02*
X8788524Y-19393429D01*
X8788524Y-19393429D02*
X8807571Y-19364857D01*
X8807571Y-19364857D02*
X8817095Y-19326762D01*
X8817095Y-19326762D02*
X8817095Y-19250571D01*
X8817095Y-19250571D02*
X8807571Y-19231524D01*
X8807571Y-19231524D02*
X8798048Y-19222000D01*
X8798048Y-19222000D02*
X8779000Y-19212476D01*
X8779000Y-19212476D02*
X8740905Y-19212476D01*
X8740905Y-19212476D02*
X8721857Y-19222000D01*
X8721857Y-19222000D02*
X8712333Y-19231524D01*
X8712333Y-19231524D02*
X8702810Y-19250571D01*
X8702810Y-19250571D02*
X8702810Y-19298190D01*
X8702810Y-19298190D02*
X8712333Y-19317238D01*
X8712333Y-19317238D02*
X8721857Y-19326762D01*
X8721857Y-19326762D02*
X8740905Y-19336286D01*
X8740905Y-19336286D02*
X8779000Y-19336286D01*
X8779000Y-19336286D02*
X8798048Y-19326762D01*
X8798048Y-19326762D02*
X8807571Y-19317238D01*
X8807571Y-19317238D02*
X8817095Y-19298190D01*
X8998048Y-19212476D02*
X8902810Y-19212476D01*
X8902810Y-19212476D02*
X8893286Y-19307714D01*
X8893286Y-19307714D02*
X8902810Y-19298190D01*
X8902810Y-19298190D02*
X8921857Y-19288667D01*
X8921857Y-19288667D02*
X8969476Y-19288667D01*
X8969476Y-19288667D02*
X8988524Y-19298190D01*
X8988524Y-19298190D02*
X8998048Y-19307714D01*
X8998048Y-19307714D02*
X9007571Y-19326762D01*
X9007571Y-19326762D02*
X9007571Y-19374381D01*
X9007571Y-19374381D02*
X8998048Y-19393429D01*
X8998048Y-19393429D02*
X8988524Y-19402952D01*
X8988524Y-19402952D02*
X8969476Y-19412476D01*
X8969476Y-19412476D02*
X8921857Y-19412476D01*
X8921857Y-19412476D02*
X8902810Y-19402952D01*
X8902810Y-19402952D02*
X8893286Y-19393429D01*
X9131381Y-19212476D02*
X9150429Y-19212476D01*
X9150429Y-19212476D02*
X9169476Y-19222000D01*
X9169476Y-19222000D02*
X9179000Y-19231524D01*
X9179000Y-19231524D02*
X9188524Y-19250571D01*
X9188524Y-19250571D02*
X9198048Y-19288667D01*
X9198048Y-19288667D02*
X9198048Y-19336286D01*
X9198048Y-19336286D02*
X9188524Y-19374381D01*
X9188524Y-19374381D02*
X9179000Y-19393429D01*
X9179000Y-19393429D02*
X9169476Y-19402952D01*
X9169476Y-19402952D02*
X9150429Y-19412476D01*
X9150429Y-19412476D02*
X9131381Y-19412476D01*
X9131381Y-19412476D02*
X9112333Y-19402952D01*
X9112333Y-19402952D02*
X9102810Y-19393429D01*
X9102810Y-19393429D02*
X9093286Y-19374381D01*
X9093286Y-19374381D02*
X9083762Y-19336286D01*
X9083762Y-19336286D02*
X9083762Y-19288667D01*
X9083762Y-19288667D02*
X9093286Y-19250571D01*
X9093286Y-19250571D02*
X9102810Y-19231524D01*
X9102810Y-19231524D02*
X9112333Y-19222000D01*
X9112333Y-19222000D02*
X9131381Y-19212476D01*
X9283762Y-19412476D02*
X9283762Y-19279143D01*
X9283762Y-19298190D02*
X9293286Y-19288667D01*
X9293286Y-19288667D02*
X9312333Y-19279143D01*
X9312333Y-19279143D02*
X9340905Y-19279143D01*
X9340905Y-19279143D02*
X9359952Y-19288667D01*
X9359952Y-19288667D02*
X9369476Y-19307714D01*
X9369476Y-19307714D02*
X9369476Y-19412476D01*
X9369476Y-19307714D02*
X9379000Y-19288667D01*
X9379000Y-19288667D02*
X9398048Y-19279143D01*
X9398048Y-19279143D02*
X9426619Y-19279143D01*
X9426619Y-19279143D02*
X9445667Y-19288667D01*
X9445667Y-19288667D02*
X9455191Y-19307714D01*
X9455191Y-19307714D02*
X9455191Y-19412476D01*
X9550429Y-19412476D02*
X9550429Y-19279143D01*
X9550429Y-19298190D02*
X9559952Y-19288667D01*
X9559952Y-19288667D02*
X9579000Y-19279143D01*
X9579000Y-19279143D02*
X9607572Y-19279143D01*
X9607572Y-19279143D02*
X9626619Y-19288667D01*
X9626619Y-19288667D02*
X9636143Y-19307714D01*
X9636143Y-19307714D02*
X9636143Y-19412476D01*
X9636143Y-19307714D02*
X9645667Y-19288667D01*
X9645667Y-19288667D02*
X9664714Y-19279143D01*
X9664714Y-19279143D02*
X9693286Y-19279143D01*
X9693286Y-19279143D02*
X9712333Y-19288667D01*
X9712333Y-19288667D02*
X9721857Y-19307714D01*
X9721857Y-19307714D02*
X9721857Y-19412476D01*
X10079952Y-19202952D02*
X9908524Y-19460095D01*
X10304714Y-19212476D02*
X10323762Y-19212476D01*
X10323762Y-19212476D02*
X10342810Y-19222000D01*
X10342810Y-19222000D02*
X10352333Y-19231524D01*
X10352333Y-19231524D02*
X10361857Y-19250571D01*
X10361857Y-19250571D02*
X10371381Y-19288667D01*
X10371381Y-19288667D02*
X10371381Y-19336286D01*
X10371381Y-19336286D02*
X10361857Y-19374381D01*
X10361857Y-19374381D02*
X10352333Y-19393429D01*
X10352333Y-19393429D02*
X10342810Y-19402952D01*
X10342810Y-19402952D02*
X10323762Y-19412476D01*
X10323762Y-19412476D02*
X10304714Y-19412476D01*
X10304714Y-19412476D02*
X10285667Y-19402952D01*
X10285667Y-19402952D02*
X10276143Y-19393429D01*
X10276143Y-19393429D02*
X10266619Y-19374381D01*
X10266619Y-19374381D02*
X10257095Y-19336286D01*
X10257095Y-19336286D02*
X10257095Y-19288667D01*
X10257095Y-19288667D02*
X10266619Y-19250571D01*
X10266619Y-19250571D02*
X10276143Y-19231524D01*
X10276143Y-19231524D02*
X10285667Y-19222000D01*
X10285667Y-19222000D02*
X10304714Y-19212476D01*
X10457095Y-19393429D02*
X10466619Y-19402952D01*
X10466619Y-19402952D02*
X10457095Y-19412476D01*
X10457095Y-19412476D02*
X10447572Y-19402952D01*
X10447572Y-19402952D02*
X10457095Y-19393429D01*
X10457095Y-19393429D02*
X10457095Y-19412476D01*
X10590429Y-19212476D02*
X10609476Y-19212476D01*
X10609476Y-19212476D02*
X10628524Y-19222000D01*
X10628524Y-19222000D02*
X10638048Y-19231524D01*
X10638048Y-19231524D02*
X10647572Y-19250571D01*
X10647572Y-19250571D02*
X10657095Y-19288667D01*
X10657095Y-19288667D02*
X10657095Y-19336286D01*
X10657095Y-19336286D02*
X10647572Y-19374381D01*
X10647572Y-19374381D02*
X10638048Y-19393429D01*
X10638048Y-19393429D02*
X10628524Y-19402952D01*
X10628524Y-19402952D02*
X10609476Y-19412476D01*
X10609476Y-19412476D02*
X10590429Y-19412476D01*
X10590429Y-19412476D02*
X10571381Y-19402952D01*
X10571381Y-19402952D02*
X10561857Y-19393429D01*
X10561857Y-19393429D02*
X10552333Y-19374381D01*
X10552333Y-19374381D02*
X10542810Y-19336286D01*
X10542810Y-19336286D02*
X10542810Y-19288667D01*
X10542810Y-19288667D02*
X10552333Y-19250571D01*
X10552333Y-19250571D02*
X10561857Y-19231524D01*
X10561857Y-19231524D02*
X10571381Y-19222000D01*
X10571381Y-19222000D02*
X10590429Y-19212476D01*
X10723762Y-19212476D02*
X10847572Y-19212476D01*
X10847572Y-19212476D02*
X10780905Y-19288667D01*
X10780905Y-19288667D02*
X10809476Y-19288667D01*
X10809476Y-19288667D02*
X10828524Y-19298190D01*
X10828524Y-19298190D02*
X10838048Y-19307714D01*
X10838048Y-19307714D02*
X10847572Y-19326762D01*
X10847572Y-19326762D02*
X10847572Y-19374381D01*
X10847572Y-19374381D02*
X10838048Y-19393429D01*
X10838048Y-19393429D02*
X10828524Y-19402952D01*
X10828524Y-19402952D02*
X10809476Y-19412476D01*
X10809476Y-19412476D02*
X10752333Y-19412476D01*
X10752333Y-19412476D02*
X10733286Y-19402952D01*
X10733286Y-19402952D02*
X10723762Y-19393429D01*
X10914238Y-19212476D02*
X11047572Y-19212476D01*
X11047572Y-19212476D02*
X10961857Y-19412476D01*
X11209476Y-19279143D02*
X11209476Y-19412476D01*
X11161857Y-19202952D02*
X11114238Y-19345810D01*
X11114238Y-19345810D02*
X11238048Y-19345810D01*
X11304714Y-19212476D02*
X11304714Y-19250571D01*
X11380905Y-19212476D02*
X11380905Y-19250571D01*
X11643762Y-19488667D02*
X11634238Y-19479143D01*
X11634238Y-19479143D02*
X11615191Y-19450571D01*
X11615191Y-19450571D02*
X11605667Y-19431524D01*
X11605667Y-19431524D02*
X11596143Y-19402952D01*
X11596143Y-19402952D02*
X11586619Y-19355333D01*
X11586619Y-19355333D02*
X11586619Y-19317238D01*
X11586619Y-19317238D02*
X11596143Y-19269619D01*
X11596143Y-19269619D02*
X11605667Y-19241048D01*
X11605667Y-19241048D02*
X11615191Y-19222000D01*
X11615191Y-19222000D02*
X11634238Y-19193429D01*
X11634238Y-19193429D02*
X11643762Y-19183905D01*
X11700905Y-19212476D02*
X11824714Y-19212476D01*
X11824714Y-19212476D02*
X11758048Y-19288667D01*
X11758048Y-19288667D02*
X11786619Y-19288667D01*
X11786619Y-19288667D02*
X11805667Y-19298190D01*
X11805667Y-19298190D02*
X11815191Y-19307714D01*
X11815191Y-19307714D02*
X11824714Y-19326762D01*
X11824714Y-19326762D02*
X11824714Y-19374381D01*
X11824714Y-19374381D02*
X11815191Y-19393429D01*
X11815191Y-19393429D02*
X11805667Y-19402952D01*
X11805667Y-19402952D02*
X11786619Y-19412476D01*
X11786619Y-19412476D02*
X11729476Y-19412476D01*
X11729476Y-19412476D02*
X11710429Y-19402952D01*
X11710429Y-19402952D02*
X11700905Y-19393429D01*
X12030429Y-19412476D02*
X12030429Y-19212476D01*
X12116143Y-19412476D02*
X12116143Y-19307714D01*
X12116143Y-19307714D02*
X12106619Y-19288667D01*
X12106619Y-19288667D02*
X12087572Y-19279143D01*
X12087572Y-19279143D02*
X12059000Y-19279143D01*
X12059000Y-19279143D02*
X12039952Y-19288667D01*
X12039952Y-19288667D02*
X12030429Y-19298190D01*
X12239952Y-19412476D02*
X12220905Y-19402952D01*
X12220905Y-19402952D02*
X12211381Y-19393429D01*
X12211381Y-19393429D02*
X12201857Y-19374381D01*
X12201857Y-19374381D02*
X12201857Y-19317238D01*
X12201857Y-19317238D02*
X12211381Y-19298190D01*
X12211381Y-19298190D02*
X12220905Y-19288667D01*
X12220905Y-19288667D02*
X12239952Y-19279143D01*
X12239952Y-19279143D02*
X12268524Y-19279143D01*
X12268524Y-19279143D02*
X12287572Y-19288667D01*
X12287572Y-19288667D02*
X12297095Y-19298190D01*
X12297095Y-19298190D02*
X12306619Y-19317238D01*
X12306619Y-19317238D02*
X12306619Y-19374381D01*
X12306619Y-19374381D02*
X12297095Y-19393429D01*
X12297095Y-19393429D02*
X12287572Y-19402952D01*
X12287572Y-19402952D02*
X12268524Y-19412476D01*
X12268524Y-19412476D02*
X12239952Y-19412476D01*
X12420905Y-19412476D02*
X12401857Y-19402952D01*
X12401857Y-19402952D02*
X12392333Y-19383905D01*
X12392333Y-19383905D02*
X12392333Y-19212476D01*
X12573286Y-19402952D02*
X12554238Y-19412476D01*
X12554238Y-19412476D02*
X12516143Y-19412476D01*
X12516143Y-19412476D02*
X12497095Y-19402952D01*
X12497095Y-19402952D02*
X12487572Y-19383905D01*
X12487572Y-19383905D02*
X12487572Y-19307714D01*
X12487572Y-19307714D02*
X12497095Y-19288667D01*
X12497095Y-19288667D02*
X12516143Y-19279143D01*
X12516143Y-19279143D02*
X12554238Y-19279143D01*
X12554238Y-19279143D02*
X12573286Y-19288667D01*
X12573286Y-19288667D02*
X12582810Y-19307714D01*
X12582810Y-19307714D02*
X12582810Y-19326762D01*
X12582810Y-19326762D02*
X12487572Y-19345810D01*
X12659000Y-19402952D02*
X12678048Y-19412476D01*
X12678048Y-19412476D02*
X12716143Y-19412476D01*
X12716143Y-19412476D02*
X12735191Y-19402952D01*
X12735191Y-19402952D02*
X12744714Y-19383905D01*
X12744714Y-19383905D02*
X12744714Y-19374381D01*
X12744714Y-19374381D02*
X12735191Y-19355333D01*
X12735191Y-19355333D02*
X12716143Y-19345810D01*
X12716143Y-19345810D02*
X12687572Y-19345810D01*
X12687572Y-19345810D02*
X12668524Y-19336286D01*
X12668524Y-19336286D02*
X12659000Y-19317238D01*
X12659000Y-19317238D02*
X12659000Y-19307714D01*
X12659000Y-19307714D02*
X12668524Y-19288667D01*
X12668524Y-19288667D02*
X12687572Y-19279143D01*
X12687572Y-19279143D02*
X12716143Y-19279143D01*
X12716143Y-19279143D02*
X12735191Y-19288667D01*
X12811381Y-19488667D02*
X12820905Y-19479143D01*
X12820905Y-19479143D02*
X12839953Y-19450571D01*
X12839953Y-19450571D02*
X12849476Y-19431524D01*
X12849476Y-19431524D02*
X12859000Y-19402952D01*
X12859000Y-19402952D02*
X12868524Y-19355333D01*
X12868524Y-19355333D02*
X12868524Y-19317238D01*
X12868524Y-19317238D02*
X12859000Y-19269619D01*
X12859000Y-19269619D02*
X12849476Y-19241048D01*
X12849476Y-19241048D02*
X12839953Y-19222000D01*
X12839953Y-19222000D02*
X12820905Y-19193429D01*
X12820905Y-19193429D02*
X12811381Y-19183905D01*
D10*
X8129000Y-19653000D02*
X8179000Y-19603000D01*
X8129000Y-19553000D01*
X8079000Y-19603000D01*
X8129000Y-19653000D01*
D12*
X8531381Y-19676476D02*
X8417095Y-19676476D01*
X8474238Y-19676476D02*
X8474238Y-19476476D01*
X8474238Y-19476476D02*
X8455190Y-19505048D01*
X8455190Y-19505048D02*
X8436143Y-19524095D01*
X8436143Y-19524095D02*
X8417095Y-19533619D01*
X8617095Y-19657429D02*
X8626619Y-19666952D01*
X8626619Y-19666952D02*
X8617095Y-19676476D01*
X8617095Y-19676476D02*
X8607571Y-19666952D01*
X8607571Y-19666952D02*
X8617095Y-19657429D01*
X8617095Y-19657429D02*
X8617095Y-19676476D01*
X8750429Y-19476476D02*
X8769476Y-19476476D01*
X8769476Y-19476476D02*
X8788524Y-19486000D01*
X8788524Y-19486000D02*
X8798048Y-19495524D01*
X8798048Y-19495524D02*
X8807571Y-19514571D01*
X8807571Y-19514571D02*
X8817095Y-19552667D01*
X8817095Y-19552667D02*
X8817095Y-19600286D01*
X8817095Y-19600286D02*
X8807571Y-19638381D01*
X8807571Y-19638381D02*
X8798048Y-19657429D01*
X8798048Y-19657429D02*
X8788524Y-19666952D01*
X8788524Y-19666952D02*
X8769476Y-19676476D01*
X8769476Y-19676476D02*
X8750429Y-19676476D01*
X8750429Y-19676476D02*
X8731381Y-19666952D01*
X8731381Y-19666952D02*
X8721857Y-19657429D01*
X8721857Y-19657429D02*
X8712333Y-19638381D01*
X8712333Y-19638381D02*
X8702810Y-19600286D01*
X8702810Y-19600286D02*
X8702810Y-19552667D01*
X8702810Y-19552667D02*
X8712333Y-19514571D01*
X8712333Y-19514571D02*
X8721857Y-19495524D01*
X8721857Y-19495524D02*
X8731381Y-19486000D01*
X8731381Y-19486000D02*
X8750429Y-19476476D01*
X8940905Y-19476476D02*
X8959952Y-19476476D01*
X8959952Y-19476476D02*
X8979000Y-19486000D01*
X8979000Y-19486000D02*
X8988524Y-19495524D01*
X8988524Y-19495524D02*
X8998048Y-19514571D01*
X8998048Y-19514571D02*
X9007571Y-19552667D01*
X9007571Y-19552667D02*
X9007571Y-19600286D01*
X9007571Y-19600286D02*
X8998048Y-19638381D01*
X8998048Y-19638381D02*
X8988524Y-19657429D01*
X8988524Y-19657429D02*
X8979000Y-19666952D01*
X8979000Y-19666952D02*
X8959952Y-19676476D01*
X8959952Y-19676476D02*
X8940905Y-19676476D01*
X8940905Y-19676476D02*
X8921857Y-19666952D01*
X8921857Y-19666952D02*
X8912333Y-19657429D01*
X8912333Y-19657429D02*
X8902810Y-19638381D01*
X8902810Y-19638381D02*
X8893286Y-19600286D01*
X8893286Y-19600286D02*
X8893286Y-19552667D01*
X8893286Y-19552667D02*
X8902810Y-19514571D01*
X8902810Y-19514571D02*
X8912333Y-19495524D01*
X8912333Y-19495524D02*
X8921857Y-19486000D01*
X8921857Y-19486000D02*
X8940905Y-19476476D01*
X9131381Y-19476476D02*
X9150429Y-19476476D01*
X9150429Y-19476476D02*
X9169476Y-19486000D01*
X9169476Y-19486000D02*
X9179000Y-19495524D01*
X9179000Y-19495524D02*
X9188524Y-19514571D01*
X9188524Y-19514571D02*
X9198048Y-19552667D01*
X9198048Y-19552667D02*
X9198048Y-19600286D01*
X9198048Y-19600286D02*
X9188524Y-19638381D01*
X9188524Y-19638381D02*
X9179000Y-19657429D01*
X9179000Y-19657429D02*
X9169476Y-19666952D01*
X9169476Y-19666952D02*
X9150429Y-19676476D01*
X9150429Y-19676476D02*
X9131381Y-19676476D01*
X9131381Y-19676476D02*
X9112333Y-19666952D01*
X9112333Y-19666952D02*
X9102810Y-19657429D01*
X9102810Y-19657429D02*
X9093286Y-19638381D01*
X9093286Y-19638381D02*
X9083762Y-19600286D01*
X9083762Y-19600286D02*
X9083762Y-19552667D01*
X9083762Y-19552667D02*
X9093286Y-19514571D01*
X9093286Y-19514571D02*
X9102810Y-19495524D01*
X9102810Y-19495524D02*
X9112333Y-19486000D01*
X9112333Y-19486000D02*
X9131381Y-19476476D01*
X9283762Y-19676476D02*
X9283762Y-19543143D01*
X9283762Y-19562190D02*
X9293286Y-19552667D01*
X9293286Y-19552667D02*
X9312333Y-19543143D01*
X9312333Y-19543143D02*
X9340905Y-19543143D01*
X9340905Y-19543143D02*
X9359952Y-19552667D01*
X9359952Y-19552667D02*
X9369476Y-19571714D01*
X9369476Y-19571714D02*
X9369476Y-19676476D01*
X9369476Y-19571714D02*
X9379000Y-19552667D01*
X9379000Y-19552667D02*
X9398048Y-19543143D01*
X9398048Y-19543143D02*
X9426619Y-19543143D01*
X9426619Y-19543143D02*
X9445667Y-19552667D01*
X9445667Y-19552667D02*
X9455191Y-19571714D01*
X9455191Y-19571714D02*
X9455191Y-19676476D01*
X9550429Y-19676476D02*
X9550429Y-19543143D01*
X9550429Y-19562190D02*
X9559952Y-19552667D01*
X9559952Y-19552667D02*
X9579000Y-19543143D01*
X9579000Y-19543143D02*
X9607572Y-19543143D01*
X9607572Y-19543143D02*
X9626619Y-19552667D01*
X9626619Y-19552667D02*
X9636143Y-19571714D01*
X9636143Y-19571714D02*
X9636143Y-19676476D01*
X9636143Y-19571714D02*
X9645667Y-19552667D01*
X9645667Y-19552667D02*
X9664714Y-19543143D01*
X9664714Y-19543143D02*
X9693286Y-19543143D01*
X9693286Y-19543143D02*
X9712333Y-19552667D01*
X9712333Y-19552667D02*
X9721857Y-19571714D01*
X9721857Y-19571714D02*
X9721857Y-19676476D01*
X10079952Y-19466952D02*
X9908524Y-19724095D01*
X10304714Y-19476476D02*
X10323762Y-19476476D01*
X10323762Y-19476476D02*
X10342810Y-19486000D01*
X10342810Y-19486000D02*
X10352333Y-19495524D01*
X10352333Y-19495524D02*
X10361857Y-19514571D01*
X10361857Y-19514571D02*
X10371381Y-19552667D01*
X10371381Y-19552667D02*
X10371381Y-19600286D01*
X10371381Y-19600286D02*
X10361857Y-19638381D01*
X10361857Y-19638381D02*
X10352333Y-19657429D01*
X10352333Y-19657429D02*
X10342810Y-19666952D01*
X10342810Y-19666952D02*
X10323762Y-19676476D01*
X10323762Y-19676476D02*
X10304714Y-19676476D01*
X10304714Y-19676476D02*
X10285667Y-19666952D01*
X10285667Y-19666952D02*
X10276143Y-19657429D01*
X10276143Y-19657429D02*
X10266619Y-19638381D01*
X10266619Y-19638381D02*
X10257095Y-19600286D01*
X10257095Y-19600286D02*
X10257095Y-19552667D01*
X10257095Y-19552667D02*
X10266619Y-19514571D01*
X10266619Y-19514571D02*
X10276143Y-19495524D01*
X10276143Y-19495524D02*
X10285667Y-19486000D01*
X10285667Y-19486000D02*
X10304714Y-19476476D01*
X10457095Y-19657429D02*
X10466619Y-19666952D01*
X10466619Y-19666952D02*
X10457095Y-19676476D01*
X10457095Y-19676476D02*
X10447572Y-19666952D01*
X10447572Y-19666952D02*
X10457095Y-19657429D01*
X10457095Y-19657429D02*
X10457095Y-19676476D01*
X10590429Y-19476476D02*
X10609476Y-19476476D01*
X10609476Y-19476476D02*
X10628524Y-19486000D01*
X10628524Y-19486000D02*
X10638048Y-19495524D01*
X10638048Y-19495524D02*
X10647572Y-19514571D01*
X10647572Y-19514571D02*
X10657095Y-19552667D01*
X10657095Y-19552667D02*
X10657095Y-19600286D01*
X10657095Y-19600286D02*
X10647572Y-19638381D01*
X10647572Y-19638381D02*
X10638048Y-19657429D01*
X10638048Y-19657429D02*
X10628524Y-19666952D01*
X10628524Y-19666952D02*
X10609476Y-19676476D01*
X10609476Y-19676476D02*
X10590429Y-19676476D01*
X10590429Y-19676476D02*
X10571381Y-19666952D01*
X10571381Y-19666952D02*
X10561857Y-19657429D01*
X10561857Y-19657429D02*
X10552333Y-19638381D01*
X10552333Y-19638381D02*
X10542810Y-19600286D01*
X10542810Y-19600286D02*
X10542810Y-19552667D01*
X10542810Y-19552667D02*
X10552333Y-19514571D01*
X10552333Y-19514571D02*
X10561857Y-19495524D01*
X10561857Y-19495524D02*
X10571381Y-19486000D01*
X10571381Y-19486000D02*
X10590429Y-19476476D01*
X10723762Y-19476476D02*
X10847572Y-19476476D01*
X10847572Y-19476476D02*
X10780905Y-19552667D01*
X10780905Y-19552667D02*
X10809476Y-19552667D01*
X10809476Y-19552667D02*
X10828524Y-19562190D01*
X10828524Y-19562190D02*
X10838048Y-19571714D01*
X10838048Y-19571714D02*
X10847572Y-19590762D01*
X10847572Y-19590762D02*
X10847572Y-19638381D01*
X10847572Y-19638381D02*
X10838048Y-19657429D01*
X10838048Y-19657429D02*
X10828524Y-19666952D01*
X10828524Y-19666952D02*
X10809476Y-19676476D01*
X10809476Y-19676476D02*
X10752333Y-19676476D01*
X10752333Y-19676476D02*
X10733286Y-19666952D01*
X10733286Y-19666952D02*
X10723762Y-19657429D01*
X10942810Y-19676476D02*
X10980905Y-19676476D01*
X10980905Y-19676476D02*
X10999953Y-19666952D01*
X10999953Y-19666952D02*
X11009476Y-19657429D01*
X11009476Y-19657429D02*
X11028524Y-19628857D01*
X11028524Y-19628857D02*
X11038048Y-19590762D01*
X11038048Y-19590762D02*
X11038048Y-19514571D01*
X11038048Y-19514571D02*
X11028524Y-19495524D01*
X11028524Y-19495524D02*
X11019000Y-19486000D01*
X11019000Y-19486000D02*
X10999953Y-19476476D01*
X10999953Y-19476476D02*
X10961857Y-19476476D01*
X10961857Y-19476476D02*
X10942810Y-19486000D01*
X10942810Y-19486000D02*
X10933286Y-19495524D01*
X10933286Y-19495524D02*
X10923762Y-19514571D01*
X10923762Y-19514571D02*
X10923762Y-19562190D01*
X10923762Y-19562190D02*
X10933286Y-19581238D01*
X10933286Y-19581238D02*
X10942810Y-19590762D01*
X10942810Y-19590762D02*
X10961857Y-19600286D01*
X10961857Y-19600286D02*
X10999953Y-19600286D01*
X10999953Y-19600286D02*
X11019000Y-19590762D01*
X11019000Y-19590762D02*
X11028524Y-19581238D01*
X11028524Y-19581238D02*
X11038048Y-19562190D01*
X11209476Y-19543143D02*
X11209476Y-19676476D01*
X11161857Y-19466952D02*
X11114238Y-19609810D01*
X11114238Y-19609810D02*
X11238048Y-19609810D01*
X11304714Y-19476476D02*
X11304714Y-19514571D01*
X11380905Y-19476476D02*
X11380905Y-19514571D01*
X11643762Y-19752667D02*
X11634238Y-19743143D01*
X11634238Y-19743143D02*
X11615191Y-19714571D01*
X11615191Y-19714571D02*
X11605667Y-19695524D01*
X11605667Y-19695524D02*
X11596143Y-19666952D01*
X11596143Y-19666952D02*
X11586619Y-19619333D01*
X11586619Y-19619333D02*
X11586619Y-19581238D01*
X11586619Y-19581238D02*
X11596143Y-19533619D01*
X11596143Y-19533619D02*
X11605667Y-19505048D01*
X11605667Y-19505048D02*
X11615191Y-19486000D01*
X11615191Y-19486000D02*
X11634238Y-19457429D01*
X11634238Y-19457429D02*
X11643762Y-19447905D01*
X11710429Y-19495524D02*
X11719952Y-19486000D01*
X11719952Y-19486000D02*
X11739000Y-19476476D01*
X11739000Y-19476476D02*
X11786619Y-19476476D01*
X11786619Y-19476476D02*
X11805667Y-19486000D01*
X11805667Y-19486000D02*
X11815191Y-19495524D01*
X11815191Y-19495524D02*
X11824714Y-19514571D01*
X11824714Y-19514571D02*
X11824714Y-19533619D01*
X11824714Y-19533619D02*
X11815191Y-19562190D01*
X11815191Y-19562190D02*
X11700905Y-19676476D01*
X11700905Y-19676476D02*
X11824714Y-19676476D01*
X12030429Y-19676476D02*
X12030429Y-19476476D01*
X12116143Y-19676476D02*
X12116143Y-19571714D01*
X12116143Y-19571714D02*
X12106619Y-19552667D01*
X12106619Y-19552667D02*
X12087572Y-19543143D01*
X12087572Y-19543143D02*
X12059000Y-19543143D01*
X12059000Y-19543143D02*
X12039952Y-19552667D01*
X12039952Y-19552667D02*
X12030429Y-19562190D01*
X12239952Y-19676476D02*
X12220905Y-19666952D01*
X12220905Y-19666952D02*
X12211381Y-19657429D01*
X12211381Y-19657429D02*
X12201857Y-19638381D01*
X12201857Y-19638381D02*
X12201857Y-19581238D01*
X12201857Y-19581238D02*
X12211381Y-19562190D01*
X12211381Y-19562190D02*
X12220905Y-19552667D01*
X12220905Y-19552667D02*
X12239952Y-19543143D01*
X12239952Y-19543143D02*
X12268524Y-19543143D01*
X12268524Y-19543143D02*
X12287572Y-19552667D01*
X12287572Y-19552667D02*
X12297095Y-19562190D01*
X12297095Y-19562190D02*
X12306619Y-19581238D01*
X12306619Y-19581238D02*
X12306619Y-19638381D01*
X12306619Y-19638381D02*
X12297095Y-19657429D01*
X12297095Y-19657429D02*
X12287572Y-19666952D01*
X12287572Y-19666952D02*
X12268524Y-19676476D01*
X12268524Y-19676476D02*
X12239952Y-19676476D01*
X12420905Y-19676476D02*
X12401857Y-19666952D01*
X12401857Y-19666952D02*
X12392333Y-19647905D01*
X12392333Y-19647905D02*
X12392333Y-19476476D01*
X12573286Y-19666952D02*
X12554238Y-19676476D01*
X12554238Y-19676476D02*
X12516143Y-19676476D01*
X12516143Y-19676476D02*
X12497095Y-19666952D01*
X12497095Y-19666952D02*
X12487572Y-19647905D01*
X12487572Y-19647905D02*
X12487572Y-19571714D01*
X12487572Y-19571714D02*
X12497095Y-19552667D01*
X12497095Y-19552667D02*
X12516143Y-19543143D01*
X12516143Y-19543143D02*
X12554238Y-19543143D01*
X12554238Y-19543143D02*
X12573286Y-19552667D01*
X12573286Y-19552667D02*
X12582810Y-19571714D01*
X12582810Y-19571714D02*
X12582810Y-19590762D01*
X12582810Y-19590762D02*
X12487572Y-19609810D01*
X12659000Y-19666952D02*
X12678048Y-19676476D01*
X12678048Y-19676476D02*
X12716143Y-19676476D01*
X12716143Y-19676476D02*
X12735191Y-19666952D01*
X12735191Y-19666952D02*
X12744714Y-19647905D01*
X12744714Y-19647905D02*
X12744714Y-19638381D01*
X12744714Y-19638381D02*
X12735191Y-19619333D01*
X12735191Y-19619333D02*
X12716143Y-19609810D01*
X12716143Y-19609810D02*
X12687572Y-19609810D01*
X12687572Y-19609810D02*
X12668524Y-19600286D01*
X12668524Y-19600286D02*
X12659000Y-19581238D01*
X12659000Y-19581238D02*
X12659000Y-19571714D01*
X12659000Y-19571714D02*
X12668524Y-19552667D01*
X12668524Y-19552667D02*
X12687572Y-19543143D01*
X12687572Y-19543143D02*
X12716143Y-19543143D01*
X12716143Y-19543143D02*
X12735191Y-19552667D01*
X12811381Y-19752667D02*
X12820905Y-19743143D01*
X12820905Y-19743143D02*
X12839953Y-19714571D01*
X12839953Y-19714571D02*
X12849476Y-19695524D01*
X12849476Y-19695524D02*
X12859000Y-19666952D01*
X12859000Y-19666952D02*
X12868524Y-19619333D01*
X12868524Y-19619333D02*
X12868524Y-19581238D01*
X12868524Y-19581238D02*
X12859000Y-19533619D01*
X12859000Y-19533619D02*
X12849476Y-19505048D01*
X12849476Y-19505048D02*
X12839953Y-19486000D01*
X12839953Y-19486000D02*
X12820905Y-19457429D01*
X12820905Y-19457429D02*
X12811381Y-19447905D01*
M02*
