M48
; DRILL file {KiCad (7.0.0)} date Thu Feb 16 22:34:49 2023
; FORMAT={-:-/ absolute / inch / decimal}
; #@! TF.CreationDate,2023-02-16T22:34:49-06:00
; #@! TF.GenerationSoftware,Kicad,Pcbnew,(7.0.0)
; #@! TF.FileFunction,Plated,1,2,PTH
FMAT,2
INCH
; #@! TA.AperFunction,Plated,PTH,ViaDrill
T1C0.0157
; #@! TA.AperFunction,Plated,PTH,ComponentDrill
T2C0.0295
; #@! TA.AperFunction,Plated,PTH,ComponentDrill
T3C0.0315
; #@! TA.AperFunction,Plated,PTH,ComponentDrill
T4C0.0374
; #@! TA.AperFunction,Plated,PTH,ComponentDrill
T5C0.0394
%
G90
G05
T1
X3.4245Y-4.6331
X3.7258Y-5.181
X3.7445Y-3.9736
X3.8006Y-4.0263
X3.8029Y-3.9565
X3.8152Y-4.2772
X3.8165Y-4.2372
X3.8258Y-5.5808
X3.8489Y-4.5004
X3.8661Y-5.2271
X3.875Y-5.7769
X3.8936Y-5.2607
X3.8964Y-5.3024
X3.9036Y-3.8571
X3.9306Y-5.767
X3.9517Y-6.306
X3.9578Y-5.5354
X3.9792Y-4.9625
X3.9981Y-5.5336
X3.9989Y-4.5289
X3.9991Y-5.0277
X4.0008Y-5.3316
X4.0024Y-3.8565
X4.0655Y-6.3764
X4.0976Y-6.2055
X4.1128Y-5.3148
X4.1167Y-5.8064
X4.1258Y-6.1368
X4.1373Y-6.2032
X4.1483Y-4.7634
X4.1768Y-4.8073
X4.1883Y-5.3434
X4.217Y-3.9016
X4.2261Y-4.0535
X4.2338Y-4.3375
X4.2338Y-5.3394
X4.243Y-3.9765
X4.2441Y-4.0158
X4.2618Y-5.0076
X4.2647Y-4.1638
X4.3011Y-6.4812
X4.3031Y-5.6124
X4.3052Y-6.1578
X4.311Y-4.6102
X4.3156Y-5.3389
X4.3254Y-4.1835
X4.3665Y-4.1675
X4.3668Y-4.8659
X4.3728Y-5.2829
X4.3907Y-4.3
X4.4077Y-5.0084
X4.4172Y-5.8804
X4.4234Y-5.3381
X4.441Y-5.9127
X4.4426Y-4.7221
X4.4562Y-5.3956
X4.4898Y-6.0413
X4.5157Y-4.0834
X4.5268Y-4.6377
X4.5421Y-5.9139
X4.5422Y-5.7669
X4.5496Y-5.456
X4.5537Y-5.4118
X4.5574Y-5.3547
X4.5608Y-6.3297
X4.5635Y-5.2577
X4.5723Y-4.9083
X4.5768Y-5.813
X4.596Y-5.5023
X4.6139Y-4.0995
X4.6231Y-4.3505
X4.6254Y-5.7589
X4.6397Y-4.7133
X4.6447Y-5.4682
X4.6565Y-4.2568
X4.6837Y-4.4626
X4.688Y-4.1529
X4.6921Y-5.3093
X4.7207Y-5.2252
X4.7275Y-4.7601
X4.7474Y-4.6979
X4.7575Y-4.4181
X4.7594Y-4.5884
X4.7773Y-4.5328
X4.8041Y-6.1753
X4.8162Y-3.9937
X4.8205Y-3.8567
X4.8625Y-4.2031
X4.8766Y-5.6214
X4.8776Y-5.9502
X4.8795Y-3.9288
X4.9553Y-5.615
X4.9781Y-4.8275
X5.0077Y-4.2018
X5.0309Y-5.747
X5.0486Y-4.8368
X5.0546Y-5.623
X5.0712Y-5.7442
X5.0966Y-6.6331
X5.0969Y-4.663
X5.0974Y-4.0952
X5.1027Y-5.5934
X5.1064Y-5.7221
X5.1367Y-4.2227
X5.1501Y-4.1636
X5.1524Y-5.701
X5.2377Y-4.9402
X5.2956Y-4.2224
X5.2965Y-4.8823
X5.2969Y-5.7498
X5.3028Y-4.9394
X5.3335Y-4.8379
X5.3411Y-4.2224
X5.3434Y-4.8987
X5.3676Y-4.6621
X5.3797Y-4.8702
X5.4419Y-5.593
X5.4496Y-5.0528
X5.4542Y-4.976
X5.4553Y-5.113
X5.475Y-5.7565
X5.5016Y-4.9692
X5.5281Y-5.0737
X5.5391Y-4.9884
X5.5415Y-5.7505
X5.5427Y-4.8383
X5.5612Y-4.8818
X5.5677Y-5.1469
X5.5711Y-5.786
X5.5959Y-6.509
X5.6303Y-5.1476
X5.6444Y-4.9807
X5.6688Y-5.3276
X5.686Y-6.5224
X5.6923Y-5.7501
X5.7762Y-5.0373
X5.7917Y-5.1276
X5.9311Y-5.5247
X5.9397Y-5.379
X5.9963Y-5.409
X6.0515Y-5.842
X6.0736Y-5.7849
X6.3264Y-6.0515
T2
X3.3425Y-3.6516
X3.3425Y-3.8091
X3.3819Y-3.5728
X3.3819Y-3.7303
X3.4213Y-3.6516
X3.4213Y-3.8091
X3.4606Y-3.5728
X3.4606Y-3.7303
X3.5Y-3.6516
X3.5Y-3.8091
X3.5394Y-3.5728
X3.5394Y-3.7303
X3.5787Y-3.6516
X3.5787Y-3.8091
X3.6181Y-3.5728
X3.6181Y-3.7303
X3.6575Y-3.6516
X3.6575Y-3.8091
X3.6969Y-3.5728
X3.6969Y-3.7303
X3.7362Y-3.6516
X3.7362Y-3.8091
X3.7756Y-3.5728
X3.7756Y-3.7303
X3.815Y-3.6516
X3.815Y-3.8091
X3.8543Y-3.5728
X3.8543Y-3.7303
X3.8937Y-3.6516
X3.8937Y-3.8091
X3.9331Y-3.5728
X3.9331Y-3.7303
X3.9724Y-3.6516
X3.9724Y-3.8091
X4.0118Y-3.5728
X4.0118Y-3.7303
X4.0512Y-3.6516
X4.0512Y-3.8091
X4.0906Y-3.5728
X4.0906Y-3.7303
X4.1299Y-3.6516
X4.1299Y-3.8091
X4.1693Y-3.5728
X4.1693Y-3.7303
X4.2087Y-3.6516
X4.2087Y-3.8091
X4.248Y-3.5728
X4.248Y-3.7303
X4.2874Y-3.6516
X4.2874Y-3.8091
X4.3268Y-3.5728
X4.3268Y-3.7303
X4.3661Y-3.6516
X4.3661Y-3.8091
X4.4055Y-3.5728
X4.4055Y-3.7303
X4.4449Y-3.6516
X4.4449Y-3.8091
X4.4843Y-3.5728
X4.4843Y-3.7303
X4.5236Y-3.6516
X4.5236Y-3.8091
X4.8287Y-3.5728
X4.8287Y-3.7303
X4.8681Y-3.6516
X4.8681Y-3.8091
X4.9075Y-3.5728
X4.9075Y-3.7303
X4.9469Y-3.6516
X4.9469Y-3.8091
X4.9862Y-3.5728
X4.9862Y-3.7303
X5.0256Y-3.6516
X5.0256Y-3.8091
X5.0657Y-3.5728
X5.0657Y-3.7303
X5.1051Y-3.6516
X5.1051Y-3.8091
X5.1445Y-3.5728
X5.1445Y-3.7303
X5.1839Y-3.6516
X5.1839Y-3.8091
X5.2232Y-3.5728
X5.2232Y-3.7303
X5.2626Y-3.6516
X5.2626Y-3.8091
X5.302Y-3.5728
X5.302Y-3.7303
X5.3413Y-3.6516
X5.3413Y-3.8091
X5.3807Y-3.5728
X5.3807Y-3.7303
X5.4201Y-3.6516
X5.4201Y-3.8091
X5.4594Y-3.5728
X5.4594Y-3.7303
X5.4988Y-3.6516
X5.4988Y-3.8091
X5.539Y-3.5728
X5.539Y-3.7303
X5.5783Y-3.6516
X5.5783Y-3.8091
X5.6177Y-3.5728
X5.6177Y-3.7303
X5.6571Y-3.6516
X5.6571Y-3.8091
X5.6965Y-3.5728
X5.6965Y-3.7303
X5.7358Y-3.6516
X5.7358Y-3.8091
X5.7752Y-3.5728
X5.7752Y-3.7303
X5.8146Y-3.6516
X5.8146Y-3.8091
X5.8539Y-3.5728
X5.8539Y-3.7303
X5.8933Y-3.6516
X5.8933Y-3.8091
X5.9327Y-3.5728
X5.9327Y-3.7303
X5.972Y-3.6516
X5.972Y-3.8091
X6.0122Y-3.5728
X6.0122Y-3.7303
X6.0516Y-3.6516
X6.0516Y-3.8091
X6.0909Y-3.5728
X6.0909Y-3.7303
X6.1303Y-3.6516
X6.1303Y-3.8091
X6.1697Y-3.5728
X6.1697Y-3.7303
X6.2091Y-3.6516
X6.2091Y-3.8091
T3
X4.152Y-6.5374
X4.152Y-6.8374
X4.1561Y-6.0856
X4.1561Y-6.3856
X4.252Y-6.5374
X4.252Y-6.8374
X4.2561Y-6.0856
X4.2561Y-6.3856
X4.352Y-6.5374
X4.352Y-6.8374
X4.3561Y-6.0856
X4.3561Y-6.3856
X4.452Y-6.5374
X4.452Y-6.8374
X4.4561Y-6.0856
X4.4561Y-6.3856
X4.552Y-6.5374
X4.552Y-6.8374
X4.5561Y-6.0856
X4.5561Y-6.3856
X4.652Y-6.5374
X4.652Y-6.8374
X4.6561Y-6.0856
X4.6561Y-6.3856
X4.752Y-6.5374
X4.752Y-6.8374
X4.7561Y-6.0856
X4.7561Y-6.3856
X4.852Y-6.5374
X4.852Y-6.8374
X4.8561Y-6.0856
X4.8561Y-6.3856
X4.952Y-6.5374
X4.952Y-6.8374
X4.9561Y-6.0856
X4.9561Y-6.3856
X5.052Y-6.5374
X5.052Y-6.8374
X5.0561Y-6.0856
X5.0561Y-6.3856
X5.152Y-6.5374
X5.152Y-6.8374
X5.252Y-6.5374
X5.252Y-6.8374
X5.8201Y-6.5146
X5.8201Y-6.8146
X5.9201Y-6.5146
X5.9201Y-6.8146
X6.0201Y-6.5146
X6.0201Y-6.8146
X6.1201Y-6.5146
X6.1201Y-6.8146
X6.2201Y-6.5146
X6.2201Y-6.8146
X6.2264Y-5.6768
X6.2264Y-5.9768
X6.3201Y-6.5146
X6.3201Y-6.8146
X6.3264Y-5.6768
X6.3264Y-5.9768
X6.4201Y-6.5146
X6.4201Y-6.8146
X6.4264Y-5.6768
X6.4264Y-5.9768
X6.5201Y-6.5146
X6.5201Y-6.8146
X6.5264Y-5.6768
X6.5264Y-5.9768
X6.6264Y-5.6768
X6.6264Y-5.9768
X6.7264Y-5.6768
X6.7264Y-5.9768
X6.8264Y-5.6768
X6.8264Y-5.9768
X6.9264Y-5.6768
X6.9264Y-5.9768
T4
X3.8504Y-5.9281
X3.8504Y-6.0266
X3.8504Y-6.125
T5
X3.5207Y-4.0167
X3.5207Y-4.1152
T0
M30
