%TF.GenerationSoftware,KiCad,Pcbnew,(7.0.0)*%
%TF.CreationDate,2023-02-16T22:34:50-06:00*%
%TF.ProjectId,cart,63617274-2e6b-4696-9361-645f70636258,rev?*%
%TF.SameCoordinates,Original*%
%TF.FileFunction,Drillmap*%
%TF.FilePolarity,Positive*%
%FSLAX45Y45*%
G04 Gerber Fmt 4.5, Leading zero omitted, Abs format (unit mm)*
G04 Created by KiCad (PCBNEW (7.0.0)) date 2023-02-16 22:34:50*
%MOMM*%
%LPD*%
G01*
G04 APERTURE LIST*
%ADD10C,0.100000*%
%ADD11C,0.150000*%
%ADD12C,0.200000*%
G04 APERTURE END LIST*
D10*
X13163000Y-15601000D02*
X14534000Y-15601000D01*
X14534000Y-15601000D02*
X14534000Y-16163000D01*
X14534000Y-16163000D02*
X13163000Y-16163000D01*
X13163000Y-16163000D02*
X13163000Y-15601000D01*
X15421000Y-9813000D02*
X15422000Y-10725000D01*
X12130800Y-9822400D02*
X11597400Y-9822400D01*
X15867000Y-9809000D02*
X15421000Y-9813000D01*
X11597400Y-9822400D02*
X11597400Y-9339800D01*
X15706000Y-14034000D02*
X15706000Y-13506000D01*
X17183000Y-17897000D02*
X17182000Y-16198000D01*
X15432000Y-13506000D02*
X15706000Y-13506000D01*
X11597400Y-8946100D02*
X8358900Y-8946100D01*
X15867000Y-9809000D02*
X15867000Y-8946000D01*
X11597400Y-9339800D02*
X11597400Y-8946100D01*
X18182000Y-13423000D02*
X16334000Y-13423000D01*
X8184000Y-12560000D02*
X8359000Y-12560000D01*
X8184000Y-14543000D02*
X8184000Y-12560000D01*
X11888000Y-14767000D02*
X12189000Y-14767000D01*
X12189000Y-14767000D02*
X12189000Y-15266000D01*
X12189000Y-15266000D02*
X11888000Y-15266000D01*
X11888000Y-15266000D02*
X11888000Y-14767000D01*
X15432000Y-13420000D02*
X15432000Y-13506000D01*
X17182000Y-16198000D02*
X18182000Y-16198000D01*
X18182000Y-16198000D02*
X18182000Y-16097000D01*
X17012000Y-15571000D02*
X17012000Y-16062000D01*
X12130800Y-8946100D02*
X12130800Y-9822400D01*
X18182000Y-13423000D02*
X18182000Y-16097000D01*
X10035000Y-16102000D02*
X9444000Y-16102000D01*
X10134250Y-14213000D02*
X10461750Y-14213000D01*
X10461750Y-14213000D02*
X10461750Y-14545500D01*
X10461750Y-14545500D02*
X10134250Y-14545500D01*
X10134250Y-14545500D02*
X10134250Y-14213000D01*
X16334000Y-13423000D02*
X16333000Y-14034000D01*
X17012000Y-16153000D02*
X16751000Y-16152000D01*
X16333000Y-14034000D02*
X15706000Y-14034000D01*
D11*
X12664000Y-12951500D02*
X12964000Y-12951500D01*
X12964000Y-12951500D02*
X12964000Y-13426500D01*
X12964000Y-13426500D02*
X12664000Y-13426500D01*
X12664000Y-13426500D02*
X12664000Y-12951500D01*
D10*
X14563000Y-12485000D02*
X15431000Y-12486000D01*
X15422000Y-10725000D02*
X14562000Y-10725000D01*
X10032000Y-17902000D02*
X17183000Y-17897000D01*
X8358900Y-8946100D02*
X8359000Y-12560000D01*
X16751000Y-16063000D02*
X16751000Y-15571000D01*
X16751000Y-15571000D02*
X17012000Y-15571000D01*
D11*
X8723000Y-12182000D02*
X9185500Y-12182000D01*
X9185500Y-12182000D02*
X9185500Y-12524500D01*
X9185500Y-12524500D02*
X8723000Y-12524500D01*
X8723000Y-12524500D02*
X8723000Y-12182000D01*
D10*
X9445000Y-14542000D02*
X8184000Y-14543000D01*
X12130800Y-8946100D02*
X15867000Y-8946000D01*
X9444000Y-16102000D02*
X9445000Y-14542000D01*
X16751000Y-16152000D02*
X16751000Y-16063000D01*
X17012000Y-16062000D02*
X17012000Y-16153000D01*
X14562000Y-10725000D02*
X14563000Y-12485000D01*
X15432000Y-13420000D02*
X15431000Y-12486000D01*
X10035000Y-16102000D02*
X10032000Y-17902000D01*
D12*
X8426619Y-18200476D02*
X8426619Y-18000476D01*
X8426619Y-18000476D02*
X8474238Y-18000476D01*
X8474238Y-18000476D02*
X8502810Y-18010000D01*
X8502810Y-18010000D02*
X8521857Y-18029048D01*
X8521857Y-18029048D02*
X8531381Y-18048095D01*
X8531381Y-18048095D02*
X8540905Y-18086190D01*
X8540905Y-18086190D02*
X8540905Y-18114762D01*
X8540905Y-18114762D02*
X8531381Y-18152857D01*
X8531381Y-18152857D02*
X8521857Y-18171905D01*
X8521857Y-18171905D02*
X8502810Y-18190952D01*
X8502810Y-18190952D02*
X8474238Y-18200476D01*
X8474238Y-18200476D02*
X8426619Y-18200476D01*
X8626619Y-18200476D02*
X8626619Y-18067143D01*
X8626619Y-18105238D02*
X8636143Y-18086190D01*
X8636143Y-18086190D02*
X8645667Y-18076667D01*
X8645667Y-18076667D02*
X8664714Y-18067143D01*
X8664714Y-18067143D02*
X8683762Y-18067143D01*
X8750429Y-18200476D02*
X8750429Y-18067143D01*
X8750429Y-18000476D02*
X8740905Y-18010000D01*
X8740905Y-18010000D02*
X8750429Y-18019524D01*
X8750429Y-18019524D02*
X8759952Y-18010000D01*
X8759952Y-18010000D02*
X8750429Y-18000476D01*
X8750429Y-18000476D02*
X8750429Y-18019524D01*
X8874238Y-18200476D02*
X8855190Y-18190952D01*
X8855190Y-18190952D02*
X8845667Y-18171905D01*
X8845667Y-18171905D02*
X8845667Y-18000476D01*
X8979000Y-18200476D02*
X8959952Y-18190952D01*
X8959952Y-18190952D02*
X8950429Y-18171905D01*
X8950429Y-18171905D02*
X8950429Y-18000476D01*
X9175190Y-18200476D02*
X9175190Y-18000476D01*
X9175190Y-18000476D02*
X9241857Y-18143333D01*
X9241857Y-18143333D02*
X9308524Y-18000476D01*
X9308524Y-18000476D02*
X9308524Y-18200476D01*
X9489476Y-18200476D02*
X9489476Y-18095714D01*
X9489476Y-18095714D02*
X9479952Y-18076667D01*
X9479952Y-18076667D02*
X9460905Y-18067143D01*
X9460905Y-18067143D02*
X9422809Y-18067143D01*
X9422809Y-18067143D02*
X9403762Y-18076667D01*
X9489476Y-18190952D02*
X9470429Y-18200476D01*
X9470429Y-18200476D02*
X9422809Y-18200476D01*
X9422809Y-18200476D02*
X9403762Y-18190952D01*
X9403762Y-18190952D02*
X9394238Y-18171905D01*
X9394238Y-18171905D02*
X9394238Y-18152857D01*
X9394238Y-18152857D02*
X9403762Y-18133810D01*
X9403762Y-18133810D02*
X9422809Y-18124286D01*
X9422809Y-18124286D02*
X9470429Y-18124286D01*
X9470429Y-18124286D02*
X9489476Y-18114762D01*
X9584714Y-18067143D02*
X9584714Y-18267143D01*
X9584714Y-18076667D02*
X9603762Y-18067143D01*
X9603762Y-18067143D02*
X9641857Y-18067143D01*
X9641857Y-18067143D02*
X9660905Y-18076667D01*
X9660905Y-18076667D02*
X9670429Y-18086190D01*
X9670429Y-18086190D02*
X9679952Y-18105238D01*
X9679952Y-18105238D02*
X9679952Y-18162381D01*
X9679952Y-18162381D02*
X9670429Y-18181429D01*
X9670429Y-18181429D02*
X9660905Y-18190952D01*
X9660905Y-18190952D02*
X9641857Y-18200476D01*
X9641857Y-18200476D02*
X9603762Y-18200476D01*
X9603762Y-18200476D02*
X9584714Y-18190952D01*
X9765667Y-18181429D02*
X9775190Y-18190952D01*
X9775190Y-18190952D02*
X9765667Y-18200476D01*
X9765667Y-18200476D02*
X9756143Y-18190952D01*
X9756143Y-18190952D02*
X9765667Y-18181429D01*
X9765667Y-18181429D02*
X9765667Y-18200476D01*
X9765667Y-18076667D02*
X9775190Y-18086190D01*
X9775190Y-18086190D02*
X9765667Y-18095714D01*
X9765667Y-18095714D02*
X9756143Y-18086190D01*
X9756143Y-18086190D02*
X9765667Y-18076667D01*
X9765667Y-18076667D02*
X9765667Y-18095714D01*
M02*
