%TF.GenerationSoftware,KiCad,Pcbnew,(7.0.0)*%
%TF.CreationDate,2023-02-16T22:34:58-06:00*%
%TF.ProjectId,cart,63617274-2e6b-4696-9361-645f70636258,rev?*%
%TF.SameCoordinates,Original*%
%TF.FileFunction,Paste,Top*%
%TF.FilePolarity,Positive*%
%FSLAX46Y46*%
G04 Gerber Fmt 4.6, Leading zero omitted, Abs format (unit mm)*
G04 Created by KiCad (PCBNEW (7.0.0)) date 2023-02-16 22:34:58*
%MOMM*%
%LPD*%
G01*
G04 APERTURE LIST*
G04 Aperture macros list*
%AMRoundRect*
0 Rectangle with rounded corners*
0 $1 Rounding radius*
0 $2 $3 $4 $5 $6 $7 $8 $9 X,Y pos of 4 corners*
0 Add a 4 corners polygon primitive as box body*
4,1,4,$2,$3,$4,$5,$6,$7,$8,$9,$2,$3,0*
0 Add four circle primitives for the rounded corners*
1,1,$1+$1,$2,$3*
1,1,$1+$1,$4,$5*
1,1,$1+$1,$6,$7*
1,1,$1+$1,$8,$9*
0 Add four rect primitives between the rounded corners*
20,1,$1+$1,$2,$3,$4,$5,0*
20,1,$1+$1,$4,$5,$6,$7,0*
20,1,$1+$1,$6,$7,$8,$9,0*
20,1,$1+$1,$8,$9,$2,$3,0*%
G04 Aperture macros list end*
%ADD10R,0.750000X2.750000*%
%ADD11RoundRect,0.250000X0.337500X0.475000X-0.337500X0.475000X-0.337500X-0.475000X0.337500X-0.475000X0*%
%ADD12RoundRect,0.250000X-0.475000X0.337500X-0.475000X-0.337500X0.475000X-0.337500X0.475000X0.337500X0*%
%ADD13RoundRect,0.150000X-0.587500X0.150000X-0.587500X-0.150000X0.587500X-0.150000X0.587500X0.150000X0*%
%ADD14RoundRect,0.150000X-0.150000X0.587500X-0.150000X-0.587500X0.150000X-0.587500X0.150000X0.587500X0*%
%ADD15RoundRect,0.250000X1.400000X0.600000X-1.400000X0.600000X-1.400000X-0.600000X1.400000X-0.600000X0*%
%ADD16RoundRect,0.250000X0.350000X0.450000X-0.350000X0.450000X-0.350000X-0.450000X0.350000X-0.450000X0*%
G04 APERTURE END LIST*
D10*
%TO.C,U8*%
X149779999Y-132884999D03*
X148509999Y-132884999D03*
X147239999Y-132884999D03*
X145969999Y-132884999D03*
X144699999Y-132884999D03*
X143429999Y-132884999D03*
X142159999Y-132884999D03*
X140889999Y-132884999D03*
X139619999Y-132884999D03*
X138349999Y-132884999D03*
X137079999Y-132884999D03*
X135809999Y-132884999D03*
X134539999Y-132884999D03*
X133269999Y-132884999D03*
X133269999Y-144064999D03*
X134539999Y-144064999D03*
X135809999Y-144064999D03*
X137079999Y-144064999D03*
X138349999Y-144064999D03*
X139619999Y-144064999D03*
X140889999Y-144064999D03*
X142159999Y-144064999D03*
X143429999Y-144064999D03*
X144699999Y-144064999D03*
X145969999Y-144064999D03*
X147239999Y-144064999D03*
X148509999Y-144064999D03*
X149779999Y-144064999D03*
%TD*%
%TO.C,U7*%
X139904999Y-109234999D03*
X138634999Y-109234999D03*
X137364999Y-109234999D03*
X136094999Y-109234999D03*
X134824999Y-109234999D03*
X133554999Y-109234999D03*
X132284999Y-109234999D03*
X131014999Y-109234999D03*
X129744999Y-109234999D03*
X128474999Y-109234999D03*
X127204999Y-109234999D03*
X125934999Y-109234999D03*
X124664999Y-109234999D03*
X123394999Y-109234999D03*
X123394999Y-120414999D03*
X124664999Y-120414999D03*
X125934999Y-120414999D03*
X127204999Y-120414999D03*
X128474999Y-120414999D03*
X129744999Y-120414999D03*
X131014999Y-120414999D03*
X132284999Y-120414999D03*
X133554999Y-120414999D03*
X134824999Y-120414999D03*
X136094999Y-120414999D03*
X137364999Y-120414999D03*
X138634999Y-120414999D03*
X139904999Y-120414999D03*
%TD*%
D11*
%TO.C,C2*%
X117587500Y-122350000D03*
X115512500Y-122350000D03*
%TD*%
D12*
%TO.C,C7*%
X139300000Y-102762500D03*
X139300000Y-104837500D03*
%TD*%
D13*
%TO.C,U2*%
X113912500Y-131400000D03*
X113912500Y-130130000D03*
X113912500Y-128860000D03*
X113912500Y-127590000D03*
D14*
X112155000Y-125837500D03*
X110885000Y-125837500D03*
X109615000Y-125837500D03*
X108345000Y-125837500D03*
X107075000Y-125837500D03*
X105805000Y-125837500D03*
X104535000Y-125837500D03*
X103265000Y-125837500D03*
X101995000Y-125837500D03*
D13*
X100237500Y-127590000D03*
X100237500Y-128860000D03*
X100237500Y-130130000D03*
X100237500Y-131400000D03*
X100237500Y-132670000D03*
X100237500Y-133940000D03*
X100237500Y-135210000D03*
D14*
X101995000Y-136962500D03*
X103265000Y-136962500D03*
X104535000Y-136962500D03*
X105805000Y-136962500D03*
X107075000Y-136962500D03*
X108345000Y-136962500D03*
X109615000Y-136962500D03*
X110885000Y-136962500D03*
X112155000Y-136962500D03*
D13*
X113912500Y-135210000D03*
X113912500Y-133940000D03*
X113912500Y-132670000D03*
%TD*%
D15*
%TO.C,D4*%
X91770000Y-141665000D03*
X86270000Y-141665000D03*
%TD*%
%TO.C,D2*%
X91770000Y-133115000D03*
X86270000Y-133115000D03*
%TD*%
D11*
%TO.C,C3*%
X132307500Y-177460000D03*
X130232500Y-177460000D03*
%TD*%
D15*
%TO.C,D1*%
X91770000Y-128590000D03*
X86270000Y-128590000D03*
%TD*%
D11*
%TO.C,C1*%
X165107500Y-176780000D03*
X163032500Y-176780000D03*
%TD*%
%TO.C,C4*%
X137475000Y-148765000D03*
X135400000Y-148765000D03*
%TD*%
D15*
%TO.C,D3*%
X91645000Y-137415000D03*
X86145000Y-137415000D03*
%TD*%
D16*
%TO.C,R1*%
X127170000Y-177260000D03*
X125170000Y-177260000D03*
%TD*%
D13*
%TO.C,U3*%
X113912500Y-113250000D03*
X113912500Y-111980000D03*
X113912500Y-110710000D03*
X113912500Y-109440000D03*
D14*
X112155000Y-107687500D03*
X110885000Y-107687500D03*
X109615000Y-107687500D03*
X108345000Y-107687500D03*
X107075000Y-107687500D03*
X105805000Y-107687500D03*
X104535000Y-107687500D03*
X103265000Y-107687500D03*
X101995000Y-107687500D03*
D13*
X100237500Y-109440000D03*
X100237500Y-110710000D03*
X100237500Y-111980000D03*
X100237500Y-113250000D03*
X100237500Y-114520000D03*
X100237500Y-115790000D03*
X100237500Y-117060000D03*
D14*
X101995000Y-118812500D03*
X103265000Y-118812500D03*
X104535000Y-118812500D03*
X105805000Y-118812500D03*
X107075000Y-118812500D03*
X108345000Y-118812500D03*
X109615000Y-118812500D03*
X110885000Y-118812500D03*
X112155000Y-118812500D03*
D13*
X113912500Y-117060000D03*
X113912500Y-115790000D03*
X113912500Y-114520000D03*
%TD*%
M02*
