%TF.GenerationSoftware,KiCad,Pcbnew,(7.0.0)*%
%TF.CreationDate,2023-02-16T22:34:58-06:00*%
%TF.ProjectId,cart,63617274-2e6b-4696-9361-645f70636258,rev?*%
%TF.SameCoordinates,Original*%
%TF.FileFunction,Soldermask,Bot*%
%TF.FilePolarity,Negative*%
%FSLAX46Y46*%
G04 Gerber Fmt 4.6, Leading zero omitted, Abs format (unit mm)*
G04 Created by KiCad (PCBNEW (7.0.0)) date 2023-02-16 22:34:58*
%MOMM*%
%LPD*%
G01*
G04 APERTURE LIST*
G04 Aperture macros list*
%AMRoundRect*
0 Rectangle with rounded corners*
0 $1 Rounding radius*
0 $2 $3 $4 $5 $6 $7 $8 $9 X,Y pos of 4 corners*
0 Add a 4 corners polygon primitive as box body*
4,1,4,$2,$3,$4,$5,$6,$7,$8,$9,$2,$3,0*
0 Add four circle primitives for the rounded corners*
1,1,$1+$1,$2,$3*
1,1,$1+$1,$4,$5*
1,1,$1+$1,$6,$7*
1,1,$1+$1,$8,$9*
0 Add four rect primitives between the rounded corners*
20,1,$1+$1,$2,$3,$4,$5,0*
20,1,$1+$1,$4,$5,$6,$7,0*
20,1,$1+$1,$6,$7,$8,$9,0*
20,1,$1+$1,$8,$9,$2,$3,0*%
G04 Aperture macros list end*
%ADD10R,1.600000X1.600000*%
%ADD11O,1.600000X1.600000*%
%ADD12RoundRect,0.250000X-0.750000X0.600000X-0.750000X-0.600000X0.750000X-0.600000X0.750000X0.600000X0*%
%ADD13O,2.000000X1.700000*%
%ADD14C,1.200000*%
%ADD15RoundRect,0.250000X-0.725000X0.600000X-0.725000X-0.600000X0.725000X-0.600000X0.725000X0.600000X0*%
%ADD16O,1.950000X1.700000*%
G04 APERTURE END LIST*
D10*
%TO.C,U5*%
X165609999Y-165469999D03*
D11*
X163069999Y-165469999D03*
X160529999Y-165469999D03*
X157989999Y-165469999D03*
X155449999Y-165469999D03*
X152909999Y-165469999D03*
X150369999Y-165469999D03*
X147829999Y-165469999D03*
X147829999Y-173089999D03*
X150369999Y-173089999D03*
X152909999Y-173089999D03*
X155449999Y-173089999D03*
X157989999Y-173089999D03*
X160529999Y-173089999D03*
X163069999Y-173089999D03*
X165609999Y-173089999D03*
%TD*%
D12*
%TO.C,SW2*%
X89425000Y-102025000D03*
D13*
X89424999Y-104524999D03*
%TD*%
D14*
%TO.C,SSCART1*%
X157710000Y-92750000D03*
X156710000Y-90750000D03*
X155710000Y-92750000D03*
X154710000Y-90750000D03*
X153710000Y-92750000D03*
X152710000Y-90750000D03*
X151690000Y-92750000D03*
X150690000Y-90750000D03*
X149690000Y-92750000D03*
X148690000Y-90750000D03*
X147690000Y-92750000D03*
X146690000Y-90750000D03*
X145690000Y-92750000D03*
X144690000Y-90750000D03*
X143690000Y-92750000D03*
X142690000Y-90750000D03*
X141690000Y-92750000D03*
X140690000Y-90750000D03*
X139670000Y-92750000D03*
X138670000Y-90750000D03*
X137670000Y-92750000D03*
X136670000Y-90750000D03*
X135670000Y-92750000D03*
X134670000Y-90750000D03*
X133670000Y-92750000D03*
X132670000Y-90750000D03*
X131670000Y-92750000D03*
X130670000Y-90750000D03*
X129670000Y-92750000D03*
X128670000Y-90750000D03*
X127650000Y-92750000D03*
X126650000Y-90750000D03*
X125650000Y-92750000D03*
X124650000Y-90750000D03*
X123650000Y-92750000D03*
X122650000Y-90750000D03*
X114900000Y-92750000D03*
X113900000Y-90750000D03*
X112900000Y-92750000D03*
X111900000Y-90750000D03*
X110900000Y-92750000D03*
X109900000Y-90750000D03*
X108900000Y-92750000D03*
X107900000Y-90750000D03*
X106900000Y-92750000D03*
X105900000Y-90750000D03*
X104900000Y-92750000D03*
X103900000Y-90750000D03*
X102900000Y-92750000D03*
X101900000Y-90750000D03*
X100900000Y-92750000D03*
X99900000Y-90750000D03*
X98900000Y-92750000D03*
X97900000Y-90750000D03*
X96900000Y-92750000D03*
X95900000Y-90750000D03*
X94900000Y-92750000D03*
X93900000Y-90750000D03*
X92900000Y-92750000D03*
X91900000Y-90750000D03*
X90900000Y-92750000D03*
X89900000Y-90750000D03*
X88900000Y-92750000D03*
X87900000Y-90750000D03*
X86900000Y-92750000D03*
X85900000Y-90750000D03*
X84900000Y-92750000D03*
X157710000Y-96750000D03*
X156710000Y-94750000D03*
X155710000Y-96750000D03*
X154710000Y-94750000D03*
X153710000Y-96750000D03*
X152710000Y-94750000D03*
X151690000Y-96750000D03*
X150690000Y-94750000D03*
X149690000Y-96750000D03*
X148690000Y-94750000D03*
X147690000Y-96750000D03*
X146690000Y-94750000D03*
X145690000Y-96750000D03*
X144690000Y-94750000D03*
X143690000Y-96750000D03*
X142690000Y-94750000D03*
X141690000Y-96750000D03*
X140690000Y-94750000D03*
X139670000Y-96750000D03*
X138670000Y-94750000D03*
X137670000Y-96750000D03*
X136670000Y-94750000D03*
X135670000Y-96750000D03*
X134670000Y-94750000D03*
X133670000Y-96750000D03*
X132670000Y-94750000D03*
X131670000Y-96750000D03*
X130670000Y-94750000D03*
X129670000Y-96750000D03*
X128670000Y-94750000D03*
X127650000Y-96750000D03*
X126650000Y-94750000D03*
X125650000Y-96750000D03*
X124650000Y-94750000D03*
X123650000Y-96750000D03*
X122650000Y-94750000D03*
X114900000Y-96750000D03*
X113900000Y-94750000D03*
X112900000Y-96750000D03*
X111900000Y-94750000D03*
X110900000Y-96750000D03*
X109900000Y-94750000D03*
X108900000Y-96750000D03*
X107900000Y-94750000D03*
X106900000Y-96750000D03*
X105900000Y-94750000D03*
X104900000Y-96750000D03*
X103900000Y-94750000D03*
X102900000Y-96750000D03*
X101900000Y-94750000D03*
X100900000Y-96750000D03*
X99900000Y-94750000D03*
X98900000Y-96750000D03*
X97900000Y-94750000D03*
X96900000Y-96750000D03*
X95900000Y-94750000D03*
X94900000Y-96750000D03*
X93900000Y-94750000D03*
X92900000Y-96750000D03*
X91900000Y-94750000D03*
X90900000Y-96750000D03*
X89900000Y-94750000D03*
X88900000Y-96750000D03*
X87900000Y-94750000D03*
X86900000Y-96750000D03*
X85900000Y-94750000D03*
X84900000Y-96750000D03*
%TD*%
D10*
%TO.C,U6*%
X175929999Y-144189999D03*
D11*
X173389999Y-144189999D03*
X170849999Y-144189999D03*
X168309999Y-144189999D03*
X165769999Y-144189999D03*
X163229999Y-144189999D03*
X160689999Y-144189999D03*
X158149999Y-144189999D03*
X158149999Y-151809999D03*
X160689999Y-151809999D03*
X163229999Y-151809999D03*
X165769999Y-151809999D03*
X168309999Y-151809999D03*
X170849999Y-151809999D03*
X173389999Y-151809999D03*
X175929999Y-151809999D03*
%TD*%
D10*
%TO.C,U1*%
X128424999Y-154574999D03*
D11*
X125884999Y-154574999D03*
X123344999Y-154574999D03*
X120804999Y-154574999D03*
X118264999Y-154574999D03*
X115724999Y-154574999D03*
X113184999Y-154574999D03*
X110644999Y-154574999D03*
X108104999Y-154574999D03*
X105564999Y-154574999D03*
X105564999Y-162194999D03*
X108104999Y-162194999D03*
X110644999Y-162194999D03*
X113184999Y-162194999D03*
X115724999Y-162194999D03*
X118264999Y-162194999D03*
X120804999Y-162194999D03*
X123344999Y-162194999D03*
X125884999Y-162194999D03*
X128424999Y-162194999D03*
%TD*%
D10*
%TO.C,U4*%
X133399999Y-166049999D03*
D11*
X130859999Y-166049999D03*
X128319999Y-166049999D03*
X125779999Y-166049999D03*
X123239999Y-166049999D03*
X120699999Y-166049999D03*
X118159999Y-166049999D03*
X115619999Y-166049999D03*
X113079999Y-166049999D03*
X110539999Y-166049999D03*
X107999999Y-166049999D03*
X105459999Y-166049999D03*
X105459999Y-173669999D03*
X107999999Y-173669999D03*
X110539999Y-173669999D03*
X113079999Y-173669999D03*
X115619999Y-173669999D03*
X118159999Y-173669999D03*
X120699999Y-173669999D03*
X123239999Y-173669999D03*
X125779999Y-173669999D03*
X128319999Y-173669999D03*
X130859999Y-173669999D03*
X133399999Y-173669999D03*
%TD*%
D15*
%TO.C,SW1*%
X97800000Y-150575000D03*
D16*
X97799999Y-153074999D03*
X97799999Y-155574999D03*
%TD*%
M02*
