%TF.GenerationSoftware,KiCad,Pcbnew,(7.0.0)*%
%TF.CreationDate,2023-02-16T22:34:58-06:00*%
%TF.ProjectId,cart,63617274-2e6b-4696-9361-645f70636258,rev?*%
%TF.SameCoordinates,Original*%
%TF.FileFunction,Legend,Top*%
%TF.FilePolarity,Positive*%
%FSLAX46Y46*%
G04 Gerber Fmt 4.6, Leading zero omitted, Abs format (unit mm)*
G04 Created by KiCad (PCBNEW (7.0.0)) date 2023-02-16 22:34:58*
%MOMM*%
%LPD*%
G01*
G04 APERTURE LIST*
%ADD10C,0.150000*%
%ADD11C,0.120000*%
G04 APERTURE END LIST*
D10*
X164492857Y-136732500D02*
X164850000Y-136732500D01*
X164421428Y-136946785D02*
X164671428Y-136196785D01*
X164671428Y-136196785D02*
X164921428Y-136946785D01*
X165492857Y-136911071D02*
X165421428Y-136946785D01*
X165421428Y-136946785D02*
X165278571Y-136946785D01*
X165278571Y-136946785D02*
X165207142Y-136911071D01*
X165207142Y-136911071D02*
X165171428Y-136875357D01*
X165171428Y-136875357D02*
X165135714Y-136803928D01*
X165135714Y-136803928D02*
X165135714Y-136589642D01*
X165135714Y-136589642D02*
X165171428Y-136518214D01*
X165171428Y-136518214D02*
X165207142Y-136482500D01*
X165207142Y-136482500D02*
X165278571Y-136446785D01*
X165278571Y-136446785D02*
X165421428Y-136446785D01*
X165421428Y-136446785D02*
X165492857Y-136482500D01*
X165707142Y-136446785D02*
X165992856Y-136446785D01*
X165814285Y-136196785D02*
X165814285Y-136839642D01*
X165814285Y-136839642D02*
X165849999Y-136911071D01*
X165849999Y-136911071D02*
X165921428Y-136946785D01*
X165921428Y-136946785D02*
X165992856Y-136946785D01*
X166242856Y-136946785D02*
X166242856Y-136446785D01*
X166242856Y-136196785D02*
X166207142Y-136232500D01*
X166207142Y-136232500D02*
X166242856Y-136268214D01*
X166242856Y-136268214D02*
X166278570Y-136232500D01*
X166278570Y-136232500D02*
X166242856Y-136196785D01*
X166242856Y-136196785D02*
X166242856Y-136268214D01*
X166707142Y-136946785D02*
X166635713Y-136911071D01*
X166635713Y-136911071D02*
X166599999Y-136875357D01*
X166599999Y-136875357D02*
X166564285Y-136803928D01*
X166564285Y-136803928D02*
X166564285Y-136589642D01*
X166564285Y-136589642D02*
X166599999Y-136518214D01*
X166599999Y-136518214D02*
X166635713Y-136482500D01*
X166635713Y-136482500D02*
X166707142Y-136446785D01*
X166707142Y-136446785D02*
X166814285Y-136446785D01*
X166814285Y-136446785D02*
X166885713Y-136482500D01*
X166885713Y-136482500D02*
X166921428Y-136518214D01*
X166921428Y-136518214D02*
X166957142Y-136589642D01*
X166957142Y-136589642D02*
X166957142Y-136803928D01*
X166957142Y-136803928D02*
X166921428Y-136875357D01*
X166921428Y-136875357D02*
X166885713Y-136911071D01*
X166885713Y-136911071D02*
X166814285Y-136946785D01*
X166814285Y-136946785D02*
X166707142Y-136946785D01*
X167278570Y-136446785D02*
X167278570Y-136946785D01*
X167278570Y-136518214D02*
X167314284Y-136482500D01*
X167314284Y-136482500D02*
X167385713Y-136446785D01*
X167385713Y-136446785D02*
X167492856Y-136446785D01*
X167492856Y-136446785D02*
X167564284Y-136482500D01*
X167564284Y-136482500D02*
X167599999Y-136553928D01*
X167599999Y-136553928D02*
X167599999Y-136946785D01*
X168835712Y-136946785D02*
X168585712Y-136589642D01*
X168407141Y-136946785D02*
X168407141Y-136196785D01*
X168407141Y-136196785D02*
X168692855Y-136196785D01*
X168692855Y-136196785D02*
X168764284Y-136232500D01*
X168764284Y-136232500D02*
X168799998Y-136268214D01*
X168799998Y-136268214D02*
X168835712Y-136339642D01*
X168835712Y-136339642D02*
X168835712Y-136446785D01*
X168835712Y-136446785D02*
X168799998Y-136518214D01*
X168799998Y-136518214D02*
X168764284Y-136553928D01*
X168764284Y-136553928D02*
X168692855Y-136589642D01*
X168692855Y-136589642D02*
X168407141Y-136589642D01*
X169442855Y-136911071D02*
X169371427Y-136946785D01*
X169371427Y-136946785D02*
X169228570Y-136946785D01*
X169228570Y-136946785D02*
X169157141Y-136911071D01*
X169157141Y-136911071D02*
X169121427Y-136839642D01*
X169121427Y-136839642D02*
X169121427Y-136553928D01*
X169121427Y-136553928D02*
X169157141Y-136482500D01*
X169157141Y-136482500D02*
X169228570Y-136446785D01*
X169228570Y-136446785D02*
X169371427Y-136446785D01*
X169371427Y-136446785D02*
X169442855Y-136482500D01*
X169442855Y-136482500D02*
X169478570Y-136553928D01*
X169478570Y-136553928D02*
X169478570Y-136625357D01*
X169478570Y-136625357D02*
X169121427Y-136696785D01*
X169799998Y-136446785D02*
X169799998Y-137196785D01*
X169799998Y-136482500D02*
X169871427Y-136446785D01*
X169871427Y-136446785D02*
X170014284Y-136446785D01*
X170014284Y-136446785D02*
X170085712Y-136482500D01*
X170085712Y-136482500D02*
X170121427Y-136518214D01*
X170121427Y-136518214D02*
X170157141Y-136589642D01*
X170157141Y-136589642D02*
X170157141Y-136803928D01*
X170157141Y-136803928D02*
X170121427Y-136875357D01*
X170121427Y-136875357D02*
X170085712Y-136911071D01*
X170085712Y-136911071D02*
X170014284Y-136946785D01*
X170014284Y-136946785D02*
X169871427Y-136946785D01*
X169871427Y-136946785D02*
X169799998Y-136911071D01*
X170585712Y-136946785D02*
X170514283Y-136911071D01*
X170514283Y-136911071D02*
X170478569Y-136839642D01*
X170478569Y-136839642D02*
X170478569Y-136196785D01*
X171192855Y-136946785D02*
X171192855Y-136553928D01*
X171192855Y-136553928D02*
X171157140Y-136482500D01*
X171157140Y-136482500D02*
X171085712Y-136446785D01*
X171085712Y-136446785D02*
X170942855Y-136446785D01*
X170942855Y-136446785D02*
X170871426Y-136482500D01*
X171192855Y-136911071D02*
X171121426Y-136946785D01*
X171121426Y-136946785D02*
X170942855Y-136946785D01*
X170942855Y-136946785D02*
X170871426Y-136911071D01*
X170871426Y-136911071D02*
X170835712Y-136839642D01*
X170835712Y-136839642D02*
X170835712Y-136768214D01*
X170835712Y-136768214D02*
X170871426Y-136696785D01*
X170871426Y-136696785D02*
X170942855Y-136661071D01*
X170942855Y-136661071D02*
X171121426Y-136661071D01*
X171121426Y-136661071D02*
X171192855Y-136625357D01*
X171478568Y-136446785D02*
X171657140Y-136946785D01*
X171835711Y-136446785D02*
X171657140Y-136946785D01*
X171657140Y-136946785D02*
X171585711Y-137125357D01*
X171585711Y-137125357D02*
X171549997Y-137161071D01*
X171549997Y-137161071D02*
X171478568Y-137196785D01*
X172464283Y-136446785D02*
X172749997Y-136446785D01*
X172571426Y-136946785D02*
X172571426Y-136303928D01*
X172571426Y-136303928D02*
X172607140Y-136232500D01*
X172607140Y-136232500D02*
X172678569Y-136196785D01*
X172678569Y-136196785D02*
X172749997Y-136196785D01*
X173107140Y-136946785D02*
X173035711Y-136911071D01*
X173035711Y-136911071D02*
X172999997Y-136875357D01*
X172999997Y-136875357D02*
X172964283Y-136803928D01*
X172964283Y-136803928D02*
X172964283Y-136589642D01*
X172964283Y-136589642D02*
X172999997Y-136518214D01*
X172999997Y-136518214D02*
X173035711Y-136482500D01*
X173035711Y-136482500D02*
X173107140Y-136446785D01*
X173107140Y-136446785D02*
X173214283Y-136446785D01*
X173214283Y-136446785D02*
X173285711Y-136482500D01*
X173285711Y-136482500D02*
X173321426Y-136518214D01*
X173321426Y-136518214D02*
X173357140Y-136589642D01*
X173357140Y-136589642D02*
X173357140Y-136803928D01*
X173357140Y-136803928D02*
X173321426Y-136875357D01*
X173321426Y-136875357D02*
X173285711Y-136911071D01*
X173285711Y-136911071D02*
X173214283Y-136946785D01*
X173214283Y-136946785D02*
X173107140Y-136946785D01*
X173678568Y-136946785D02*
X173678568Y-136446785D01*
X173678568Y-136589642D02*
X173714282Y-136518214D01*
X173714282Y-136518214D02*
X173749997Y-136482500D01*
X173749997Y-136482500D02*
X173821425Y-136446785D01*
X173821425Y-136446785D02*
X173892854Y-136446785D01*
X174485711Y-136196785D02*
X174735711Y-136946785D01*
X174735711Y-136946785D02*
X174985711Y-136196785D01*
X175199997Y-136732500D02*
X175557140Y-136732500D01*
X175128568Y-136946785D02*
X175378568Y-136196785D01*
X175378568Y-136196785D02*
X175628568Y-136946785D01*
X176021425Y-136196785D02*
X176092854Y-136196785D01*
X176092854Y-136196785D02*
X176164282Y-136232500D01*
X176164282Y-136232500D02*
X176199997Y-136268214D01*
X176199997Y-136268214D02*
X176235711Y-136339642D01*
X176235711Y-136339642D02*
X176271425Y-136482500D01*
X176271425Y-136482500D02*
X176271425Y-136661071D01*
X176271425Y-136661071D02*
X176235711Y-136803928D01*
X176235711Y-136803928D02*
X176199997Y-136875357D01*
X176199997Y-136875357D02*
X176164282Y-136911071D01*
X176164282Y-136911071D02*
X176092854Y-136946785D01*
X176092854Y-136946785D02*
X176021425Y-136946785D01*
X176021425Y-136946785D02*
X175949997Y-136911071D01*
X175949997Y-136911071D02*
X175914282Y-136875357D01*
X175914282Y-136875357D02*
X175878568Y-136803928D01*
X175878568Y-136803928D02*
X175842854Y-136661071D01*
X175842854Y-136661071D02*
X175842854Y-136482500D01*
X175842854Y-136482500D02*
X175878568Y-136339642D01*
X175878568Y-136339642D02*
X175914282Y-136268214D01*
X175914282Y-136268214D02*
X175949997Y-136232500D01*
X175949997Y-136232500D02*
X176021425Y-136196785D01*
X176628568Y-136911071D02*
X176628568Y-136946785D01*
X176628568Y-136946785D02*
X176592854Y-137018214D01*
X176592854Y-137018214D02*
X176557140Y-137053928D01*
X177542854Y-136196785D02*
X177614283Y-136196785D01*
X177614283Y-136196785D02*
X177685711Y-136232500D01*
X177685711Y-136232500D02*
X177721426Y-136268214D01*
X177721426Y-136268214D02*
X177757140Y-136339642D01*
X177757140Y-136339642D02*
X177792854Y-136482500D01*
X177792854Y-136482500D02*
X177792854Y-136661071D01*
X177792854Y-136661071D02*
X177757140Y-136803928D01*
X177757140Y-136803928D02*
X177721426Y-136875357D01*
X177721426Y-136875357D02*
X177685711Y-136911071D01*
X177685711Y-136911071D02*
X177614283Y-136946785D01*
X177614283Y-136946785D02*
X177542854Y-136946785D01*
X177542854Y-136946785D02*
X177471426Y-136911071D01*
X177471426Y-136911071D02*
X177435711Y-136875357D01*
X177435711Y-136875357D02*
X177399997Y-136803928D01*
X177399997Y-136803928D02*
X177364283Y-136661071D01*
X177364283Y-136661071D02*
X177364283Y-136482500D01*
X177364283Y-136482500D02*
X177399997Y-136339642D01*
X177399997Y-136339642D02*
X177435711Y-136268214D01*
X177435711Y-136268214D02*
X177471426Y-136232500D01*
X177471426Y-136232500D02*
X177542854Y-136196785D01*
X178114283Y-136875357D02*
X178149997Y-136911071D01*
X178149997Y-136911071D02*
X178114283Y-136946785D01*
X178114283Y-136946785D02*
X178078569Y-136911071D01*
X178078569Y-136911071D02*
X178114283Y-136875357D01*
X178114283Y-136875357D02*
X178114283Y-136946785D01*
X178828569Y-136196785D02*
X178471426Y-136196785D01*
X178471426Y-136196785D02*
X178435712Y-136553928D01*
X178435712Y-136553928D02*
X178471426Y-136518214D01*
X178471426Y-136518214D02*
X178542855Y-136482500D01*
X178542855Y-136482500D02*
X178721426Y-136482500D01*
X178721426Y-136482500D02*
X178792855Y-136518214D01*
X178792855Y-136518214D02*
X178828569Y-136553928D01*
X178828569Y-136553928D02*
X178864283Y-136625357D01*
X178864283Y-136625357D02*
X178864283Y-136803928D01*
X178864283Y-136803928D02*
X178828569Y-136875357D01*
X178828569Y-136875357D02*
X178792855Y-136911071D01*
X178792855Y-136911071D02*
X178721426Y-136946785D01*
X178721426Y-136946785D02*
X178542855Y-136946785D01*
X178542855Y-136946785D02*
X178471426Y-136911071D01*
X178471426Y-136911071D02*
X178435712Y-136875357D01*
X164528571Y-138161785D02*
X164528571Y-137411785D01*
X164528571Y-137697500D02*
X164600000Y-137661785D01*
X164600000Y-137661785D02*
X164742857Y-137661785D01*
X164742857Y-137661785D02*
X164814285Y-137697500D01*
X164814285Y-137697500D02*
X164850000Y-137733214D01*
X164850000Y-137733214D02*
X164885714Y-137804642D01*
X164885714Y-137804642D02*
X164885714Y-138018928D01*
X164885714Y-138018928D02*
X164850000Y-138090357D01*
X164850000Y-138090357D02*
X164814285Y-138126071D01*
X164814285Y-138126071D02*
X164742857Y-138161785D01*
X164742857Y-138161785D02*
X164600000Y-138161785D01*
X164600000Y-138161785D02*
X164528571Y-138126071D01*
X165135713Y-137661785D02*
X165314285Y-138161785D01*
X165492856Y-137661785D02*
X165314285Y-138161785D01*
X165314285Y-138161785D02*
X165242856Y-138340357D01*
X165242856Y-138340357D02*
X165207142Y-138376071D01*
X165207142Y-138376071D02*
X165135713Y-138411785D01*
X166478571Y-137768928D02*
X166585714Y-137804642D01*
X166585714Y-137804642D02*
X166621428Y-137840357D01*
X166621428Y-137840357D02*
X166657142Y-137911785D01*
X166657142Y-137911785D02*
X166657142Y-138018928D01*
X166657142Y-138018928D02*
X166621428Y-138090357D01*
X166621428Y-138090357D02*
X166585714Y-138126071D01*
X166585714Y-138126071D02*
X166514285Y-138161785D01*
X166514285Y-138161785D02*
X166228571Y-138161785D01*
X166228571Y-138161785D02*
X166228571Y-137411785D01*
X166228571Y-137411785D02*
X166478571Y-137411785D01*
X166478571Y-137411785D02*
X166550000Y-137447500D01*
X166550000Y-137447500D02*
X166585714Y-137483214D01*
X166585714Y-137483214D02*
X166621428Y-137554642D01*
X166621428Y-137554642D02*
X166621428Y-137626071D01*
X166621428Y-137626071D02*
X166585714Y-137697500D01*
X166585714Y-137697500D02*
X166550000Y-137733214D01*
X166550000Y-137733214D02*
X166478571Y-137768928D01*
X166478571Y-137768928D02*
X166228571Y-137768928D01*
X167300000Y-138161785D02*
X167300000Y-137768928D01*
X167300000Y-137768928D02*
X167264285Y-137697500D01*
X167264285Y-137697500D02*
X167192857Y-137661785D01*
X167192857Y-137661785D02*
X167050000Y-137661785D01*
X167050000Y-137661785D02*
X166978571Y-137697500D01*
X167300000Y-138126071D02*
X167228571Y-138161785D01*
X167228571Y-138161785D02*
X167050000Y-138161785D01*
X167050000Y-138161785D02*
X166978571Y-138126071D01*
X166978571Y-138126071D02*
X166942857Y-138054642D01*
X166942857Y-138054642D02*
X166942857Y-137983214D01*
X166942857Y-137983214D02*
X166978571Y-137911785D01*
X166978571Y-137911785D02*
X167050000Y-137876071D01*
X167050000Y-137876071D02*
X167228571Y-137876071D01*
X167228571Y-137876071D02*
X167300000Y-137840357D01*
X167657142Y-138161785D02*
X167657142Y-137661785D01*
X167657142Y-137804642D02*
X167692856Y-137733214D01*
X167692856Y-137733214D02*
X167728571Y-137697500D01*
X167728571Y-137697500D02*
X167799999Y-137661785D01*
X167799999Y-137661785D02*
X167871428Y-137661785D01*
X168014285Y-137661785D02*
X168299999Y-137661785D01*
X168121428Y-137411785D02*
X168121428Y-138054642D01*
X168121428Y-138054642D02*
X168157142Y-138126071D01*
X168157142Y-138126071D02*
X168228571Y-138161785D01*
X168228571Y-138161785D02*
X168299999Y-138161785D01*
X168942856Y-138161785D02*
X168514285Y-138161785D01*
X168728570Y-138161785D02*
X168728570Y-137411785D01*
X168728570Y-137411785D02*
X168657142Y-137518928D01*
X168657142Y-137518928D02*
X168585713Y-137590357D01*
X168585713Y-137590357D02*
X168514285Y-137626071D01*
X169549999Y-138126071D02*
X169478571Y-138161785D01*
X169478571Y-138161785D02*
X169335714Y-138161785D01*
X169335714Y-138161785D02*
X169264285Y-138126071D01*
X169264285Y-138126071D02*
X169228571Y-138054642D01*
X169228571Y-138054642D02*
X169228571Y-137768928D01*
X169228571Y-137768928D02*
X169264285Y-137697500D01*
X169264285Y-137697500D02*
X169335714Y-137661785D01*
X169335714Y-137661785D02*
X169478571Y-137661785D01*
X169478571Y-137661785D02*
X169549999Y-137697500D01*
X169549999Y-137697500D02*
X169585714Y-137768928D01*
X169585714Y-137768928D02*
X169585714Y-137840357D01*
X169585714Y-137840357D02*
X169228571Y-137911785D01*
X169907142Y-138161785D02*
X169907142Y-137411785D01*
X169907142Y-137697500D02*
X169978571Y-137661785D01*
X169978571Y-137661785D02*
X170121428Y-137661785D01*
X170121428Y-137661785D02*
X170192856Y-137697500D01*
X170192856Y-137697500D02*
X170228571Y-137733214D01*
X170228571Y-137733214D02*
X170264285Y-137804642D01*
X170264285Y-137804642D02*
X170264285Y-138018928D01*
X170264285Y-138018928D02*
X170228571Y-138090357D01*
X170228571Y-138090357D02*
X170192856Y-138126071D01*
X170192856Y-138126071D02*
X170121428Y-138161785D01*
X170121428Y-138161785D02*
X169978571Y-138161785D01*
X169978571Y-138161785D02*
X169907142Y-138126071D01*
X170871427Y-138126071D02*
X170799999Y-138161785D01*
X170799999Y-138161785D02*
X170657142Y-138161785D01*
X170657142Y-138161785D02*
X170585713Y-138126071D01*
X170585713Y-138126071D02*
X170549999Y-138054642D01*
X170549999Y-138054642D02*
X170549999Y-137768928D01*
X170549999Y-137768928D02*
X170585713Y-137697500D01*
X170585713Y-137697500D02*
X170657142Y-137661785D01*
X170657142Y-137661785D02*
X170799999Y-137661785D01*
X170799999Y-137661785D02*
X170871427Y-137697500D01*
X170871427Y-137697500D02*
X170907142Y-137768928D01*
X170907142Y-137768928D02*
X170907142Y-137840357D01*
X170907142Y-137840357D02*
X170549999Y-137911785D01*
X171514284Y-138126071D02*
X171442856Y-138161785D01*
X171442856Y-138161785D02*
X171299999Y-138161785D01*
X171299999Y-138161785D02*
X171228570Y-138126071D01*
X171228570Y-138126071D02*
X171192856Y-138054642D01*
X171192856Y-138054642D02*
X171192856Y-137768928D01*
X171192856Y-137768928D02*
X171228570Y-137697500D01*
X171228570Y-137697500D02*
X171299999Y-137661785D01*
X171299999Y-137661785D02*
X171442856Y-137661785D01*
X171442856Y-137661785D02*
X171514284Y-137697500D01*
X171514284Y-137697500D02*
X171549999Y-137768928D01*
X171549999Y-137768928D02*
X171549999Y-137840357D01*
X171549999Y-137840357D02*
X171192856Y-137911785D01*
%TO.C,U8*%
X151022380Y-139236904D02*
X151831904Y-139236904D01*
X151831904Y-139236904D02*
X151927142Y-139189285D01*
X151927142Y-139189285D02*
X151974761Y-139141666D01*
X151974761Y-139141666D02*
X152022380Y-139046428D01*
X152022380Y-139046428D02*
X152022380Y-138855952D01*
X152022380Y-138855952D02*
X151974761Y-138760714D01*
X151974761Y-138760714D02*
X151927142Y-138713095D01*
X151927142Y-138713095D02*
X151831904Y-138665476D01*
X151831904Y-138665476D02*
X151022380Y-138665476D01*
X151450952Y-138046428D02*
X151403333Y-138141666D01*
X151403333Y-138141666D02*
X151355714Y-138189285D01*
X151355714Y-138189285D02*
X151260476Y-138236904D01*
X151260476Y-138236904D02*
X151212857Y-138236904D01*
X151212857Y-138236904D02*
X151117619Y-138189285D01*
X151117619Y-138189285D02*
X151070000Y-138141666D01*
X151070000Y-138141666D02*
X151022380Y-138046428D01*
X151022380Y-138046428D02*
X151022380Y-137855952D01*
X151022380Y-137855952D02*
X151070000Y-137760714D01*
X151070000Y-137760714D02*
X151117619Y-137713095D01*
X151117619Y-137713095D02*
X151212857Y-137665476D01*
X151212857Y-137665476D02*
X151260476Y-137665476D01*
X151260476Y-137665476D02*
X151355714Y-137713095D01*
X151355714Y-137713095D02*
X151403333Y-137760714D01*
X151403333Y-137760714D02*
X151450952Y-137855952D01*
X151450952Y-137855952D02*
X151450952Y-138046428D01*
X151450952Y-138046428D02*
X151498571Y-138141666D01*
X151498571Y-138141666D02*
X151546190Y-138189285D01*
X151546190Y-138189285D02*
X151641428Y-138236904D01*
X151641428Y-138236904D02*
X151831904Y-138236904D01*
X151831904Y-138236904D02*
X151927142Y-138189285D01*
X151927142Y-138189285D02*
X151974761Y-138141666D01*
X151974761Y-138141666D02*
X152022380Y-138046428D01*
X152022380Y-138046428D02*
X152022380Y-137855952D01*
X152022380Y-137855952D02*
X151974761Y-137760714D01*
X151974761Y-137760714D02*
X151927142Y-137713095D01*
X151927142Y-137713095D02*
X151831904Y-137665476D01*
X151831904Y-137665476D02*
X151641428Y-137665476D01*
X151641428Y-137665476D02*
X151546190Y-137713095D01*
X151546190Y-137713095D02*
X151498571Y-137760714D01*
X151498571Y-137760714D02*
X151450952Y-137855952D01*
%TO.C,U7*%
X141147380Y-115586904D02*
X141956904Y-115586904D01*
X141956904Y-115586904D02*
X142052142Y-115539285D01*
X142052142Y-115539285D02*
X142099761Y-115491666D01*
X142099761Y-115491666D02*
X142147380Y-115396428D01*
X142147380Y-115396428D02*
X142147380Y-115205952D01*
X142147380Y-115205952D02*
X142099761Y-115110714D01*
X142099761Y-115110714D02*
X142052142Y-115063095D01*
X142052142Y-115063095D02*
X141956904Y-115015476D01*
X141956904Y-115015476D02*
X141147380Y-115015476D01*
X141147380Y-114634523D02*
X141147380Y-113967857D01*
X141147380Y-113967857D02*
X142147380Y-114396428D01*
%TO.C,C2*%
X116383333Y-124302142D02*
X116335714Y-124349761D01*
X116335714Y-124349761D02*
X116192857Y-124397380D01*
X116192857Y-124397380D02*
X116097619Y-124397380D01*
X116097619Y-124397380D02*
X115954762Y-124349761D01*
X115954762Y-124349761D02*
X115859524Y-124254523D01*
X115859524Y-124254523D02*
X115811905Y-124159285D01*
X115811905Y-124159285D02*
X115764286Y-123968809D01*
X115764286Y-123968809D02*
X115764286Y-123825952D01*
X115764286Y-123825952D02*
X115811905Y-123635476D01*
X115811905Y-123635476D02*
X115859524Y-123540238D01*
X115859524Y-123540238D02*
X115954762Y-123445000D01*
X115954762Y-123445000D02*
X116097619Y-123397380D01*
X116097619Y-123397380D02*
X116192857Y-123397380D01*
X116192857Y-123397380D02*
X116335714Y-123445000D01*
X116335714Y-123445000D02*
X116383333Y-123492619D01*
X116764286Y-123492619D02*
X116811905Y-123445000D01*
X116811905Y-123445000D02*
X116907143Y-123397380D01*
X116907143Y-123397380D02*
X117145238Y-123397380D01*
X117145238Y-123397380D02*
X117240476Y-123445000D01*
X117240476Y-123445000D02*
X117288095Y-123492619D01*
X117288095Y-123492619D02*
X117335714Y-123587857D01*
X117335714Y-123587857D02*
X117335714Y-123683095D01*
X117335714Y-123683095D02*
X117288095Y-123825952D01*
X117288095Y-123825952D02*
X116716667Y-124397380D01*
X116716667Y-124397380D02*
X117335714Y-124397380D01*
%TO.C,U5*%
X167307380Y-170041904D02*
X168116904Y-170041904D01*
X168116904Y-170041904D02*
X168212142Y-169994285D01*
X168212142Y-169994285D02*
X168259761Y-169946666D01*
X168259761Y-169946666D02*
X168307380Y-169851428D01*
X168307380Y-169851428D02*
X168307380Y-169660952D01*
X168307380Y-169660952D02*
X168259761Y-169565714D01*
X168259761Y-169565714D02*
X168212142Y-169518095D01*
X168212142Y-169518095D02*
X168116904Y-169470476D01*
X168116904Y-169470476D02*
X167307380Y-169470476D01*
X167307380Y-168518095D02*
X167307380Y-168994285D01*
X167307380Y-168994285D02*
X167783571Y-169041904D01*
X167783571Y-169041904D02*
X167735952Y-168994285D01*
X167735952Y-168994285D02*
X167688333Y-168899047D01*
X167688333Y-168899047D02*
X167688333Y-168660952D01*
X167688333Y-168660952D02*
X167735952Y-168565714D01*
X167735952Y-168565714D02*
X167783571Y-168518095D01*
X167783571Y-168518095D02*
X167878809Y-168470476D01*
X167878809Y-168470476D02*
X168116904Y-168470476D01*
X168116904Y-168470476D02*
X168212142Y-168518095D01*
X168212142Y-168518095D02*
X168259761Y-168565714D01*
X168259761Y-168565714D02*
X168307380Y-168660952D01*
X168307380Y-168660952D02*
X168307380Y-168899047D01*
X168307380Y-168899047D02*
X168259761Y-168994285D01*
X168259761Y-168994285D02*
X168212142Y-169041904D01*
%TO.C,C7*%
X141252142Y-103966666D02*
X141299761Y-104014285D01*
X141299761Y-104014285D02*
X141347380Y-104157142D01*
X141347380Y-104157142D02*
X141347380Y-104252380D01*
X141347380Y-104252380D02*
X141299761Y-104395237D01*
X141299761Y-104395237D02*
X141204523Y-104490475D01*
X141204523Y-104490475D02*
X141109285Y-104538094D01*
X141109285Y-104538094D02*
X140918809Y-104585713D01*
X140918809Y-104585713D02*
X140775952Y-104585713D01*
X140775952Y-104585713D02*
X140585476Y-104538094D01*
X140585476Y-104538094D02*
X140490238Y-104490475D01*
X140490238Y-104490475D02*
X140395000Y-104395237D01*
X140395000Y-104395237D02*
X140347380Y-104252380D01*
X140347380Y-104252380D02*
X140347380Y-104157142D01*
X140347380Y-104157142D02*
X140395000Y-104014285D01*
X140395000Y-104014285D02*
X140442619Y-103966666D01*
X140347380Y-103633332D02*
X140347380Y-102966666D01*
X140347380Y-102966666D02*
X141347380Y-103395237D01*
%TO.C,U2*%
X114962380Y-132161904D02*
X115771904Y-132161904D01*
X115771904Y-132161904D02*
X115867142Y-132114285D01*
X115867142Y-132114285D02*
X115914761Y-132066666D01*
X115914761Y-132066666D02*
X115962380Y-131971428D01*
X115962380Y-131971428D02*
X115962380Y-131780952D01*
X115962380Y-131780952D02*
X115914761Y-131685714D01*
X115914761Y-131685714D02*
X115867142Y-131638095D01*
X115867142Y-131638095D02*
X115771904Y-131590476D01*
X115771904Y-131590476D02*
X114962380Y-131590476D01*
X115057619Y-131161904D02*
X115010000Y-131114285D01*
X115010000Y-131114285D02*
X114962380Y-131019047D01*
X114962380Y-131019047D02*
X114962380Y-130780952D01*
X114962380Y-130780952D02*
X115010000Y-130685714D01*
X115010000Y-130685714D02*
X115057619Y-130638095D01*
X115057619Y-130638095D02*
X115152857Y-130590476D01*
X115152857Y-130590476D02*
X115248095Y-130590476D01*
X115248095Y-130590476D02*
X115390952Y-130638095D01*
X115390952Y-130638095D02*
X115962380Y-131209523D01*
X115962380Y-131209523D02*
X115962380Y-130590476D01*
%TO.C,SW2*%
X93244761Y-104608332D02*
X93292380Y-104465475D01*
X93292380Y-104465475D02*
X93292380Y-104227380D01*
X93292380Y-104227380D02*
X93244761Y-104132142D01*
X93244761Y-104132142D02*
X93197142Y-104084523D01*
X93197142Y-104084523D02*
X93101904Y-104036904D01*
X93101904Y-104036904D02*
X93006666Y-104036904D01*
X93006666Y-104036904D02*
X92911428Y-104084523D01*
X92911428Y-104084523D02*
X92863809Y-104132142D01*
X92863809Y-104132142D02*
X92816190Y-104227380D01*
X92816190Y-104227380D02*
X92768571Y-104417856D01*
X92768571Y-104417856D02*
X92720952Y-104513094D01*
X92720952Y-104513094D02*
X92673333Y-104560713D01*
X92673333Y-104560713D02*
X92578095Y-104608332D01*
X92578095Y-104608332D02*
X92482857Y-104608332D01*
X92482857Y-104608332D02*
X92387619Y-104560713D01*
X92387619Y-104560713D02*
X92340000Y-104513094D01*
X92340000Y-104513094D02*
X92292380Y-104417856D01*
X92292380Y-104417856D02*
X92292380Y-104179761D01*
X92292380Y-104179761D02*
X92340000Y-104036904D01*
X92292380Y-103703570D02*
X93292380Y-103465475D01*
X93292380Y-103465475D02*
X92578095Y-103274999D01*
X92578095Y-103274999D02*
X93292380Y-103084523D01*
X93292380Y-103084523D02*
X92292380Y-102846428D01*
X92387619Y-102513094D02*
X92340000Y-102465475D01*
X92340000Y-102465475D02*
X92292380Y-102370237D01*
X92292380Y-102370237D02*
X92292380Y-102132142D01*
X92292380Y-102132142D02*
X92340000Y-102036904D01*
X92340000Y-102036904D02*
X92387619Y-101989285D01*
X92387619Y-101989285D02*
X92482857Y-101941666D01*
X92482857Y-101941666D02*
X92578095Y-101941666D01*
X92578095Y-101941666D02*
X92720952Y-101989285D01*
X92720952Y-101989285D02*
X93292380Y-102560713D01*
X93292380Y-102560713D02*
X93292380Y-101941666D01*
%TO.C,D4*%
X88281905Y-143992380D02*
X88281905Y-142992380D01*
X88281905Y-142992380D02*
X88520000Y-142992380D01*
X88520000Y-142992380D02*
X88662857Y-143040000D01*
X88662857Y-143040000D02*
X88758095Y-143135238D01*
X88758095Y-143135238D02*
X88805714Y-143230476D01*
X88805714Y-143230476D02*
X88853333Y-143420952D01*
X88853333Y-143420952D02*
X88853333Y-143563809D01*
X88853333Y-143563809D02*
X88805714Y-143754285D01*
X88805714Y-143754285D02*
X88758095Y-143849523D01*
X88758095Y-143849523D02*
X88662857Y-143944761D01*
X88662857Y-143944761D02*
X88520000Y-143992380D01*
X88520000Y-143992380D02*
X88281905Y-143992380D01*
X89710476Y-143325714D02*
X89710476Y-143992380D01*
X89472381Y-142944761D02*
X89234286Y-143659047D01*
X89234286Y-143659047D02*
X89853333Y-143659047D01*
%TO.C,D2*%
X88286905Y-135417380D02*
X88286905Y-134417380D01*
X88286905Y-134417380D02*
X88525000Y-134417380D01*
X88525000Y-134417380D02*
X88667857Y-134465000D01*
X88667857Y-134465000D02*
X88763095Y-134560238D01*
X88763095Y-134560238D02*
X88810714Y-134655476D01*
X88810714Y-134655476D02*
X88858333Y-134845952D01*
X88858333Y-134845952D02*
X88858333Y-134988809D01*
X88858333Y-134988809D02*
X88810714Y-135179285D01*
X88810714Y-135179285D02*
X88763095Y-135274523D01*
X88763095Y-135274523D02*
X88667857Y-135369761D01*
X88667857Y-135369761D02*
X88525000Y-135417380D01*
X88525000Y-135417380D02*
X88286905Y-135417380D01*
X89239286Y-134512619D02*
X89286905Y-134465000D01*
X89286905Y-134465000D02*
X89382143Y-134417380D01*
X89382143Y-134417380D02*
X89620238Y-134417380D01*
X89620238Y-134417380D02*
X89715476Y-134465000D01*
X89715476Y-134465000D02*
X89763095Y-134512619D01*
X89763095Y-134512619D02*
X89810714Y-134607857D01*
X89810714Y-134607857D02*
X89810714Y-134703095D01*
X89810714Y-134703095D02*
X89763095Y-134845952D01*
X89763095Y-134845952D02*
X89191667Y-135417380D01*
X89191667Y-135417380D02*
X89810714Y-135417380D01*
%TO.C,C3*%
X134353333Y-177832142D02*
X134305714Y-177879761D01*
X134305714Y-177879761D02*
X134162857Y-177927380D01*
X134162857Y-177927380D02*
X134067619Y-177927380D01*
X134067619Y-177927380D02*
X133924762Y-177879761D01*
X133924762Y-177879761D02*
X133829524Y-177784523D01*
X133829524Y-177784523D02*
X133781905Y-177689285D01*
X133781905Y-177689285D02*
X133734286Y-177498809D01*
X133734286Y-177498809D02*
X133734286Y-177355952D01*
X133734286Y-177355952D02*
X133781905Y-177165476D01*
X133781905Y-177165476D02*
X133829524Y-177070238D01*
X133829524Y-177070238D02*
X133924762Y-176975000D01*
X133924762Y-176975000D02*
X134067619Y-176927380D01*
X134067619Y-176927380D02*
X134162857Y-176927380D01*
X134162857Y-176927380D02*
X134305714Y-176975000D01*
X134305714Y-176975000D02*
X134353333Y-177022619D01*
X134686667Y-176927380D02*
X135305714Y-176927380D01*
X135305714Y-176927380D02*
X134972381Y-177308333D01*
X134972381Y-177308333D02*
X135115238Y-177308333D01*
X135115238Y-177308333D02*
X135210476Y-177355952D01*
X135210476Y-177355952D02*
X135258095Y-177403571D01*
X135258095Y-177403571D02*
X135305714Y-177498809D01*
X135305714Y-177498809D02*
X135305714Y-177736904D01*
X135305714Y-177736904D02*
X135258095Y-177832142D01*
X135258095Y-177832142D02*
X135210476Y-177879761D01*
X135210476Y-177879761D02*
X135115238Y-177927380D01*
X135115238Y-177927380D02*
X134829524Y-177927380D01*
X134829524Y-177927380D02*
X134734286Y-177879761D01*
X134734286Y-177879761D02*
X134686667Y-177832142D01*
%TO.C,SSCART1*%
X82852381Y-83569761D02*
X82995238Y-83617380D01*
X82995238Y-83617380D02*
X83233333Y-83617380D01*
X83233333Y-83617380D02*
X83328571Y-83569761D01*
X83328571Y-83569761D02*
X83376190Y-83522142D01*
X83376190Y-83522142D02*
X83423809Y-83426904D01*
X83423809Y-83426904D02*
X83423809Y-83331666D01*
X83423809Y-83331666D02*
X83376190Y-83236428D01*
X83376190Y-83236428D02*
X83328571Y-83188809D01*
X83328571Y-83188809D02*
X83233333Y-83141190D01*
X83233333Y-83141190D02*
X83042857Y-83093571D01*
X83042857Y-83093571D02*
X82947619Y-83045952D01*
X82947619Y-83045952D02*
X82900000Y-82998333D01*
X82900000Y-82998333D02*
X82852381Y-82903095D01*
X82852381Y-82903095D02*
X82852381Y-82807857D01*
X82852381Y-82807857D02*
X82900000Y-82712619D01*
X82900000Y-82712619D02*
X82947619Y-82665000D01*
X82947619Y-82665000D02*
X83042857Y-82617380D01*
X83042857Y-82617380D02*
X83280952Y-82617380D01*
X83280952Y-82617380D02*
X83423809Y-82665000D01*
X83804762Y-83569761D02*
X83947619Y-83617380D01*
X83947619Y-83617380D02*
X84185714Y-83617380D01*
X84185714Y-83617380D02*
X84280952Y-83569761D01*
X84280952Y-83569761D02*
X84328571Y-83522142D01*
X84328571Y-83522142D02*
X84376190Y-83426904D01*
X84376190Y-83426904D02*
X84376190Y-83331666D01*
X84376190Y-83331666D02*
X84328571Y-83236428D01*
X84328571Y-83236428D02*
X84280952Y-83188809D01*
X84280952Y-83188809D02*
X84185714Y-83141190D01*
X84185714Y-83141190D02*
X83995238Y-83093571D01*
X83995238Y-83093571D02*
X83900000Y-83045952D01*
X83900000Y-83045952D02*
X83852381Y-82998333D01*
X83852381Y-82998333D02*
X83804762Y-82903095D01*
X83804762Y-82903095D02*
X83804762Y-82807857D01*
X83804762Y-82807857D02*
X83852381Y-82712619D01*
X83852381Y-82712619D02*
X83900000Y-82665000D01*
X83900000Y-82665000D02*
X83995238Y-82617380D01*
X83995238Y-82617380D02*
X84233333Y-82617380D01*
X84233333Y-82617380D02*
X84376190Y-82665000D01*
X85376190Y-83522142D02*
X85328571Y-83569761D01*
X85328571Y-83569761D02*
X85185714Y-83617380D01*
X85185714Y-83617380D02*
X85090476Y-83617380D01*
X85090476Y-83617380D02*
X84947619Y-83569761D01*
X84947619Y-83569761D02*
X84852381Y-83474523D01*
X84852381Y-83474523D02*
X84804762Y-83379285D01*
X84804762Y-83379285D02*
X84757143Y-83188809D01*
X84757143Y-83188809D02*
X84757143Y-83045952D01*
X84757143Y-83045952D02*
X84804762Y-82855476D01*
X84804762Y-82855476D02*
X84852381Y-82760238D01*
X84852381Y-82760238D02*
X84947619Y-82665000D01*
X84947619Y-82665000D02*
X85090476Y-82617380D01*
X85090476Y-82617380D02*
X85185714Y-82617380D01*
X85185714Y-82617380D02*
X85328571Y-82665000D01*
X85328571Y-82665000D02*
X85376190Y-82712619D01*
X85757143Y-83331666D02*
X86233333Y-83331666D01*
X85661905Y-83617380D02*
X85995238Y-82617380D01*
X85995238Y-82617380D02*
X86328571Y-83617380D01*
X87233333Y-83617380D02*
X86900000Y-83141190D01*
X86661905Y-83617380D02*
X86661905Y-82617380D01*
X86661905Y-82617380D02*
X87042857Y-82617380D01*
X87042857Y-82617380D02*
X87138095Y-82665000D01*
X87138095Y-82665000D02*
X87185714Y-82712619D01*
X87185714Y-82712619D02*
X87233333Y-82807857D01*
X87233333Y-82807857D02*
X87233333Y-82950714D01*
X87233333Y-82950714D02*
X87185714Y-83045952D01*
X87185714Y-83045952D02*
X87138095Y-83093571D01*
X87138095Y-83093571D02*
X87042857Y-83141190D01*
X87042857Y-83141190D02*
X86661905Y-83141190D01*
X87519048Y-82617380D02*
X88090476Y-82617380D01*
X87804762Y-83617380D02*
X87804762Y-82617380D01*
X88947619Y-83617380D02*
X88376191Y-83617380D01*
X88661905Y-83617380D02*
X88661905Y-82617380D01*
X88661905Y-82617380D02*
X88566667Y-82760238D01*
X88566667Y-82760238D02*
X88471429Y-82855476D01*
X88471429Y-82855476D02*
X88376191Y-82903095D01*
%TO.C,U6*%
X177627380Y-148761904D02*
X178436904Y-148761904D01*
X178436904Y-148761904D02*
X178532142Y-148714285D01*
X178532142Y-148714285D02*
X178579761Y-148666666D01*
X178579761Y-148666666D02*
X178627380Y-148571428D01*
X178627380Y-148571428D02*
X178627380Y-148380952D01*
X178627380Y-148380952D02*
X178579761Y-148285714D01*
X178579761Y-148285714D02*
X178532142Y-148238095D01*
X178532142Y-148238095D02*
X178436904Y-148190476D01*
X178436904Y-148190476D02*
X177627380Y-148190476D01*
X177627380Y-147285714D02*
X177627380Y-147476190D01*
X177627380Y-147476190D02*
X177675000Y-147571428D01*
X177675000Y-147571428D02*
X177722619Y-147619047D01*
X177722619Y-147619047D02*
X177865476Y-147714285D01*
X177865476Y-147714285D02*
X178055952Y-147761904D01*
X178055952Y-147761904D02*
X178436904Y-147761904D01*
X178436904Y-147761904D02*
X178532142Y-147714285D01*
X178532142Y-147714285D02*
X178579761Y-147666666D01*
X178579761Y-147666666D02*
X178627380Y-147571428D01*
X178627380Y-147571428D02*
X178627380Y-147380952D01*
X178627380Y-147380952D02*
X178579761Y-147285714D01*
X178579761Y-147285714D02*
X178532142Y-147238095D01*
X178532142Y-147238095D02*
X178436904Y-147190476D01*
X178436904Y-147190476D02*
X178198809Y-147190476D01*
X178198809Y-147190476D02*
X178103571Y-147238095D01*
X178103571Y-147238095D02*
X178055952Y-147285714D01*
X178055952Y-147285714D02*
X178008333Y-147380952D01*
X178008333Y-147380952D02*
X178008333Y-147571428D01*
X178008333Y-147571428D02*
X178055952Y-147666666D01*
X178055952Y-147666666D02*
X178103571Y-147714285D01*
X178103571Y-147714285D02*
X178198809Y-147761904D01*
%TO.C,U1*%
X130122380Y-159146904D02*
X130931904Y-159146904D01*
X130931904Y-159146904D02*
X131027142Y-159099285D01*
X131027142Y-159099285D02*
X131074761Y-159051666D01*
X131074761Y-159051666D02*
X131122380Y-158956428D01*
X131122380Y-158956428D02*
X131122380Y-158765952D01*
X131122380Y-158765952D02*
X131074761Y-158670714D01*
X131074761Y-158670714D02*
X131027142Y-158623095D01*
X131027142Y-158623095D02*
X130931904Y-158575476D01*
X130931904Y-158575476D02*
X130122380Y-158575476D01*
X131122380Y-157575476D02*
X131122380Y-158146904D01*
X131122380Y-157861190D02*
X130122380Y-157861190D01*
X130122380Y-157861190D02*
X130265238Y-157956428D01*
X130265238Y-157956428D02*
X130360476Y-158051666D01*
X130360476Y-158051666D02*
X130408095Y-158146904D01*
%TO.C,D1*%
X88261905Y-130967380D02*
X88261905Y-129967380D01*
X88261905Y-129967380D02*
X88500000Y-129967380D01*
X88500000Y-129967380D02*
X88642857Y-130015000D01*
X88642857Y-130015000D02*
X88738095Y-130110238D01*
X88738095Y-130110238D02*
X88785714Y-130205476D01*
X88785714Y-130205476D02*
X88833333Y-130395952D01*
X88833333Y-130395952D02*
X88833333Y-130538809D01*
X88833333Y-130538809D02*
X88785714Y-130729285D01*
X88785714Y-130729285D02*
X88738095Y-130824523D01*
X88738095Y-130824523D02*
X88642857Y-130919761D01*
X88642857Y-130919761D02*
X88500000Y-130967380D01*
X88500000Y-130967380D02*
X88261905Y-130967380D01*
X89785714Y-130967380D02*
X89214286Y-130967380D01*
X89500000Y-130967380D02*
X89500000Y-129967380D01*
X89500000Y-129967380D02*
X89404762Y-130110238D01*
X89404762Y-130110238D02*
X89309524Y-130205476D01*
X89309524Y-130205476D02*
X89214286Y-130253095D01*
%TO.C,C1*%
X167333333Y-176882142D02*
X167285714Y-176929761D01*
X167285714Y-176929761D02*
X167142857Y-176977380D01*
X167142857Y-176977380D02*
X167047619Y-176977380D01*
X167047619Y-176977380D02*
X166904762Y-176929761D01*
X166904762Y-176929761D02*
X166809524Y-176834523D01*
X166809524Y-176834523D02*
X166761905Y-176739285D01*
X166761905Y-176739285D02*
X166714286Y-176548809D01*
X166714286Y-176548809D02*
X166714286Y-176405952D01*
X166714286Y-176405952D02*
X166761905Y-176215476D01*
X166761905Y-176215476D02*
X166809524Y-176120238D01*
X166809524Y-176120238D02*
X166904762Y-176025000D01*
X166904762Y-176025000D02*
X167047619Y-175977380D01*
X167047619Y-175977380D02*
X167142857Y-175977380D01*
X167142857Y-175977380D02*
X167285714Y-176025000D01*
X167285714Y-176025000D02*
X167333333Y-176072619D01*
X168285714Y-176977380D02*
X167714286Y-176977380D01*
X168000000Y-176977380D02*
X168000000Y-175977380D01*
X168000000Y-175977380D02*
X167904762Y-176120238D01*
X167904762Y-176120238D02*
X167809524Y-176215476D01*
X167809524Y-176215476D02*
X167714286Y-176263095D01*
%TO.C,U4*%
X135097380Y-170621904D02*
X135906904Y-170621904D01*
X135906904Y-170621904D02*
X136002142Y-170574285D01*
X136002142Y-170574285D02*
X136049761Y-170526666D01*
X136049761Y-170526666D02*
X136097380Y-170431428D01*
X136097380Y-170431428D02*
X136097380Y-170240952D01*
X136097380Y-170240952D02*
X136049761Y-170145714D01*
X136049761Y-170145714D02*
X136002142Y-170098095D01*
X136002142Y-170098095D02*
X135906904Y-170050476D01*
X135906904Y-170050476D02*
X135097380Y-170050476D01*
X135430714Y-169145714D02*
X136097380Y-169145714D01*
X135049761Y-169383809D02*
X135764047Y-169621904D01*
X135764047Y-169621904D02*
X135764047Y-169002857D01*
%TO.C,C4*%
X135895833Y-151137142D02*
X135848214Y-151184761D01*
X135848214Y-151184761D02*
X135705357Y-151232380D01*
X135705357Y-151232380D02*
X135610119Y-151232380D01*
X135610119Y-151232380D02*
X135467262Y-151184761D01*
X135467262Y-151184761D02*
X135372024Y-151089523D01*
X135372024Y-151089523D02*
X135324405Y-150994285D01*
X135324405Y-150994285D02*
X135276786Y-150803809D01*
X135276786Y-150803809D02*
X135276786Y-150660952D01*
X135276786Y-150660952D02*
X135324405Y-150470476D01*
X135324405Y-150470476D02*
X135372024Y-150375238D01*
X135372024Y-150375238D02*
X135467262Y-150280000D01*
X135467262Y-150280000D02*
X135610119Y-150232380D01*
X135610119Y-150232380D02*
X135705357Y-150232380D01*
X135705357Y-150232380D02*
X135848214Y-150280000D01*
X135848214Y-150280000D02*
X135895833Y-150327619D01*
X136752976Y-150565714D02*
X136752976Y-151232380D01*
X136514881Y-150184761D02*
X136276786Y-150899047D01*
X136276786Y-150899047D02*
X136895833Y-150899047D01*
%TO.C,D3*%
X88211905Y-139742380D02*
X88211905Y-138742380D01*
X88211905Y-138742380D02*
X88450000Y-138742380D01*
X88450000Y-138742380D02*
X88592857Y-138790000D01*
X88592857Y-138790000D02*
X88688095Y-138885238D01*
X88688095Y-138885238D02*
X88735714Y-138980476D01*
X88735714Y-138980476D02*
X88783333Y-139170952D01*
X88783333Y-139170952D02*
X88783333Y-139313809D01*
X88783333Y-139313809D02*
X88735714Y-139504285D01*
X88735714Y-139504285D02*
X88688095Y-139599523D01*
X88688095Y-139599523D02*
X88592857Y-139694761D01*
X88592857Y-139694761D02*
X88450000Y-139742380D01*
X88450000Y-139742380D02*
X88211905Y-139742380D01*
X89116667Y-138742380D02*
X89735714Y-138742380D01*
X89735714Y-138742380D02*
X89402381Y-139123333D01*
X89402381Y-139123333D02*
X89545238Y-139123333D01*
X89545238Y-139123333D02*
X89640476Y-139170952D01*
X89640476Y-139170952D02*
X89688095Y-139218571D01*
X89688095Y-139218571D02*
X89735714Y-139313809D01*
X89735714Y-139313809D02*
X89735714Y-139551904D01*
X89735714Y-139551904D02*
X89688095Y-139647142D01*
X89688095Y-139647142D02*
X89640476Y-139694761D01*
X89640476Y-139694761D02*
X89545238Y-139742380D01*
X89545238Y-139742380D02*
X89259524Y-139742380D01*
X89259524Y-139742380D02*
X89164286Y-139694761D01*
X89164286Y-139694761D02*
X89116667Y-139647142D01*
%TO.C,R1*%
X122563333Y-177687380D02*
X122230000Y-177211190D01*
X121991905Y-177687380D02*
X121991905Y-176687380D01*
X121991905Y-176687380D02*
X122372857Y-176687380D01*
X122372857Y-176687380D02*
X122468095Y-176735000D01*
X122468095Y-176735000D02*
X122515714Y-176782619D01*
X122515714Y-176782619D02*
X122563333Y-176877857D01*
X122563333Y-176877857D02*
X122563333Y-177020714D01*
X122563333Y-177020714D02*
X122515714Y-177115952D01*
X122515714Y-177115952D02*
X122468095Y-177163571D01*
X122468095Y-177163571D02*
X122372857Y-177211190D01*
X122372857Y-177211190D02*
X121991905Y-177211190D01*
X123515714Y-177687380D02*
X122944286Y-177687380D01*
X123230000Y-177687380D02*
X123230000Y-176687380D01*
X123230000Y-176687380D02*
X123134762Y-176830238D01*
X123134762Y-176830238D02*
X123039524Y-176925476D01*
X123039524Y-176925476D02*
X122944286Y-176973095D01*
%TO.C,SW1*%
X103219761Y-154408332D02*
X103267380Y-154265475D01*
X103267380Y-154265475D02*
X103267380Y-154027380D01*
X103267380Y-154027380D02*
X103219761Y-153932142D01*
X103219761Y-153932142D02*
X103172142Y-153884523D01*
X103172142Y-153884523D02*
X103076904Y-153836904D01*
X103076904Y-153836904D02*
X102981666Y-153836904D01*
X102981666Y-153836904D02*
X102886428Y-153884523D01*
X102886428Y-153884523D02*
X102838809Y-153932142D01*
X102838809Y-153932142D02*
X102791190Y-154027380D01*
X102791190Y-154027380D02*
X102743571Y-154217856D01*
X102743571Y-154217856D02*
X102695952Y-154313094D01*
X102695952Y-154313094D02*
X102648333Y-154360713D01*
X102648333Y-154360713D02*
X102553095Y-154408332D01*
X102553095Y-154408332D02*
X102457857Y-154408332D01*
X102457857Y-154408332D02*
X102362619Y-154360713D01*
X102362619Y-154360713D02*
X102315000Y-154313094D01*
X102315000Y-154313094D02*
X102267380Y-154217856D01*
X102267380Y-154217856D02*
X102267380Y-153979761D01*
X102267380Y-153979761D02*
X102315000Y-153836904D01*
X102267380Y-153503570D02*
X103267380Y-153265475D01*
X103267380Y-153265475D02*
X102553095Y-153074999D01*
X102553095Y-153074999D02*
X103267380Y-152884523D01*
X103267380Y-152884523D02*
X102267380Y-152646428D01*
X103267380Y-151741666D02*
X103267380Y-152313094D01*
X103267380Y-152027380D02*
X102267380Y-152027380D01*
X102267380Y-152027380D02*
X102410238Y-152122618D01*
X102410238Y-152122618D02*
X102505476Y-152217856D01*
X102505476Y-152217856D02*
X102553095Y-152313094D01*
%TO.C,U3*%
X114962380Y-114011904D02*
X115771904Y-114011904D01*
X115771904Y-114011904D02*
X115867142Y-113964285D01*
X115867142Y-113964285D02*
X115914761Y-113916666D01*
X115914761Y-113916666D02*
X115962380Y-113821428D01*
X115962380Y-113821428D02*
X115962380Y-113630952D01*
X115962380Y-113630952D02*
X115914761Y-113535714D01*
X115914761Y-113535714D02*
X115867142Y-113488095D01*
X115867142Y-113488095D02*
X115771904Y-113440476D01*
X115771904Y-113440476D02*
X114962380Y-113440476D01*
X114962380Y-113059523D02*
X114962380Y-112440476D01*
X114962380Y-112440476D02*
X115343333Y-112773809D01*
X115343333Y-112773809D02*
X115343333Y-112630952D01*
X115343333Y-112630952D02*
X115390952Y-112535714D01*
X115390952Y-112535714D02*
X115438571Y-112488095D01*
X115438571Y-112488095D02*
X115533809Y-112440476D01*
X115533809Y-112440476D02*
X115771904Y-112440476D01*
X115771904Y-112440476D02*
X115867142Y-112488095D01*
X115867142Y-112488095D02*
X115914761Y-112535714D01*
X115914761Y-112535714D02*
X115962380Y-112630952D01*
X115962380Y-112630952D02*
X115962380Y-112916666D01*
X115962380Y-112916666D02*
X115914761Y-113011904D01*
X115914761Y-113011904D02*
X115867142Y-113059523D01*
D11*
%TO.C,U8*%
X150655000Y-145940000D02*
X132395000Y-145940000D01*
X150655000Y-139624466D02*
X150655000Y-145940000D01*
X150655000Y-138265534D02*
X150655000Y-131810000D01*
X149855000Y-131010000D02*
X150655000Y-131810000D01*
X132395000Y-145940000D02*
X132395000Y-131010000D01*
X132395000Y-131010000D02*
X149855000Y-131010000D01*
X150655000Y-138265534D02*
G75*
G03*
X150655000Y-139624466I0J-679466D01*
G01*
%TO.C,U7*%
X140780000Y-122290000D02*
X122520000Y-122290000D01*
X140780000Y-115974466D02*
X140780000Y-122290000D01*
X140780000Y-114615534D02*
X140780000Y-108160000D01*
X139980000Y-107360000D02*
X140780000Y-108160000D01*
X122520000Y-122290000D02*
X122520000Y-107360000D01*
X122520000Y-107360000D02*
X139980000Y-107360000D01*
X140780000Y-114615534D02*
G75*
G03*
X140780000Y-115974466I0J-679466D01*
G01*
%TO.C,C2*%
X116811252Y-123085000D02*
X116288748Y-123085000D01*
X116811252Y-121615000D02*
X116288748Y-121615000D01*
%TO.C,U5*%
X146500000Y-166630000D02*
X146500000Y-171930000D01*
X167000000Y-174420000D02*
X167000000Y-164140000D01*
X146500000Y-171930000D02*
X166940000Y-171930000D01*
X166940000Y-168280000D02*
X166940000Y-166630000D01*
X166940000Y-171930000D02*
X166940000Y-170280000D01*
X166940000Y-166630000D02*
X146500000Y-166630000D01*
X146440000Y-174420000D02*
X167000000Y-174420000D01*
X167000000Y-164140000D02*
X146440000Y-164140000D01*
X146440000Y-164140000D02*
X146440000Y-174420000D01*
X166940000Y-168280000D02*
G75*
G03*
X166940000Y-170280000I0J-1000000D01*
G01*
%TO.C,C7*%
X140035000Y-103538748D02*
X140035000Y-104061252D01*
X138565000Y-103538748D02*
X138565000Y-104061252D01*
%TO.C,U2*%
X99980000Y-127030000D02*
X99980000Y-125575000D01*
X114170000Y-126747218D02*
X112997782Y-125575000D01*
X99980000Y-125575000D02*
X101435000Y-125575000D01*
X114170000Y-137225000D02*
X112715000Y-137225000D01*
X114170000Y-135770000D02*
X114170000Y-137225000D01*
X99980000Y-137225000D02*
X101435000Y-137225000D01*
X99980000Y-135770000D02*
X99980000Y-137225000D01*
X112997782Y-125575000D02*
X112715000Y-125575000D01*
X114170000Y-127030000D02*
X114170000Y-126747218D01*
%TO.C,SW2*%
X91835000Y-105665000D02*
X87335000Y-105665000D01*
X80115000Y-103275000D02*
X80115000Y-99465000D01*
X80725000Y-104775000D02*
X86225000Y-104775000D01*
X91835000Y-100885000D02*
X87335000Y-100885000D01*
X86225000Y-101775000D02*
X80725000Y-101775000D01*
X86225000Y-104775000D02*
X86225000Y-104275000D01*
X80115000Y-99465000D02*
X91835000Y-99465000D01*
X87335000Y-105665000D02*
X87335000Y-103275000D01*
X87335000Y-100885000D02*
X87335000Y-103275000D01*
X91525000Y-102325000D02*
X90925000Y-102025000D01*
X80115000Y-103275000D02*
X80115000Y-107085000D01*
X86225000Y-104275000D02*
X80725000Y-104275000D01*
X80725000Y-104275000D02*
X80725000Y-104775000D01*
X80725000Y-101775000D02*
X80725000Y-102275000D01*
X86225000Y-102275000D02*
X86225000Y-101775000D01*
X80725000Y-102275000D02*
X86225000Y-102275000D01*
X91835000Y-107085000D02*
X91835000Y-105665000D01*
X91525000Y-101725000D02*
X91525000Y-102325000D01*
X90925000Y-102025000D02*
X91525000Y-101725000D01*
X91835000Y-99465000D02*
X91835000Y-100885000D01*
X80115000Y-107085000D02*
X91835000Y-107085000D01*
%TO.C,D4*%
X93680000Y-142775000D02*
X93680000Y-140555000D01*
X93680000Y-140555000D02*
X86270000Y-140555000D01*
X86270000Y-142775000D02*
X93680000Y-142775000D01*
%TO.C,D2*%
X93680000Y-134225000D02*
X93680000Y-132005000D01*
X93680000Y-132005000D02*
X86270000Y-132005000D01*
X86270000Y-134225000D02*
X93680000Y-134225000D01*
%TO.C,C3*%
X131531252Y-178195000D02*
X131008748Y-178195000D01*
X131531252Y-176725000D02*
X131008748Y-176725000D01*
%TO.C,U6*%
X156820000Y-145350000D02*
X156820000Y-150650000D01*
X177320000Y-153140000D02*
X177320000Y-142860000D01*
X156820000Y-150650000D02*
X177260000Y-150650000D01*
X177260000Y-147000000D02*
X177260000Y-145350000D01*
X177260000Y-150650000D02*
X177260000Y-149000000D01*
X177260000Y-145350000D02*
X156820000Y-145350000D01*
X156760000Y-153140000D02*
X177320000Y-153140000D01*
X177320000Y-142860000D02*
X156760000Y-142860000D01*
X156760000Y-142860000D02*
X156760000Y-153140000D01*
X177260000Y-147000000D02*
G75*
G03*
X177260000Y-149000000I0J-1000000D01*
G01*
%TO.C,U1*%
X129815000Y-153245000D02*
X104175000Y-153245000D01*
X129755000Y-155735000D02*
X104235000Y-155735000D01*
X104235000Y-155735000D02*
X104235000Y-161035000D01*
X129815000Y-163525000D02*
X129815000Y-153245000D01*
X129755000Y-157385000D02*
X129755000Y-155735000D01*
X104175000Y-153245000D02*
X104175000Y-163525000D01*
X104175000Y-163525000D02*
X129815000Y-163525000D01*
X104235000Y-161035000D02*
X129755000Y-161035000D01*
X129755000Y-161035000D02*
X129755000Y-159385000D01*
X129755000Y-157385000D02*
G75*
G03*
X129755000Y-159385000I0J-1000000D01*
G01*
%TO.C,D1*%
X93680000Y-129700000D02*
X93680000Y-127480000D01*
X93680000Y-127480000D02*
X86270000Y-127480000D01*
X86270000Y-129700000D02*
X93680000Y-129700000D01*
%TO.C,C1*%
X164331252Y-177515000D02*
X163808748Y-177515000D01*
X164331252Y-176045000D02*
X163808748Y-176045000D01*
%TO.C,U4*%
X134730000Y-167210000D02*
X104130000Y-167210000D01*
X134790000Y-164720000D02*
X104070000Y-164720000D01*
X134790000Y-175000000D02*
X134790000Y-164720000D01*
X104070000Y-175000000D02*
X134790000Y-175000000D01*
X104130000Y-167210000D02*
X104130000Y-172510000D01*
X104070000Y-164720000D02*
X104070000Y-175000000D01*
X134730000Y-172510000D02*
X134730000Y-170860000D01*
X134730000Y-168860000D02*
X134730000Y-167210000D01*
X104130000Y-172510000D02*
X134730000Y-172510000D01*
X134730000Y-168860000D02*
G75*
G03*
X134730000Y-170860000I0J-1000000D01*
G01*
%TO.C,C4*%
X136698752Y-149500000D02*
X136176248Y-149500000D01*
X136698752Y-148030000D02*
X136176248Y-148030000D01*
%TO.C,D3*%
X93555000Y-138525000D02*
X93555000Y-136305000D01*
X93555000Y-136305000D02*
X86145000Y-136305000D01*
X86145000Y-138525000D02*
X93555000Y-138525000D01*
%TO.C,R1*%
X126397064Y-177995000D02*
X125942936Y-177995000D01*
X126397064Y-176525000D02*
X125942936Y-176525000D01*
%TO.C,SW1*%
X90700000Y-150825000D02*
X96200000Y-150825000D01*
X90700000Y-155825000D02*
X96200000Y-155825000D01*
X101810000Y-149435000D02*
X97310000Y-149435000D01*
X96200000Y-153325000D02*
X96200000Y-152825000D01*
X101810000Y-148015000D02*
X101810000Y-149435000D01*
X96200000Y-150325000D02*
X90700000Y-150325000D01*
X90090000Y-153075000D02*
X90090000Y-158135000D01*
X90090000Y-158135000D02*
X101810000Y-158135000D01*
X96200000Y-150825000D02*
X96200000Y-150325000D01*
X99900000Y-150875000D02*
X99300000Y-150575000D01*
X90090000Y-153075000D02*
X90090000Y-148015000D01*
X90700000Y-155325000D02*
X90700000Y-155825000D01*
X96200000Y-155825000D02*
X96200000Y-155325000D01*
X90090000Y-148015000D02*
X101810000Y-148015000D01*
X90700000Y-153325000D02*
X96200000Y-153325000D01*
X101810000Y-158135000D02*
X101810000Y-156715000D01*
X101810000Y-156715000D02*
X97310000Y-156715000D01*
X96200000Y-155325000D02*
X90700000Y-155325000D01*
X96200000Y-152825000D02*
X90700000Y-152825000D01*
X99900000Y-150275000D02*
X99900000Y-150875000D01*
X90700000Y-150325000D02*
X90700000Y-150825000D01*
X90700000Y-152825000D02*
X90700000Y-153325000D01*
X99300000Y-150575000D02*
X99900000Y-150275000D01*
%TO.C,U3*%
X99980000Y-108880000D02*
X99980000Y-107425000D01*
X114170000Y-108597218D02*
X112997782Y-107425000D01*
X99980000Y-107425000D02*
X101435000Y-107425000D01*
X114170000Y-119075000D02*
X112715000Y-119075000D01*
X114170000Y-117620000D02*
X114170000Y-119075000D01*
X99980000Y-119075000D02*
X101435000Y-119075000D01*
X99980000Y-117620000D02*
X99980000Y-119075000D01*
X112997782Y-107425000D02*
X112715000Y-107425000D01*
X114170000Y-108880000D02*
X114170000Y-108597218D01*
%TD*%
M02*
